<?xml version="1.0" encoding="UTF-8"?>
<!DOCTYPE svg PUBLIC "-//W3C//DTD SVG 1.1//EN" "http://www.w3.org/Graphics/SVG/1.1/DTD/svg11.dtd">
<svg xmlns="http://www.w3.org/2000/svg" version="1.1" width="2000px" height="2000px" style="shape-rendering:geometricPrecision; text-rendering:geometricPrecision; image-rendering:optimizeQuality; fill-rule:evenodd; clip-rule:evenodd" xmlns:xlink="http://www.w3.org/1999/xlink">
<g><path style="opacity:0.873" fill="#e9e9e9" d="M 1438.5,1505.5 C 1438.5,1505.17 1438.5,1504.83 1438.5,1504.5C 1544.83,1504.5 1651.17,1504.5 1757.5,1504.5C 1757.83,1411 1757.5,1317.67 1756.5,1224.5C 1756.1,1219.22 1756.76,1214.22 1758.5,1209.5C 1758.5,1256.17 1758.5,1302.83 1758.5,1349.5C 1778.89,1349.95 1799.22,1349.45 1819.5,1348C 1828.54,1344.63 1833.37,1338.13 1834,1328.5C 1834.67,966.167 1834.67,603.833 1834,241.5C 1832.75,230.249 1826.58,223.416 1815.5,221C 1556.17,220.333 1296.83,220.333 1037.5,221C 1026.43,223.401 1020.27,230.234 1019,241.5C 1018.5,253.495 1018.33,265.495 1018.5,277.5C 1038.17,277.5 1057.83,277.5 1077.5,277.5C 1077.5,274.833 1077.5,272.167 1077.5,269.5C 1122.83,269.5 1168.17,269.5 1213.5,269.5C 1213.5,272.167 1213.5,274.833 1213.5,277.5C 1218.84,277.334 1224.18,277.501 1229.5,278C 1232.37,280.84 1232.04,283.174 1228.5,285C 1223.85,285.499 1219.18,285.666 1214.5,285.5C 1219.02,383.492 1223.36,481.492 1227.5,579.5C 1217.17,579.5 1206.83,579.5 1196.5,579.5C 1195.5,483.57 1195.17,387.57 1195.5,291.5C 1156.17,291.5 1116.83,291.5 1077.5,291.5C 1077.5,289.5 1077.5,287.5 1077.5,285.5C 1077.5,283.167 1077.5,280.833 1077.5,278.5C 894.167,278.5 710.833,278.5 527.5,278.5C 527.5,280.833 527.5,283.167 527.5,285.5C 527.5,287.5 527.5,289.5 527.5,291.5C 489.5,291.5 451.5,291.5 413.5,291.5C 413.5,323.833 413.5,356.167 413.5,388.5C 415.099,388.232 416.432,388.566 417.5,389.5C 406.121,388.679 395.454,391.012 385.5,396.5C 387.198,359.502 388.865,322.502 390.5,285.5C 387.15,285.665 383.817,285.498 380.5,285C 376.9,282.849 376.9,280.515 380.5,278C 384.152,277.501 387.818,277.335 391.5,277.5C 391.5,274.833 391.5,272.167 391.5,269.5C 436.833,269.5 482.167,269.5 527.5,269.5C 527.5,272.167 527.5,274.833 527.5,277.5C 674.5,277.5 821.5,277.5 968.5,277.5C 968.95,262.761 968.45,248.095 967,233.5C 963.566,226.028 957.732,221.862 949.5,221C 690.5,220.333 431.5,220.333 172.5,221C 161.879,223.288 155.712,229.788 154,240.5C 153.333,603.5 153.333,966.5 154,1329.5C 155.712,1340.21 161.879,1346.71 172.5,1349C 197.164,1349.5 221.831,1349.67 246.5,1349.5C 247.506,1349.94 247.506,1350.6 246.5,1351.5C 220.457,1351.95 194.457,1351.45 168.5,1350C 158.569,1346.74 153.069,1339.9 152,1329.5C 151.333,966.5 151.333,603.5 152,240.5C 153.085,230.085 158.585,223.251 168.5,220C 430.167,219.333 691.833,219.333 953.5,220C 962.219,222.263 967.719,227.763 970,236.5C 970.5,250.163 970.667,263.829 970.5,277.5C 985.833,277.5 1001.17,277.5 1016.5,277.5C 1016.13,263.459 1016.63,249.459 1018,235.5C 1020.57,227.261 1026.07,222.095 1034.5,220C 1295.83,219.333 1557.17,219.333 1818.5,220C 1826.87,222.031 1832.37,227.198 1835,235.5C 1835.67,601.833 1835.67,968.167 1835,1334.5C 1832.5,1342.33 1827.33,1347.5 1819.5,1350C 1799.21,1351.44 1778.88,1351.94 1758.5,1351.5C 1758.5,1402.83 1758.5,1454.17 1758.5,1505.5C 1651.83,1505.5 1545.17,1505.5 1438.5,1505.5 Z M 1758.5,1209.5 C 1772,1016.66 1785.67,823.827 1799.5,631C 1799.36,610.715 1790.7,595.382 1773.5,585C 1768.85,582.42 1763.85,580.92 1758.5,580.5C 1758.5,515.5 1758.5,450.5 1758.5,385.5C 1636.17,385.5 1513.83,385.5 1391.5,385.5C 1387.17,385.5 1382.83,385.5 1378.5,385.5C 1378.5,450.167 1378.5,514.833 1378.5,579.5C 1328.17,579.5 1277.83,579.5 1227.5,579.5C 1223.36,481.492 1219.02,383.492 1214.5,285.5C 1219.18,285.666 1223.85,285.499 1228.5,285C 1232.04,283.174 1232.37,280.84 1229.5,278C 1224.18,277.501 1218.84,277.334 1213.5,277.5C 1213.5,274.833 1213.5,272.167 1213.5,269.5C 1168.17,269.5 1122.83,269.5 1077.5,269.5C 1077.5,272.167 1077.5,274.833 1077.5,277.5C 1057.83,277.5 1038.17,277.5 1018.5,277.5C 1018.33,265.495 1018.5,253.495 1019,241.5C 1020.27,230.234 1026.43,223.401 1037.5,221C 1296.83,220.333 1556.17,220.333 1815.5,221C 1826.58,223.416 1832.75,230.249 1834,241.5C 1834.67,603.833 1834.67,966.167 1834,1328.5C 1833.37,1338.13 1828.54,1344.63 1819.5,1348C 1799.22,1349.45 1778.89,1349.95 1758.5,1349.5C 1758.5,1302.83 1758.5,1256.17 1758.5,1209.5 Z M 385.5,396.5 C 381.512,399.313 377.178,401.48 372.5,403C 362.668,404.249 353.001,406.249 343.5,409C 342.069,409.465 340.903,410.299 340,411.5C 338.359,414.545 337.526,417.545 337.5,420.5C 334.554,419.694 331.888,418.361 329.5,416.5C 329.016,420.918 331.016,424.084 335.5,426C 330.85,432.924 329.683,440.424 332,448.5C 334.958,457.754 339.458,466.088 345.5,473.5C 342.544,476.092 341.211,479.426 341.5,483.5C 343.84,497.173 351.84,505.173 365.5,507.5C 371.084,521.733 373.75,536.566 373.5,552C 373.928,561.601 372.262,570.768 368.5,579.5C 363.04,578.204 358.04,579.371 353.5,583C 352.177,583.816 351.511,584.983 351.5,586.5C 336.06,589.359 320.727,592.859 305.5,597C 299.871,599.398 295.037,602.898 291,607.5C 275.585,629.328 263.585,652.995 255,678.5C 251.191,689.426 247.691,700.426 244.5,711.5C 248.052,712.276 251.386,713.609 254.5,715.5C 247.816,732.72 242.649,750.387 239,768.5C 237.458,798.208 246.458,824.208 266,846.5C 278.807,861.475 293.641,873.975 310.5,884C 313.444,890.721 317.277,896.888 322,902.5C 327.67,907.004 332.837,912.004 337.5,917.5C 337.358,939.019 337.691,960.353 338.5,981.5C 326.833,981.5 315.167,981.5 303.5,981.5C 281.833,981.5 260.167,981.5 238.5,981.5C 238.5,987.5 238.5,993.5 238.5,999.5C 241.167,999.5 243.833,999.5 246.5,999.5C 246.5,1116.17 246.5,1232.83 246.5,1349.5C 221.831,1349.67 197.164,1349.5 172.5,1349C 161.879,1346.71 155.712,1340.21 154,1329.5C 153.333,966.5 153.333,603.5 154,240.5C 155.712,229.788 161.879,223.288 172.5,221C 431.5,220.333 690.5,220.333 949.5,221C 957.732,221.862 963.566,226.028 967,233.5C 968.45,248.095 968.95,262.761 968.5,277.5C 821.5,277.5 674.5,277.5 527.5,277.5C 527.5,274.833 527.5,272.167 527.5,269.5C 482.167,269.5 436.833,269.5 391.5,269.5C 391.5,272.167 391.5,274.833 391.5,277.5C 387.818,277.335 384.152,277.501 380.5,278C 376.9,280.515 376.9,282.849 380.5,285C 383.817,285.498 387.15,285.665 390.5,285.5C 388.865,322.502 387.198,359.502 385.5,396.5 Z M 527.5,285.5 C 674.5,285.5 821.5,285.5 968.5,285.5C 968.5,287.5 968.5,289.5 968.5,291.5C 821.5,291.5 674.5,291.5 527.5,291.5C 527.5,289.5 527.5,287.5 527.5,285.5 Z M 1018.5,285.5 C 1038.17,285.5 1057.83,285.5 1077.5,285.5C 1077.5,287.5 1077.5,289.5 1077.5,291.5C 1057.83,291.5 1038.17,291.5 1018.5,291.5C 1018.5,289.5 1018.5,287.5 1018.5,285.5 Z M 970.5,285.5 C 985.833,285.5 1001.17,285.5 1016.5,285.5C 1016.5,287.5 1016.5,289.5 1016.5,291.5C 1001.17,291.5 985.833,291.5 970.5,291.5C 970.5,289.5 970.5,287.5 970.5,285.5 Z M 327.5,716.5 C 328.5,722.5 329.5,728.5 330.5,734.5C 334.425,778.408 336.425,822.408 336.5,866.5C 319.114,853.716 304.948,838.05 294,819.5C 285.928,805.88 282.594,791.213 284,775.5C 288.342,761.822 293.508,748.489 299.5,735.5C 304.701,737.348 309.868,739.348 315,741.5C 315.5,741.167 316,740.833 316.5,740.5C 319.802,732.229 323.469,724.229 327.5,716.5 Z M 666.5,857.5 C 663.359,898.804 660.693,940.137 658.5,981.5C 614.833,981.5 571.167,981.5 527.5,981.5C 525.632,961.485 523.632,941.485 521.5,921.5C 523.5,921.5 525.5,921.5 527.5,921.5C 527.5,900.167 527.5,878.833 527.5,857.5C 573.833,857.5 620.167,857.5 666.5,857.5 Z"/></g>
<g><path style="opacity:0.911" fill="#dfdfdf" d="M 1077.5,285.5 C 1057.83,285.5 1038.17,285.5 1018.5,285.5C 1018.06,284.494 1017.4,284.494 1016.5,285.5C 1001.17,285.5 985.833,285.5 970.5,285.5C 969.833,285.5 969.167,285.5 968.5,285.5C 821.5,285.5 674.5,285.5 527.5,285.5C 527.5,283.167 527.5,280.833 527.5,278.5C 710.833,278.5 894.167,278.5 1077.5,278.5C 1077.5,280.833 1077.5,283.167 1077.5,285.5 Z"/></g>
<g><path style="opacity:1" fill="#f2f2f2" d="M 1018.5,285.5 C 1018.5,287.5 1018.5,289.5 1018.5,291.5C 1038.17,291.5 1057.83,291.5 1077.5,291.5C 1116.83,291.5 1156.17,291.5 1195.5,291.5C 1195.17,387.57 1195.5,483.57 1196.5,579.5C 1062.83,579.5 929.167,579.5 795.5,579.5C 706.002,578.501 616.335,578.167 526.5,578.5C 526.5,587.5 526.5,596.5 526.5,605.5C 512.084,589.847 494.084,582.014 472.5,582C 465.859,580.881 459.192,580.547 452.5,581C 464.724,596.674 465.557,612.84 455,629.5C 451.594,618.612 445.094,610.279 435.5,604.5C 443.151,596.418 443.484,587.918 436.5,579C 419.851,574.149 412.517,562.983 414.5,545.5C 414.5,544.167 414.5,542.833 414.5,541.5C 441.472,533.263 454.472,514.93 453.5,486.5C 453.288,475.352 451.955,464.352 449.5,453.5C 451.784,443.868 450.451,434.702 445.5,426C 448.79,417.825 447.623,410.325 442,403.5C 435.5,395.835 427.333,391.169 417.5,389.5C 416.432,388.566 415.099,388.232 413.5,388.5C 413.5,356.167 413.5,323.833 413.5,291.5C 451.5,291.5 489.5,291.5 527.5,291.5C 674.5,291.5 821.5,291.5 968.5,291.5C 968.5,289.5 968.5,287.5 968.5,285.5C 969.167,285.5 969.833,285.5 970.5,285.5C 970.5,287.5 970.5,289.5 970.5,291.5C 985.833,291.5 1001.17,291.5 1016.5,291.5C 1016.5,289.5 1016.5,287.5 1016.5,285.5C 1017.4,284.494 1018.06,284.494 1018.5,285.5 Z M 970.5,285.5 C 985.833,285.5 1001.17,285.5 1016.5,285.5C 1016.5,287.5 1016.5,289.5 1016.5,291.5C 1001.17,291.5 985.833,291.5 970.5,291.5C 970.5,289.5 970.5,287.5 970.5,285.5 Z"/></g>
<g><path style="opacity:1" fill="#fafafa" d="M 795.5,301.5 C 795.5,390.833 795.5,480.167 795.5,569.5C 705.833,569.5 616.167,569.5 526.5,569.5C 526.5,480.167 526.5,390.833 526.5,301.5C 616.167,301.5 705.833,301.5 795.5,301.5 Z"/></g>
<g><path style="opacity:1" fill="#e1e1e1" d="M 795.5,569.5 C 795.5,480.167 795.5,390.833 795.5,301.5C 796.919,300.549 798.585,300.216 800.5,300.5C 800.5,390.167 800.5,479.833 800.5,569.5C 798.833,569.5 797.167,569.5 795.5,569.5 Z"/></g>
<g><path style="opacity:1" fill="#fcfcfc" d="M 809.5,301.5 C 898.833,301.5 988.167,301.5 1077.5,301.5C 1077.5,390.833 1077.5,480.167 1077.5,569.5C 988.167,569.5 898.833,569.5 809.5,569.5C 809.5,480.167 809.5,390.833 809.5,301.5 Z"/></g>
<g><path style="opacity:0.999" fill="#e0e0e0" d="M 1391.5,385.5 C 1391.5,450.167 1391.5,514.833 1391.5,579.5C 1387.17,579.5 1382.83,579.5 1378.5,579.5C 1378.5,514.833 1378.5,450.167 1378.5,385.5C 1382.83,385.5 1387.17,385.5 1391.5,385.5 Z"/></g>
<g><path style="opacity:0.998" fill="#efeff0" d="M 1391.5,385.5 C 1513.83,385.5 1636.17,385.5 1758.5,385.5C 1758.5,450.5 1758.5,515.5 1758.5,580.5C 1753.54,579.746 1748.54,579.413 1743.5,579.5C 1728.5,579.5 1713.5,579.5 1698.5,579.5C 1698.5,529.167 1698.5,478.833 1698.5,428.5C 1615.83,428.5 1533.17,428.5 1450.5,428.5C 1450.5,478.833 1450.5,529.167 1450.5,579.5C 1430.83,579.5 1411.17,579.5 1391.5,579.5C 1391.5,514.833 1391.5,450.167 1391.5,385.5 Z"/></g>
<g><path style="opacity:0.996" fill="#263238" d="M 417.5,389.5 C 427.333,391.169 435.5,395.835 442,403.5C 447.623,410.325 448.79,417.825 445.5,426C 450.451,434.702 451.784,443.868 449.5,453.5C 446.298,448.624 441.965,445.29 436.5,443.5C 438.828,442.276 441.161,442.276 443.5,443.5C 444.314,441.048 443.814,438.715 442,436.5C 440.54,434.534 438.873,432.868 437,431.5C 432.212,433.208 427.378,434.708 422.5,436C 406.562,438.04 390.562,439.374 374.5,440C 384.131,452.831 385.965,466.664 380,481.5C 377.95,483.888 375.616,485.888 373,487.5C 370.213,483.948 367.879,479.948 366,475.5C 359.741,468.39 352.907,467.723 345.5,473.5C 339.458,466.088 334.958,457.754 332,448.5C 329.683,440.424 330.85,432.924 335.5,426C 331.016,424.084 329.016,420.918 329.5,416.5C 331.888,418.361 334.554,419.694 337.5,420.5C 337.526,417.545 338.359,414.545 340,411.5C 340.903,410.299 342.069,409.465 343.5,409C 353.001,406.249 362.668,404.249 372.5,403C 377.178,401.48 381.512,399.313 385.5,396.5C 395.454,391.012 406.121,388.679 417.5,389.5 Z"/></g>
<g><path style="opacity:1" fill="#f9f9f9" d="M 1698.5,579.5 C 1615.83,579.5 1533.17,579.5 1450.5,579.5C 1450.5,529.167 1450.5,478.833 1450.5,428.5C 1533.17,428.5 1615.83,428.5 1698.5,428.5C 1698.5,478.833 1698.5,529.167 1698.5,579.5 Z"/></g>
<g><path style="opacity:0.997" fill="#b45b52" d="M 449.5,453.5 C 451.955,464.352 453.288,475.352 453.5,486.5C 454.472,514.93 441.472,533.263 414.5,541.5C 407.093,540.945 399.76,539.778 392.5,538C 398.174,544.17 405.174,547.67 413.5,548.5C 413.263,547.209 413.596,546.209 414.5,545.5C 412.517,562.983 419.851,574.149 436.5,579C 443.484,587.918 443.151,596.418 435.5,604.5C 434.069,605.903 432.902,607.569 432,609.5C 430.729,608.117 429.229,607.117 427.5,606.5C 405.967,601.648 386.301,592.648 368.5,579.5C 372.262,570.768 373.928,561.601 373.5,552C 373.75,536.566 371.084,521.733 365.5,507.5C 351.84,505.173 343.84,497.173 341.5,483.5C 341.211,479.426 342.544,476.092 345.5,473.5C 352.907,467.723 359.741,468.39 366,475.5C 367.879,479.948 370.213,483.948 373,487.5C 375.616,485.888 377.95,483.888 380,481.5C 385.965,466.664 384.131,452.831 374.5,440C 390.562,439.374 406.562,438.04 422.5,436C 427.378,434.708 432.212,433.208 437,431.5C 438.873,432.868 440.54,434.534 442,436.5C 443.814,438.715 444.314,441.048 443.5,443.5C 441.161,442.276 438.828,442.276 436.5,443.5C 441.965,445.29 446.298,448.624 449.5,453.5 Z"/></g>
<g><path style="opacity:1" fill="#35363a" d="M 403.5,448.5 C 405.167,448.5 406.833,448.5 408.5,448.5C 408.719,449.675 408.386,450.675 407.5,451.5C 403.051,452.618 399.384,454.951 396.5,458.5C 395.432,456.813 395.599,455.146 397,453.5C 399.326,451.934 401.492,450.268 403.5,448.5 Z"/></g>
<g><path style="opacity:1" fill="#2e3439" d="M 438.5,458.5 C 442.784,459.385 444.284,462.051 443,466.5C 441.333,469.167 439.667,469.167 438,466.5C 437.278,463.739 437.445,461.073 438.5,458.5 Z"/></g>
<g><path style="opacity:1" fill="#2f3439" d="M 408.5,462.5 C 413.383,463.466 414.717,466.299 412.5,471C 410.888,471.72 409.388,471.554 408,470.5C 407.278,467.739 407.445,465.073 408.5,462.5 Z"/></g>
<g><path style="opacity:1" fill="#a12926" d="M 428.5,468.5 C 433.11,474.791 437.777,481.125 442.5,487.5C 442.023,488.478 441.357,489.311 440.5,490C 437.243,491.043 433.91,491.543 430.5,491.5C 429.572,483.86 428.906,476.193 428.5,468.5 Z"/></g>
<g><path style="opacity:1" fill="#3e383c" d="M 404.5,492.5 C 410.467,496.544 417.134,498.711 424.5,499C 416.322,501.456 409.655,499.289 404.5,492.5 Z"/></g>
<g><path style="opacity:1" fill="#924942" d="M 414.5,541.5 C 414.5,542.833 414.5,544.167 414.5,545.5C 413.596,546.209 413.263,547.209 413.5,548.5C 405.174,547.67 398.174,544.17 392.5,538C 399.76,539.778 407.093,540.945 414.5,541.5 Z"/></g>
<g><path style="opacity:0.996" fill="#fcfcfd" d="M 368.5,579.5 C 386.301,592.648 405.967,601.648 427.5,606.5C 417.606,612.296 413.606,620.963 415.5,632.5C 393.343,625.516 374.177,613.849 358,597.5C 355.607,593.946 353.44,590.28 351.5,586.5C 351.511,584.983 352.177,583.816 353.5,583C 358.04,579.371 363.04,578.204 368.5,579.5 Z"/></g>
<g><path style="opacity:1" fill="#fbfbfb" d="M 795.5,579.5 C 780.163,579.333 764.83,579.5 749.5,580C 723.203,585.631 706.703,601.464 700,627.5C 698.876,638.482 698.043,649.482 697.5,660.5C 688.354,666.578 679.354,672.911 670.5,679.5C 667.559,687.874 664.226,696.04 660.5,704C 643.914,717.568 625.58,728.235 605.5,736C 600.771,736.996 596.271,736.496 592,734.5C 581.486,720.796 571.986,706.463 563.5,691.5C 566.586,688.777 569.92,686.277 573.5,684C 560.477,656.099 544.81,629.932 526.5,605.5C 526.5,596.5 526.5,587.5 526.5,578.5C 616.335,578.167 706.002,578.501 795.5,579.5 Z"/></g>
<g><path style="opacity:1" fill="#27333a" d="M 795.5,579.5 C 929.167,579.5 1062.83,579.5 1196.5,579.5C 1206.83,579.5 1217.17,579.5 1227.5,579.5C 1277.83,579.5 1328.17,579.5 1378.5,579.5C 1382.83,579.5 1387.17,579.5 1391.5,579.5C 1411.17,579.5 1430.83,579.5 1450.5,579.5C 1533.17,579.5 1615.83,579.5 1698.5,579.5C 1713.5,579.5 1728.5,579.5 1743.5,579.5C 1775.79,586.83 1790.46,607.163 1787.5,640.5C 1786.5,640.5 1785.5,640.5 1784.5,640.5C 1775.5,777.208 1765.83,913.875 1755.5,1050.5C 1755.56,1052.64 1756.22,1054.31 1757.5,1055.5C 1756.36,1067.47 1755.69,1079.47 1755.5,1091.5C 1754.5,1091.5 1753.5,1091.5 1752.5,1091.5C 1749.73,1138.88 1746.4,1186.21 1742.5,1233.5C 1742.75,1234.71 1743.41,1235.38 1744.5,1235.5C 1741.34,1274.8 1738.5,1314.14 1736,1353.5C 1732.6,1385.73 1715.1,1405.06 1683.5,1411.5C 1605.83,1411.5 1528.17,1411.5 1450.5,1411.5C 1441.83,1411.5 1433.17,1411.5 1424.5,1411.5C 1421.17,1411.5 1417.83,1411.5 1414.5,1411.5C 1416.35,1427.85 1418.35,1444.18 1420.5,1460.5C 1317.17,1455.02 1213.84,1449.69 1110.5,1444.5C 1109.15,1433.58 1107.49,1422.75 1105.5,1412C 1059.17,1411.5 1012.83,1411.33 966.5,1411.5C 958.5,1411.5 950.5,1411.5 942.5,1411.5C 941.167,1411.5 939.833,1411.5 938.5,1411.5C 853.789,1411.99 769.122,1411.49 684.5,1410C 660.285,1401.41 647.952,1384.25 647.5,1358.5C 648.025,1348.15 648.692,1337.82 649.5,1327.5C 649.98,1322.18 650.313,1316.84 650.5,1311.5C 651.125,1303.16 651.792,1294.83 652.5,1286.5C 652.5,1285.17 652.5,1283.83 652.5,1282.5C 658.309,1204.84 663.975,1127.18 669.5,1049.5C 669.98,1044.18 670.313,1038.84 670.5,1033.5C 671.498,1023.19 672.165,1012.86 672.5,1002.5C 677.044,1005.46 682.044,1006.79 687.5,1006.5C 678.836,1122.8 670.503,1239.13 662.5,1355.5C 662.596,1376.53 672.596,1390.37 692.5,1397C 1021.83,1397.67 1351.17,1397.67 1680.5,1397C 1697.34,1394.66 1709.51,1385.82 1717,1370.5C 1719.11,1365.72 1720.45,1360.72 1721,1355.5C 1738.78,1114.88 1755.95,874.218 1772.5,633.5C 1771.93,609.883 1759.93,596.383 1736.5,593C 1409.17,592.333 1081.83,592.333 754.5,593C 726.105,599.915 712.272,618.081 713,647.5C 710.026,685.808 707.526,724.141 705.5,762.5C 700.282,763.076 695.282,764.409 690.5,766.5C 691.073,749.473 692.073,732.473 693.5,715.5C 694.593,697.143 695.926,678.81 697.5,660.5C 698.043,649.482 698.876,638.482 700,627.5C 706.703,601.464 723.203,585.631 749.5,580C 764.83,579.5 780.163,579.333 795.5,579.5 Z"/></g>
<g><path style="opacity:1" fill="#3362cc" d="M 526.5,605.5 C 544.81,629.932 560.477,656.099 573.5,684C 569.92,686.277 566.586,688.777 563.5,691.5C 554.5,696.833 545.5,702.167 536.5,707.5C 531.522,696.876 526.022,686.543 520,676.5C 521.562,691.603 523.062,706.603 524.5,721.5C 524.5,721.833 524.5,722.167 524.5,722.5C 526.149,742.793 526.816,763.126 526.5,783.5C 524.947,815.827 521.947,848.16 517.5,880.5C 465.831,882.093 414.164,883.759 362.5,885.5C 360.967,883.645 359.3,881.812 357.5,880C 350.095,875.974 343.095,871.474 336.5,866.5C 336.425,822.408 334.425,778.408 330.5,734.5C 334.846,727.321 338.013,719.654 340,711.5C 342.325,698.902 343.659,686.236 344,673.5C 338.48,687.865 332.98,702.198 327.5,716.5C 323.469,724.229 319.802,732.229 316.5,740.5C 316,740.833 315.5,741.167 315,741.5C 309.868,739.348 304.701,737.348 299.5,735.5C 284.922,728.048 269.922,721.381 254.5,715.5C 251.386,713.609 248.052,712.276 244.5,711.5C 247.691,700.426 251.191,689.426 255,678.5C 263.585,652.995 275.585,629.328 291,607.5C 295.037,602.898 299.871,599.398 305.5,597C 320.727,592.859 336.06,589.359 351.5,586.5C 353.44,590.28 355.607,593.946 358,597.5C 374.177,613.849 393.343,625.516 415.5,632.5C 413.606,620.963 417.606,612.296 427.5,606.5C 429.229,607.117 430.729,608.117 432,609.5C 432.902,607.569 434.069,605.903 435.5,604.5C 445.094,610.279 451.594,618.612 455,629.5C 465.557,612.84 464.724,596.674 452.5,581C 459.192,580.547 465.859,580.881 472.5,582C 494.084,582.014 512.084,589.847 526.5,605.5 Z"/></g>
<g><path style="opacity:0.97" fill="#437bfd" d="M 1743.5,579.5 C 1748.54,579.413 1753.54,579.746 1758.5,580.5C 1763.85,580.92 1768.85,582.42 1773.5,585C 1790.7,595.382 1799.36,610.715 1799.5,631C 1785.67,823.827 1772,1016.66 1758.5,1209.5C 1756.76,1214.22 1756.1,1219.22 1756.5,1224.5C 1753.14,1268.81 1749.98,1313.14 1747,1357.5C 1741.9,1387.1 1724.73,1405.1 1695.5,1411.5C 1691.5,1411.5 1687.5,1411.5 1683.5,1411.5C 1715.1,1405.06 1732.6,1385.73 1736,1353.5C 1738.5,1314.14 1741.34,1274.8 1744.5,1235.5C 1746.16,1234.05 1747,1232.05 1747,1229.5C 1750.14,1185.33 1753.31,1141.16 1756.5,1097C 1756.42,1095.08 1756.09,1093.24 1755.5,1091.5C 1755.69,1079.47 1756.36,1067.47 1757.5,1055.5C 1759.05,1054.77 1759.88,1053.44 1760,1051.5C 1769.26,916.799 1778.76,782.132 1788.5,647.5C 1789.15,646.551 1789.49,645.385 1789.5,644C 1789.39,642.319 1788.73,641.152 1787.5,640.5C 1790.46,607.163 1775.79,586.83 1743.5,579.5 Z"/></g>
<g><path style="opacity:1" fill="#d8e4fe" d="M 687.5,1006.5 C 747.833,1006.5 808.167,1006.5 868.5,1006.5C 822.336,1007.5 776.003,1007.83 729.5,1007.5C 721.762,1115.83 713.929,1224.16 706,1332.5C 705.333,1339.17 705.333,1345.83 706,1352.5C 708.594,1359.43 713.427,1363.93 720.5,1366C 797.833,1366.67 875.167,1366.67 952.5,1366C 964.583,1364.25 971.75,1357.42 974,1345.5C 989.954,1114.81 1006.29,884.142 1023,653.5C 1026.79,638.91 1021.63,629.41 1007.5,625C 928.456,624.012 849.456,624.345 770.5,626C 763.242,628.924 758.408,634.091 756,641.5C 752.692,681.806 749.859,722.139 747.5,762.5C 733.5,762.5 719.5,762.5 705.5,762.5C 707.526,724.141 710.026,685.808 713,647.5C 712.272,618.081 726.105,599.915 754.5,593C 1081.83,592.333 1409.17,592.333 1736.5,593C 1759.93,596.383 1771.93,609.883 1772.5,633.5C 1755.95,874.218 1738.78,1114.88 1721,1355.5C 1720.45,1360.72 1719.11,1365.72 1717,1370.5C 1709.51,1385.82 1697.34,1394.66 1680.5,1397C 1351.17,1397.67 1021.83,1397.67 692.5,1397C 672.596,1390.37 662.596,1376.53 662.5,1355.5C 670.503,1239.13 678.836,1122.8 687.5,1006.5 Z"/></g>
<g><path style="opacity:1" fill="#ebf1ff" d="M 868.5,1006.5 C 890.165,1003.67 901.665,991.335 903,969.5C 904.001,951.813 905.168,934.147 906.5,916.5C 907.461,914.735 907.795,912.735 907.5,910.5C 909.017,910.489 910.184,909.823 911,908.5C 912.855,892.537 913.855,876.537 914,860.5C 913.329,859.748 912.496,859.414 911.5,859.5C 913,835.503 914.167,811.503 915,787.5C 912.292,774.458 904.459,766.292 891.5,763C 843.501,762.5 795.501,762.333 747.5,762.5C 749.859,722.139 752.692,681.806 756,641.5C 758.408,634.091 763.242,628.924 770.5,626C 849.456,624.345 928.456,624.012 1007.5,625C 1021.63,629.41 1026.79,638.91 1023,653.5C 1006.29,884.142 989.954,1114.81 974,1345.5C 971.75,1357.42 964.583,1364.25 952.5,1366C 875.167,1366.67 797.833,1366.67 720.5,1366C 713.427,1363.93 708.594,1359.43 706,1352.5C 705.333,1345.83 705.333,1339.17 706,1332.5C 713.929,1224.16 721.762,1115.83 729.5,1007.5C 776.003,1007.83 822.336,1007.5 868.5,1006.5 Z"/></g>
<g><path style="opacity:1" fill="#eceef4" d="M 1787.5,640.5 C 1788.37,642.717 1788.7,645.05 1788.5,647.5C 1778.76,782.132 1769.26,916.799 1760,1051.5C 1759.88,1053.44 1759.05,1054.77 1757.5,1055.5C 1756.22,1054.31 1755.56,1052.64 1755.5,1050.5C 1765.83,913.875 1775.5,777.208 1784.5,640.5C 1785.5,640.5 1786.5,640.5 1787.5,640.5 Z"/></g>
<g><path style="opacity:1" fill="#92b2ff" d="M 1787.5,640.5 C 1788.73,641.152 1789.39,642.319 1789.5,644C 1789.49,645.385 1789.15,646.551 1788.5,647.5C 1788.7,645.05 1788.37,642.717 1787.5,640.5 Z"/></g>
<g><path style="opacity:1" fill="#a8c2ff" d="M 824.5,668.5 C 866.501,668.333 908.501,668.5 950.5,669C 956.501,670.336 960.668,673.836 963,679.5C 963.499,688.854 963.166,698.188 962,707.5C 960.194,715.973 955.027,721.14 946.5,723C 904.5,723.667 862.5,723.667 820.5,723C 816.133,721.234 812.633,718.4 810,714.5C 808.085,703.861 808.085,693.194 810,682.5C 811.667,679.833 813.333,677.167 815,674.5C 818.18,672.338 821.346,670.338 824.5,668.5 Z"/></g>
<g><path style="opacity:1" fill="#284da2" d="M 330.5,734.5 C 329.5,728.5 328.5,722.5 327.5,716.5C 332.98,702.198 338.48,687.865 344,673.5C 343.659,686.236 342.325,698.902 340,711.5C 338.013,719.654 334.846,727.321 330.5,734.5 Z"/></g>
<g><path style="opacity:1" fill="#2d4ea3" d="M 536.5,707.5 C 533.078,710.39 529.411,713.057 525.5,715.5C 524.534,717.396 524.201,719.396 524.5,721.5C 523.062,706.603 521.562,691.603 520,676.5C 526.022,686.543 531.522,696.876 536.5,707.5 Z"/></g>
<g><path style="opacity:1" fill="#417bfe" d="M 1511.5,874.5 C 1505.83,868.5 1500.17,862.5 1494.5,856.5C 1519.32,830.917 1528.15,800.583 1521,765.5C 1510.69,735.182 1489.85,717.016 1458.5,711C 1446.09,710.05 1433.75,710.55 1421.5,712.5C 1420.55,704.435 1419.22,696.435 1417.5,688.5C 1417.41,687.504 1417.75,686.671 1418.5,686C 1455.95,677.485 1489.28,685.485 1518.5,710C 1545.57,737.385 1555.73,770.218 1549,808.5C 1544.4,830.702 1534.73,850.368 1520,867.5C 1517.56,870.447 1514.73,872.78 1511.5,874.5 Z"/></g>
<g><path style="opacity:1" fill="#417bfe" d="M 1247.5,716.5 C 1241.13,722.87 1234.47,728.87 1227.5,734.5C 1203.21,711.845 1174.87,705.011 1142.5,714C 1107.23,726.352 1085.73,750.852 1078,787.5C 1077.23,796.691 1077.4,805.858 1078.5,815C 1078.14,816.434 1077.47,817.601 1076.5,818.5C 1068.03,820.034 1059.7,822.034 1051.5,824.5C 1045.15,768.373 1066.15,725.873 1114.5,697C 1146.27,681.264 1178.94,679.264 1212.5,691C 1226.07,697.098 1237.74,705.598 1247.5,716.5 Z"/></g>
<g><path style="opacity:1" fill="#fefefe" d="M 1417.5,688.5 C 1419.22,696.435 1420.55,704.435 1421.5,712.5C 1383.18,725.329 1360.34,751.663 1353,791.5C 1350.7,814.931 1357.04,835.598 1372,853.5C 1372.48,854.448 1372.65,855.448 1372.5,856.5C 1366.19,862.472 1359.86,868.472 1353.5,874.5C 1351.98,874.489 1350.82,873.823 1350,872.5C 1325.26,839.851 1319.26,803.851 1332,764.5C 1347.79,725.537 1375.63,699.537 1415.5,686.5C 1416.18,687.243 1416.85,687.909 1417.5,688.5 Z"/></g>
<g><path style="opacity:1" fill="#aec7ff" d="M 1627.5,689.5 C 1653.5,689.333 1679.5,689.5 1705.5,690C 1711.59,693.174 1713.92,698.174 1712.5,705C 1711.02,726.173 1709.52,747.34 1708,768.5C 1708.08,773.835 1705.92,778.002 1701.5,781C 1674.59,782.649 1647.59,782.982 1620.5,782C 1618.91,780.954 1617.41,779.787 1616,778.5C 1614.93,774.085 1614.43,769.585 1614.5,765C 1615.74,743.482 1617.24,721.982 1619,700.5C 1620.55,695.788 1623.39,692.121 1627.5,689.5 Z"/></g>
<g><path style="opacity:1" fill="#b65b52" d="M 697.5,660.5 C 695.926,678.81 694.593,697.143 693.5,715.5C 688.756,720.208 683.089,723.375 676.5,725C 664.083,742.085 649.083,756.418 631.5,768C 619.738,774.978 607.071,778.811 593.5,779.5C 583.294,779.598 573.961,776.765 565.5,771C 559.613,765.113 553.779,759.279 548,753.5C 540.303,742.982 532.47,732.649 524.5,722.5C 524.5,722.167 524.5,721.833 524.5,721.5C 524.201,719.396 524.534,717.396 525.5,715.5C 529.411,713.057 533.078,710.39 536.5,707.5C 545.5,702.167 554.5,696.833 563.5,691.5C 571.986,706.463 581.486,720.796 592,734.5C 596.271,736.496 600.771,736.996 605.5,736C 625.58,728.235 643.914,717.568 660.5,704C 664.226,696.04 667.559,687.874 670.5,679.5C 679.354,672.911 688.354,666.578 697.5,660.5 Z"/></g>
<g><path style="opacity:1" fill="#d8e4ff" d="M 1629.5,692.5 C 1653.84,692.333 1678.17,692.5 1702.5,693C 1704.85,693.346 1706.68,694.513 1708,696.5C 1707.59,721.2 1706.25,745.866 1704,770.5C 1703.39,773.548 1701.89,776.048 1699.5,778C 1686.23,779.14 1672.9,779.64 1659.5,779.5C 1647.17,779.333 1634.83,779.167 1622.5,779C 1619.15,776.798 1617.48,773.632 1617.5,769.5C 1619.33,745.835 1621.17,722.168 1623,698.5C 1625.06,696.266 1627.23,694.266 1629.5,692.5 Z"/></g>
<g><path style="opacity:1" fill="#d8e4fe" d="M 1227.5,734.5 C 1249.45,762.477 1253.62,793.144 1240,826.5C 1234.55,837.729 1227.39,847.729 1218.5,856.5C 1192.47,878.667 1162.81,885.5 1129.5,877C 1103.36,866.197 1086.36,847.197 1078.5,820C 1078.16,818.97 1077.5,818.47 1076.5,818.5C 1077.47,817.601 1078.14,816.434 1078.5,815C 1077.4,805.858 1077.23,796.691 1078,787.5C 1085.73,750.852 1107.23,726.352 1142.5,714C 1174.87,705.011 1203.21,711.845 1227.5,734.5 Z"/></g>
<g><path style="opacity:1" fill="#d8e4fe" d="M 1494.5,856.5 C 1471.07,876.248 1444.07,883.748 1413.5,879C 1398.35,875.749 1385.69,868.416 1375.5,857C 1374.55,856.517 1373.55,856.351 1372.5,856.5C 1372.65,855.448 1372.48,854.448 1372,853.5C 1357.04,835.598 1350.7,814.931 1353,791.5C 1360.34,751.663 1383.18,725.329 1421.5,712.5C 1433.75,710.55 1446.09,710.05 1458.5,711C 1489.85,717.016 1510.69,735.182 1521,765.5C 1528.15,800.583 1519.32,830.917 1494.5,856.5 Z"/></g>
<g><path style="opacity:0.99" fill="#b55a52" d="M 254.5,715.5 C 269.922,721.381 284.922,728.048 299.5,735.5C 293.508,748.489 288.342,761.822 284,775.5C 282.594,791.213 285.928,805.88 294,819.5C 304.948,838.05 319.114,853.716 336.5,866.5C 343.095,871.474 350.095,875.974 357.5,880C 359.3,881.812 360.967,883.645 362.5,885.5C 367.113,892.62 371.946,899.62 377,906.5C 377.749,907.635 377.583,908.635 376.5,909.5C 367.246,915.71 358.08,922.043 349,928.5C 345.298,924.63 341.464,920.963 337.5,917.5C 332.837,912.004 327.67,907.004 322,902.5C 317.277,896.888 313.444,890.721 310.5,884C 293.641,873.975 278.807,861.475 266,846.5C 246.458,824.208 237.458,798.208 239,768.5C 242.649,750.387 247.816,732.72 254.5,715.5 Z"/></g>
<g><path style="opacity:1" fill="#273339" d="M 1247.5,716.5 C 1268.77,739.16 1277.93,766.16 1275,797.5C 1271.65,827.594 1259.15,853.094 1237.5,874C 1236.91,874.464 1236.24,874.631 1235.5,874.5C 1229.81,868.474 1224.14,862.474 1218.5,856.5C 1227.39,847.729 1234.55,837.729 1240,826.5C 1253.62,793.144 1249.45,762.477 1227.5,734.5C 1234.47,728.87 1241.13,722.87 1247.5,716.5 Z"/></g>
<g><path style="opacity:1" fill="#f9f9f9" d="M 693.5,715.5 C 692.073,732.473 691.073,749.473 690.5,766.5C 682.759,771.413 676.926,778.08 673,786.5C 670.794,806.805 668.96,827.138 667.5,847.5C 620.5,847.5 573.5,847.5 526.5,847.5C 526.5,826.167 526.5,804.833 526.5,783.5C 526.816,763.126 526.149,742.793 524.5,722.5C 532.47,732.649 540.303,742.982 548,753.5C 553.779,759.279 559.613,765.113 565.5,771C 573.961,776.765 583.294,779.598 593.5,779.5C 607.071,778.811 619.738,774.978 631.5,768C 649.083,756.418 664.083,742.085 676.5,725C 683.089,723.375 688.756,720.208 693.5,715.5 Z"/></g>
<g><path style="opacity:0.999" fill="#407bfe" d="M 705.5,762.5 C 719.5,762.5 733.5,762.5 747.5,762.5C 795.501,762.333 843.501,762.5 891.5,763C 904.459,766.292 912.292,774.458 915,787.5C 914.167,811.503 913,835.503 911.5,859.5C 903.429,859.137 895.429,859.637 887.5,861C 885.291,862.873 883.458,865.04 882,867.5C 879.9,878.737 878.9,890.07 879,901.5C 880.447,905.785 883.281,908.452 887.5,909.5C 893.645,910.49 899.978,910.823 906.5,910.5C 906.5,912.5 906.5,914.5 906.5,916.5C 905.168,934.147 904.001,951.813 903,969.5C 901.665,991.335 890.165,1003.67 868.5,1006.5C 808.167,1006.5 747.833,1006.5 687.5,1006.5C 682.044,1006.79 677.044,1005.46 672.5,1002.5C 665.097,997.371 660.431,990.371 658.5,981.5C 660.693,940.137 663.359,898.804 666.5,857.5C 667.414,854.272 667.747,850.939 667.5,847.5C 668.96,827.138 670.794,806.805 673,786.5C 676.926,778.08 682.759,771.413 690.5,766.5C 695.282,764.409 700.282,763.076 705.5,762.5 Z"/></g>
<g><path style="opacity:0.825" fill="#3f7aff" d="M 1797.5,782.5 C 1799.17,782.5 1800.83,782.5 1802.5,782.5C 1801.5,801.527 1800.16,820.527 1798.5,839.5C 1796.83,839.5 1795.17,839.5 1793.5,839.5C 1795.04,820.517 1796.37,801.517 1797.5,782.5 Z"/></g>
<g><path style="opacity:1" fill="#ededee" d="M 526.5,783.5 C 526.5,804.833 526.5,826.167 526.5,847.5C 573.5,847.5 620.5,847.5 667.5,847.5C 667.747,850.939 667.414,854.272 666.5,857.5C 620.167,857.5 573.833,857.5 527.5,857.5C 527.5,878.833 527.5,900.167 527.5,921.5C 525.5,921.5 523.5,921.5 521.5,921.5C 520.106,907.888 518.772,894.222 517.5,880.5C 521.947,848.16 524.947,815.827 526.5,783.5 Z"/></g>
<g><path style="opacity:1" fill="#fafbff" d="M 710.5,798.5 C 749.501,798.333 788.501,798.5 827.5,799C 830.418,802.472 830.085,805.472 826.5,808C 787.5,808.667 748.5,808.667 709.5,808C 706.636,804.376 706.969,801.209 710.5,798.5 Z"/></g>
<g><path style="opacity:1" fill="#aec8ff" d="M 1620.5,807.5 C 1645.17,807.333 1669.84,807.5 1694.5,808C 1701,809.664 1704.33,813.831 1704.5,820.5C 1702.28,845.191 1700.12,869.857 1698,894.5C 1696.17,896.333 1694.33,898.167 1692.5,900C 1665.88,901.631 1639.22,901.964 1612.5,901C 1607.23,898.332 1604.9,893.999 1605.5,888C 1606.88,864.462 1608.72,840.962 1611,817.5C 1613,813.005 1616.16,809.672 1620.5,807.5 Z"/></g>
<g><path style="opacity:1" fill="#d8e4ff" d="M 1620.5,811.5 C 1645.17,811.333 1669.84,811.5 1694.5,812C 1699.13,813.402 1701.13,816.569 1700.5,821.5C 1698.76,845.183 1696.93,868.849 1695,892.5C 1693.5,894 1692,895.5 1690.5,897C 1665.56,898.638 1640.56,898.971 1615.5,898C 1613.67,897.727 1612.17,896.893 1611,895.5C 1609.9,891.28 1609.4,886.947 1609.5,882.5C 1611.23,861.522 1612.73,840.522 1614,819.5C 1615.3,816.039 1617.47,813.372 1620.5,811.5 Z"/></g>
<g><path style="opacity:1" fill="#fefefe" d="M 1076.5,818.5 C 1077.5,818.47 1078.16,818.97 1078.5,820C 1086.36,847.197 1103.36,866.197 1129.5,877C 1162.81,885.5 1192.47,878.667 1218.5,856.5C 1224.14,862.474 1229.81,868.474 1235.5,874.5C 1235.49,876.017 1234.82,877.184 1233.5,878C 1201.64,904.714 1165.31,913.38 1124.5,904C 1085.15,891.318 1060.82,864.818 1051.5,824.5C 1059.7,822.034 1068.03,820.034 1076.5,818.5 Z"/></g>
<g><path style="opacity:1" fill="#fafbff" d="M 708.5,823.5 C 747.501,823.333 786.501,823.5 825.5,824C 828.418,827.472 828.085,830.472 824.5,833C 785.5,833.667 746.5,833.667 707.5,833C 704.636,829.376 704.969,826.209 708.5,823.5 Z"/></g>
<g><path style="opacity:1" fill="#fcfcff" d="M 706.5,848.5 C 732.502,848.333 758.502,848.5 784.5,849C 787.167,852 787.167,855 784.5,858C 758.167,858.667 731.833,858.667 705.5,858C 702.765,854.508 703.098,851.342 706.5,848.5 Z"/></g>
<g><path style="opacity:0.818" fill="#3f7bff" d="M 1792.5,855.5 C 1794.17,855.5 1795.83,855.5 1797.5,855.5C 1796.86,862.148 1796.53,868.814 1796.5,875.5C 1794.83,875.5 1793.17,875.5 1791.5,875.5C 1791.45,868.809 1791.79,862.143 1792.5,855.5 Z"/></g>
<g><path style="opacity:1" fill="#273339" d="M 1372.5,856.5 C 1373.55,856.351 1374.55,856.517 1375.5,857C 1385.69,868.416 1398.35,875.749 1413.5,879C 1444.07,883.748 1471.07,876.248 1494.5,856.5C 1500.17,862.5 1505.83,868.5 1511.5,874.5C 1494.7,891.236 1474.37,901.736 1450.5,906C 1412.13,912.931 1379.8,902.431 1353.5,874.5C 1359.86,868.472 1366.19,862.472 1372.5,856.5 Z"/></g>
<g><path style="opacity:1" fill="#fdfeff" d="M 911.5,859.5 C 912.496,859.414 913.329,859.748 914,860.5C 913.855,876.537 912.855,892.537 911,908.5C 910.184,909.823 909.017,910.489 907.5,910.5C 901.021,909.509 894.354,909.176 887.5,909.5C 883.281,908.452 880.447,905.785 879,901.5C 878.9,890.07 879.9,878.737 882,867.5C 883.458,865.04 885.291,862.873 887.5,861C 895.429,859.637 903.429,859.137 911.5,859.5 Z"/></g>
<g><path style="opacity:1" fill="#9ebcff" d="M 720.5,877.5 C 758.835,877.333 797.168,877.5 835.5,878C 845.347,880.342 850.68,886.509 851.5,896.5C 850.001,917.829 848.501,939.162 847,960.5C 844.167,968.667 838.667,974.167 830.5,977C 790.167,977.667 749.833,977.667 709.5,977C 703.333,974.833 699.167,970.667 697,964.5C 696.581,942.113 697.581,919.779 700,897.5C 702.783,886.549 709.616,879.882 720.5,877.5 Z"/></g>
<g><path style="opacity:1" fill="#263238" d="M 517.5,880.5 C 518.772,894.222 520.106,907.888 521.5,921.5C 523.632,941.485 525.632,961.485 527.5,981.5C 528.836,998.871 530.503,1016.2 532.5,1033.5C 533.167,1038.83 533.833,1044.17 534.5,1049.5C 542.228,1127.39 551.562,1205.06 562.5,1282.5C 563.234,1283.71 563.567,1285.04 563.5,1286.5C 564.032,1294.89 565.032,1303.23 566.5,1311.5C 567.42,1317.3 568.42,1322.97 569.5,1328.5C 575.868,1375.9 582.535,1423.23 589.5,1470.5C 589.205,1472.74 589.539,1474.74 590.5,1476.5C 591.797,1487.91 593.463,1499.24 595.5,1510.5C 596.331,1517.33 597.331,1523.99 598.5,1530.5C 599.493,1536.13 600.16,1541.79 600.5,1547.5C 582.394,1555.09 564.061,1562.09 545.5,1568.5C 542.45,1555.92 539.783,1543.25 537.5,1530.5C 533.631,1511.82 529.631,1493.16 525.5,1474.5C 525.073,1471.99 524.407,1469.66 523.5,1467.5C 513.813,1421.42 503.813,1375.42 493.5,1329.5C 492.8,1323.33 491.466,1317.33 489.5,1311.5C 488.032,1303.1 486.365,1294.77 484.5,1286.5C 484.768,1284.9 484.434,1283.57 483.5,1282.5C 474.091,1235.12 464.424,1187.79 454.5,1140.5C 455.117,1140.39 455.617,1140.06 456,1139.5C 462.812,1087 461.812,1034.66 453,982.5C 451.155,975.455 449.155,968.455 447,961.5C 442.847,994.032 439.68,1026.7 437.5,1059.5C 436.356,1063.97 435.523,1068.64 435,1073.5C 428.38,1143.21 421.546,1212.88 414.5,1282.5C 413.766,1283.71 413.433,1285.04 413.5,1286.5C 412.558,1294.13 411.892,1301.8 411.5,1309.5C 410.532,1311.61 410.198,1313.94 410.5,1316.5C 405.343,1367.76 401.009,1419.09 397.5,1470.5C 396.586,1473.73 396.253,1477.06 396.5,1480.5C 394.777,1497.12 393.777,1513.79 393.5,1530.5C 392.601,1541.19 391.601,1551.86 390.5,1562.5C 369.35,1563.94 348.016,1564.61 326.5,1564.5C 326.5,1553.17 326.5,1541.83 326.5,1530.5C 327.498,1500.67 327.831,1470.67 327.5,1440.5C 327.673,1384.45 329.34,1328.45 332.5,1272.5C 335.065,1239.04 336.565,1205.37 337,1171.5C 337.987,1125.5 338.487,1079.5 338.5,1033.5C 338.5,1016.17 338.5,998.833 338.5,981.5C 337.691,960.353 337.358,939.019 337.5,917.5C 341.464,920.963 345.298,924.63 349,928.5C 358.08,922.043 367.246,915.71 376.5,909.5C 377.583,908.635 377.749,907.635 377,906.5C 371.946,899.62 367.113,892.62 362.5,885.5C 414.164,883.759 465.831,882.093 517.5,880.5 Z"/></g>
<g><path style="opacity:1" fill="#afc7ff" d="M 887.5,909.5 C 894.354,909.176 901.021,909.509 907.5,910.5C 907.795,912.735 907.461,914.735 906.5,916.5C 906.5,914.5 906.5,912.5 906.5,910.5C 899.978,910.823 893.645,910.49 887.5,909.5 Z"/></g>
<g><path style="opacity:1" fill="#467eff" d="M 1044.5,948.5 C 1259.17,948.333 1473.83,948.5 1688.5,949C 1694.89,952.647 1697.22,958.147 1695.5,965.5C 1694.9,979.889 1693.73,994.223 1692,1008.5C 1690.1,1013.4 1686.6,1016.57 1681.5,1018C 1655.59,1018.17 1629.76,1018.67 1604,1019.5C 1416.9,1018.67 1229.74,1018.17 1042.5,1018C 1036.3,1015.94 1032.96,1011.61 1032.5,1005C 1033.88,989.519 1035.05,974.019 1036,958.5C 1037.98,954.362 1040.81,951.029 1044.5,948.5 Z"/></g>
<g><path style="opacity:1" fill="#d7e4ff" d="M 1047.5,951.5 C 1259.83,951.333 1472.17,951.5 1684.5,952C 1689.79,953.237 1692.45,956.57 1692.5,962C 1691.03,976.808 1689.86,991.642 1689,1006.5C 1687.9,1009.94 1685.73,1012.44 1682.5,1014C 1468.83,1014.67 1255.17,1014.67 1041.5,1014C 1037.62,1011.78 1035.95,1008.45 1036.5,1004C 1037.64,988.832 1038.81,973.665 1040,958.5C 1041.74,955.254 1044.24,952.921 1047.5,951.5 Z"/></g>
<g><path style="opacity:1" fill="#1e282d" d="M 454.5,1140.5 C 448.961,1113.47 443.294,1086.47 437.5,1059.5C 439.68,1026.7 442.847,994.032 447,961.5C 449.155,968.455 451.155,975.455 453,982.5C 461.812,1034.66 462.812,1087 456,1139.5C 455.617,1140.06 455.117,1140.39 454.5,1140.5 Z"/></g>
<g><path style="opacity:1" fill="#f6f9ff" d="M 1063.5,964.5 C 1265.17,964.333 1466.83,964.5 1668.5,965C 1672.16,968.806 1671.82,972.473 1667.5,976C 1465.83,976.667 1264.17,976.667 1062.5,976C 1058.31,971.683 1058.64,967.85 1063.5,964.5 Z"/></g>
<g><path style="opacity:0.984" fill="#efefef" d="M 303.5,981.5 C 303.5,987.167 303.5,992.833 303.5,998.5C 305.833,998.5 308.167,998.5 310.5,998.5C 310.5,1169.17 310.5,1339.83 310.5,1510.5C 315.833,1510.5 321.167,1510.5 326.5,1510.5C 326.169,1486.99 326.502,1463.66 327.5,1440.5C 327.831,1470.67 327.498,1500.67 326.5,1530.5C 217.5,1530.5 108.5,1530.5 -0.5,1530.5C -0.5,1529.83 -0.5,1529.17 -0.5,1528.5C 85.8333,1528.5 172.167,1528.5 258.5,1528.5C 258.5,1522.5 258.5,1516.5 258.5,1510.5C 254.5,1510.5 250.5,1510.5 246.5,1510.5C 246.5,1457.5 246.5,1404.5 246.5,1351.5C 247.506,1350.6 247.506,1349.94 246.5,1349.5C 246.5,1232.83 246.5,1116.17 246.5,999.5C 243.833,999.5 241.167,999.5 238.5,999.5C 238.5,993.5 238.5,987.5 238.5,981.5C 260.167,981.5 281.833,981.5 303.5,981.5 Z"/></g>
<g><path style="opacity:1" fill="#f6f9ff" d="M 1060.5,989.5 C 1229.83,989.333 1399.17,989.5 1568.5,990C 1572.66,993.931 1572.32,997.598 1567.5,1001C 1398.5,1001.67 1229.5,1001.67 1060.5,1001C 1056.55,997.169 1056.55,993.336 1060.5,989.5 Z"/></g>
<g><path style="opacity:0.999" fill="#f5f5f5" d="M 303.5,981.5 C 315.167,981.5 326.833,981.5 338.5,981.5C 338.5,998.833 338.5,1016.17 338.5,1033.5C 336.5,1033.5 334.5,1033.5 332.5,1033.5C 332.5,1113.17 332.5,1192.83 332.5,1272.5C 329.34,1328.45 327.673,1384.45 327.5,1440.5C 326.502,1463.66 326.169,1486.99 326.5,1510.5C 321.167,1510.5 315.833,1510.5 310.5,1510.5C 310.5,1339.83 310.5,1169.17 310.5,998.5C 308.167,998.5 305.833,998.5 303.5,998.5C 303.5,992.833 303.5,987.167 303.5,981.5 Z"/></g>
<g><path style="opacity:0.996" fill="#f5f5f5" d="M 527.5,981.5 C 571.167,981.5 614.833,981.5 658.5,981.5C 660.431,990.371 665.097,997.371 672.5,1002.5C 672.165,1012.86 671.498,1023.19 670.5,1033.5C 624.5,1033.5 578.5,1033.5 532.5,1033.5C 530.503,1016.2 528.836,998.871 527.5,981.5 Z"/></g>
<g><path style="opacity:1" fill="#80a3ff" d="M 1602.5,1027.5 C 1604.34,1029.28 1605.01,1031.61 1604.5,1034.5C 1603.5,1034.5 1602.5,1034.5 1601.5,1034.5C 1601.67,1032.14 1602.01,1029.81 1602.5,1027.5 Z"/></g>
<g><path style="opacity:1" fill="#dfdfdf" d="M 338.5,1033.5 C 338.487,1079.5 337.987,1125.5 337,1171.5C 336.565,1205.37 335.065,1239.04 332.5,1272.5C 332.5,1192.83 332.5,1113.17 332.5,1033.5C 334.5,1033.5 336.5,1033.5 338.5,1033.5 Z"/></g>
<g><path style="opacity:1" fill="#e0e0e0" d="M 532.5,1033.5 C 578.5,1033.5 624.5,1033.5 670.5,1033.5C 670.313,1038.84 669.98,1044.18 669.5,1049.5C 624.5,1049.5 579.5,1049.5 534.5,1049.5C 533.833,1044.17 533.167,1038.83 532.5,1033.5 Z"/></g>
<g><path style="opacity:1" fill="#83a5ff" d="M 1601.5,1041.5 C 1602.73,1042.15 1603.39,1043.32 1603.5,1045C 1603.69,1046.97 1603.02,1048.47 1601.5,1049.5C 1600.55,1046.87 1600.55,1044.21 1601.5,1041.5 Z"/></g>
<g><path style="opacity:1" fill="#f4f4f4" d="M 534.5,1049.5 C 579.5,1049.5 624.5,1049.5 669.5,1049.5C 663.975,1127.18 658.309,1204.84 652.5,1282.5C 622.5,1282.5 592.5,1282.5 562.5,1282.5C 551.562,1205.06 542.228,1127.39 534.5,1049.5 Z"/></g>
<g><path style="opacity:1" fill="#a8c2ff" d="M 789.5,1055.5 C 836.835,1055.33 884.168,1055.5 931.5,1056C 936.155,1058.9 937.655,1063.06 936,1068.5C 934.457,1070.38 932.624,1071.88 930.5,1073C 882.833,1073.67 835.167,1073.67 787.5,1073C 782.465,1069.99 781.298,1065.82 784,1060.5C 785.73,1058.6 787.563,1056.93 789.5,1055.5 Z"/></g>
<g><path style="opacity:1" fill="#8dacff" d="M 1599.5,1055.5 C 1600.5,1055.5 1601.5,1055.5 1602.5,1055.5C 1602.66,1057.86 1602.5,1060.19 1602,1062.5C 1601.59,1062.96 1601.09,1063.29 1600.5,1063.5C 1599.52,1060.91 1599.19,1058.25 1599.5,1055.5 Z"/></g>
<g><path style="opacity:1" fill="#8cb0ff" d="M 1583.5,1192.5 C 1578.89,1197.42 1578.39,1202.75 1582,1208.5C 1587.47,1212.34 1592.97,1212.34 1598.5,1208.5C 1607.15,1217.16 1617.49,1222.66 1629.5,1225C 1651.94,1206.56 1670.78,1185.06 1686,1160.5C 1691.96,1153.93 1697.96,1153.93 1704,1160.5C 1704.29,1170.18 1703.96,1179.84 1703,1189.5C 1702.5,1190 1702,1190.5 1701.5,1191C 1702.14,1193.24 1702.47,1195.58 1702.5,1198C 1701.48,1211.32 1700.48,1224.49 1699.5,1237.5C 1700.55,1226.72 1695.71,1221.05 1685,1220.5C 1676.23,1222.66 1667.4,1224.82 1658.5,1227C 1648.13,1227.54 1637.8,1227.54 1627.5,1227C 1580.73,1261.83 1536.07,1259.5 1493.5,1220C 1472.83,1198.67 1452.17,1177.33 1431.5,1156C 1413.7,1138.56 1393.04,1125.56 1369.5,1117C 1358.74,1113.58 1347.74,1111.42 1336.5,1110.5C 1356.33,1091.54 1379,1076.7 1404.5,1066C 1426.34,1057.13 1448.68,1055.46 1471.5,1061C 1489.1,1067.05 1503.93,1077.22 1516,1091.5C 1534.41,1115.97 1551.08,1141.64 1566,1168.5C 1571.31,1176.96 1577.14,1184.96 1583.5,1192.5 Z"/></g>
<g><path style="opacity:1" fill="#f2f2f2" d="M 437.5,1059.5 C 443.294,1086.47 448.961,1113.47 454.5,1140.5C 464.424,1187.79 474.091,1235.12 483.5,1282.5C 460.5,1282.5 437.5,1282.5 414.5,1282.5C 421.546,1212.88 428.38,1143.21 435,1073.5C 435.523,1068.64 436.356,1063.97 437.5,1059.5 Z"/></g>
<g><path style="opacity:1" fill="#93b1ff" d="M 1598.5,1070.5 C 1599.5,1070.5 1600.5,1070.5 1601.5,1070.5C 1599.91,1081.03 1598.91,1081.03 1598.5,1070.5 Z"/></g>
<g><path style="opacity:1" fill="#6b95ff" d="M 1598.5,1085.5 C 1599.8,1087.69 1599.8,1090.03 1598.5,1092.5C 1597.64,1090.23 1597.64,1087.9 1598.5,1085.5 Z"/></g>
<g><path style="opacity:1" fill="#fafbff" d="M 811.5,1091.5 C 842.168,1091.33 872.835,1091.5 903.5,1092C 909.835,1095.48 911.002,1100.31 907,1106.5C 905.829,1107.89 904.329,1108.73 902.5,1109C 871.5,1109.67 840.5,1109.67 809.5,1109C 804.688,1105.87 803.521,1101.7 806,1096.5C 807.73,1094.6 809.563,1092.93 811.5,1091.5 Z"/></g>
<g><path style="opacity:1" fill="#f0f1f4" d="M 1755.5,1091.5 C 1756.09,1093.24 1756.42,1095.08 1756.5,1097C 1753.31,1141.16 1750.14,1185.33 1747,1229.5C 1747,1232.05 1746.16,1234.05 1744.5,1235.5C 1743.41,1235.38 1742.75,1234.71 1742.5,1233.5C 1746.4,1186.21 1749.73,1138.88 1752.5,1091.5C 1753.5,1091.5 1754.5,1091.5 1755.5,1091.5 Z"/></g>
<g><path style="opacity:1" fill="#789dff" d="M 1596.5,1099.5 C 1597.73,1100.15 1598.39,1101.32 1598.5,1103C 1598.17,1104.17 1597.83,1105.33 1597.5,1106.5C 1596.53,1104.26 1596.19,1101.92 1596.5,1099.5 Z"/></g>
<g><path style="opacity:1" fill="#8cb0ff" d="M 1335.5,1110.5 C 1311.7,1134.13 1287.7,1157.63 1263.5,1181C 1264.73,1182.18 1264.73,1183.35 1263.5,1184.5C 1262.75,1183.62 1262.25,1182.62 1262,1181.5C 1245.2,1198.15 1225.7,1210.65 1203.5,1219C 1195.94,1220.88 1188.28,1221.71 1180.5,1221.5C 1180.72,1222.68 1180.39,1223.68 1179.5,1224.5C 1178.74,1223.37 1178.07,1222.21 1177.5,1221C 1163.84,1220 1151.01,1216.17 1139,1209.5C 1107.42,1225.81 1074.58,1228.98 1040.5,1219C 1025.53,1217.14 1015.87,1223.3 1011.5,1237.5C 1013.75,1199.49 1016.25,1161.49 1019,1123.5C 1023.39,1110.75 1031.89,1106.58 1044.5,1111C 1054,1123.83 1063.5,1136.67 1073,1149.5C 1087.5,1168 1104,1184.5 1122.5,1199C 1127.81,1202.81 1133.47,1205.97 1139.5,1208.5C 1146.95,1204.94 1154.29,1201.11 1161.5,1197C 1186.11,1180.05 1210.44,1162.72 1234.5,1145C 1252.22,1132.97 1271.22,1123.31 1291.5,1116C 1305.82,1111.45 1320.49,1109.61 1335.5,1110.5 Z"/></g>
<g><path style="opacity:1" fill="#6696ff" d="M 1335.5,1110.5 C 1335.83,1110.5 1336.17,1110.5 1336.5,1110.5C 1347.74,1111.42 1358.74,1113.58 1369.5,1117C 1393.04,1125.56 1413.7,1138.56 1431.5,1156C 1452.17,1177.33 1472.83,1198.67 1493.5,1220C 1536.07,1259.5 1580.73,1261.83 1627.5,1227C 1637.8,1227.54 1648.13,1227.54 1658.5,1227C 1667.4,1224.82 1676.23,1222.66 1685,1220.5C 1695.71,1221.05 1700.55,1226.72 1699.5,1237.5C 1696.86,1274.82 1694.36,1312.15 1692,1349.5C 1690.96,1356.75 1687.12,1361.92 1680.5,1365C 1568.88,1366.16 1457.21,1366.66 1345.5,1366.5C 1234.11,1366.66 1122.78,1366.16 1011.5,1365C 1004.24,1359.73 1001.57,1352.56 1003.5,1343.5C 1005.52,1307.84 1008.19,1272.51 1011.5,1237.5C 1015.87,1223.3 1025.53,1217.14 1040.5,1219C 1074.58,1228.98 1107.42,1225.81 1139,1209.5C 1151.01,1216.17 1163.84,1220 1177.5,1221C 1178.07,1222.21 1178.74,1223.37 1179.5,1224.5C 1180.39,1223.68 1180.72,1222.68 1180.5,1221.5C 1188.28,1221.71 1195.94,1220.88 1203.5,1219C 1225.7,1210.65 1245.2,1198.15 1262,1181.5C 1262.25,1182.62 1262.75,1183.62 1263.5,1184.5C 1264.73,1183.35 1264.73,1182.18 1263.5,1181C 1287.7,1157.63 1311.7,1134.13 1335.5,1110.5 Z"/></g>
<g><path style="opacity:1" fill="#6c96ff" d="M 1595.5,1114.5 C 1596.73,1115.15 1597.39,1116.32 1597.5,1118C 1597.17,1119.17 1596.83,1120.33 1596.5,1121.5C 1595.53,1119.26 1595.19,1116.92 1595.5,1114.5 Z"/></g>
<g><path style="opacity:1" fill="#739aff" d="M 1594.5,1128.5 C 1595.73,1129.15 1596.39,1130.32 1596.5,1132C 1596.17,1133.17 1595.83,1134.33 1595.5,1135.5C 1594.53,1133.26 1594.19,1130.92 1594.5,1128.5 Z"/></g>
<g><path style="opacity:1" fill="#6d96ff" d="M 1593.5,1143.5 C 1594.73,1144.15 1595.39,1145.32 1595.5,1147C 1595.17,1148.17 1594.83,1149.33 1594.5,1150.5C 1593.53,1148.26 1593.19,1145.92 1593.5,1143.5 Z"/></g>
<g><path style="opacity:1" fill="#a8c2ff" d="M 781.5,1154.5 C 829.168,1154.33 876.834,1154.5 924.5,1155C 929.648,1158.33 930.814,1162.83 928,1168.5C 926.786,1170.05 925.286,1171.22 923.5,1172C 875.5,1172.67 827.5,1172.67 779.5,1172C 773.755,1165.39 774.421,1159.56 781.5,1154.5 Z"/></g>
<g><path style="opacity:1" fill="#608fff" d="M 1592.5,1157.5 C 1593.73,1158.15 1594.39,1159.32 1594.5,1161C 1594.17,1162.17 1593.83,1163.33 1593.5,1164.5C 1592.53,1162.26 1592.19,1159.92 1592.5,1157.5 Z"/></g>
<g><path style="opacity:1" fill="#6793ff" d="M 1591.5,1171.5 C 1592.75,1172.33 1593.41,1173.67 1593.5,1175.5C 1593.17,1176.83 1592.83,1178.17 1592.5,1179.5C 1591.52,1176.91 1591.19,1174.25 1591.5,1171.5 Z"/></g>
<g><path style="opacity:1" fill="#dee9ff" d="M 1276.5,1181.5 C 1278.34,1181.64 1278.67,1182.31 1277.5,1183.5C 1276.7,1183.04 1276.37,1182.38 1276.5,1181.5 Z"/></g>
<g><path style="opacity:1" fill="#dfe9ff" d="M 1316.5,1185.5 C 1318.34,1185.64 1318.67,1186.31 1317.5,1187.5C 1316.7,1187.04 1316.37,1186.38 1316.5,1185.5 Z"/></g>
<g><path style="opacity:1" fill="#c5d6ff" d="M 1329.5,1188.5 C 1332.96,1188.67 1333.29,1189.67 1330.5,1191.5C 1329.61,1190.68 1329.28,1189.68 1329.5,1188.5 Z"/></g>
<g><path style="opacity:1" fill="#fafbff" d="M 803.5,1190.5 C 834.835,1190.33 866.168,1190.5 897.5,1191C 902.949,1194.92 903.782,1199.75 900,1205.5C 898.745,1206.21 897.579,1207.04 896.5,1208C 865.5,1208.67 834.5,1208.67 803.5,1208C 795.542,1202.22 795.542,1196.39 803.5,1190.5 Z"/></g>
<g><path style="opacity:1" fill="#4980ff" d="M 1598.5,1208.5 C 1592.97,1212.34 1587.47,1212.34 1582,1208.5C 1578.39,1202.75 1578.89,1197.42 1583.5,1192.5C 1586.91,1191.46 1589.58,1189.46 1591.5,1186.5C 1594.69,1189.37 1597.86,1192.37 1601,1195.5C 1602.04,1200.23 1601.2,1204.56 1598.5,1208.5 Z"/></g>
<g><path style="opacity:1" fill="#d1dfff" d="M 1595.5,1205.5 C 1592.17,1202.5 1588.83,1199.5 1585.5,1196.5C 1588.26,1193.48 1591.59,1192.82 1595.5,1194.5C 1599.32,1198.21 1599.32,1201.87 1595.5,1205.5 Z"/></g>
<g><path style="opacity:1" fill="#8aaeff" d="M 1585.5,1196.5 C 1588.83,1199.5 1592.17,1202.5 1595.5,1205.5C 1592.49,1208.83 1589.16,1209.17 1585.5,1206.5C 1582.89,1203.02 1582.89,1199.69 1585.5,1196.5 Z"/></g>
<g><path style="opacity:1" fill="#d3e0ff" d="M 1355.5,1197.5 C 1357.33,1198.14 1357.67,1199.14 1356.5,1200.5C 1355.61,1199.68 1355.28,1198.68 1355.5,1197.5 Z"/></g>
<g><path style="opacity:1" fill="#dee8ff" d="M 1379.5,1210.5 C 1381.34,1210.64 1381.67,1211.31 1380.5,1212.5C 1379.7,1212.04 1379.37,1211.38 1379.5,1210.5 Z"/></g>
<g><path style="opacity:1" fill="#d9e5ff" d="M 1391.5,1217.5 C 1393.34,1217.64 1393.67,1218.31 1392.5,1219.5C 1391.7,1219.04 1391.37,1218.38 1391.5,1217.5 Z"/></g>
<g><path style="opacity:1" fill="#dee8ff" d="M 1402.5,1224.5 C 1404.34,1224.64 1404.67,1225.31 1403.5,1226.5C 1402.7,1226.04 1402.37,1225.38 1402.5,1224.5 Z"/></g>
<g><path style="opacity:1" fill="#efeff0" d="M 1756.5,1224.5 C 1757.5,1317.67 1757.83,1411 1757.5,1504.5C 1651.17,1504.5 1544.83,1504.5 1438.5,1504.5C 1433.48,1473.69 1428.81,1442.69 1424.5,1411.5C 1433.17,1411.5 1441.83,1411.5 1450.5,1411.5C 1450.5,1428.17 1450.5,1444.83 1450.5,1461.5C 1533.17,1461.5 1615.83,1461.5 1698.5,1461.5C 1698.5,1444.83 1698.5,1428.17 1698.5,1411.5C 1697.5,1411.5 1696.5,1411.5 1695.5,1411.5C 1724.73,1405.1 1741.9,1387.1 1747,1357.5C 1749.98,1313.14 1753.14,1268.81 1756.5,1224.5 Z"/></g>
<g><path style="opacity:1" fill="#dfeafe" d="M 1157.5,1239.5 C 1159.34,1239.64 1159.67,1240.31 1158.5,1241.5C 1157.7,1241.04 1157.37,1240.38 1157.5,1239.5 Z"/></g>
<g><path style="opacity:1" fill="#d7e4ff" d="M 1637.5,1239.5 C 1639.23,1239.84 1639.73,1240.84 1639,1242.5C 1637.96,1241.76 1637.46,1240.76 1637.5,1239.5 Z"/></g>
<g><path style="opacity:1" fill="#d9e4ff" d="M 1436.5,1247.5 C 1438.34,1247.64 1438.67,1248.31 1437.5,1249.5C 1436.7,1249.04 1436.37,1248.38 1436.5,1247.5 Z"/></g>
<g><path style="opacity:1" fill="#a8c2ff" d="M 774.5,1253.5 C 822.168,1253.33 869.834,1253.5 917.5,1254C 922.648,1257.33 923.814,1261.83 921,1267.5C 919.59,1268.79 918.09,1269.95 916.5,1271C 868.833,1271.67 821.167,1271.67 773.5,1271C 768.845,1268.1 767.345,1263.94 769,1258.5C 770.73,1256.6 772.563,1254.93 774.5,1253.5 Z"/></g>
<g><path style="opacity:1" fill="#dfeafe" d="M 1459.5,1261.5 C 1461.34,1261.64 1461.67,1262.31 1460.5,1263.5C 1459.7,1263.04 1459.37,1262.38 1459.5,1261.5 Z"/></g>
<g><path style="opacity:1" fill="#d1dfff" d="M 1590.5,1264.5 C 1591.78,1265.39 1591.78,1266.39 1590.5,1267.5C 1589.44,1266.58 1589.44,1265.58 1590.5,1264.5 Z"/></g>
<g><path style="opacity:1" fill="#dce7ff" d="M 1471.5,1267.5 C 1473.34,1267.64 1473.67,1268.31 1472.5,1269.5C 1471.7,1269.04 1471.37,1268.38 1471.5,1267.5 Z"/></g>
<g><path style="opacity:1" fill="#dae5ff" d="M 1484.5,1272.5 C 1486.34,1272.64 1486.67,1273.31 1485.5,1274.5C 1484.7,1274.04 1484.37,1273.38 1484.5,1272.5 Z"/></g>
<g><path style="opacity:1" fill="#d7e3ff" d="M 1100.5,1276.5 C 1102.34,1276.64 1102.67,1277.31 1101.5,1278.5C 1100.7,1278.04 1100.37,1277.38 1100.5,1276.5 Z"/></g>
<g><path style="opacity:1" fill="#dce7ff" d="M 1497.5,1276.5 C 1499.34,1276.64 1499.67,1277.31 1498.5,1278.5C 1497.7,1278.04 1497.37,1277.38 1497.5,1276.5 Z"/></g>
<g><path style="opacity:1" fill="#bdd1ff" d="M 1551.5,1276.5 C 1553.05,1276.82 1553.71,1277.82 1553.5,1279.5C 1550.75,1279.6 1550.09,1278.6 1551.5,1276.5 Z"/></g>
<g><path style="opacity:1" fill="#d0deff" d="M 1510.5,1278.5 C 1512.46,1278.95 1512.8,1279.95 1511.5,1281.5C 1510.61,1280.68 1510.28,1279.68 1510.5,1278.5 Z"/></g>
<g><path style="opacity:1" fill="#d6e3ff" d="M 1538.5,1278.5 C 1539.78,1279.39 1539.78,1280.39 1538.5,1281.5C 1537.44,1280.58 1537.44,1279.58 1538.5,1278.5 Z"/></g>
<g><path style="opacity:1" fill="#dfdfdf" d="M 414.5,1282.5 C 437.5,1282.5 460.5,1282.5 483.5,1282.5C 484.434,1283.57 484.768,1284.9 484.5,1286.5C 460.833,1286.5 437.167,1286.5 413.5,1286.5C 413.433,1285.04 413.766,1283.71 414.5,1282.5 Z"/></g>
<g><path style="opacity:1" fill="#e0e0e0" d="M 562.5,1282.5 C 592.5,1282.5 622.5,1282.5 652.5,1282.5C 652.5,1283.83 652.5,1285.17 652.5,1286.5C 622.833,1286.5 593.167,1286.5 563.5,1286.5C 563.567,1285.04 563.234,1283.71 562.5,1282.5 Z"/></g>
<g><path style="opacity:1" fill="#d1dfff" d="M 1074.5,1282.5 C 1076.46,1282.95 1076.8,1283.95 1075.5,1285.5C 1074.61,1284.68 1074.28,1283.68 1074.5,1282.5 Z"/></g>
<g><path style="opacity:1" fill="#f4f4f4" d="M 413.5,1286.5 C 437.167,1286.5 460.833,1286.5 484.5,1286.5C 486.365,1294.77 488.032,1303.1 489.5,1311.5C 463.145,1312.16 437.145,1311.49 411.5,1309.5C 411.892,1301.8 412.558,1294.13 413.5,1286.5 Z"/></g>
<g><path style="opacity:1" fill="#f4f4f4" d="M 563.5,1286.5 C 593.167,1286.5 622.833,1286.5 652.5,1286.5C 651.792,1294.83 651.125,1303.16 650.5,1311.5C 622.5,1311.5 594.5,1311.5 566.5,1311.5C 565.032,1303.23 564.032,1294.89 563.5,1286.5 Z"/></g>
<g><path style="opacity:1" fill="#fafbff" d="M 798.5,1288.5 C 828.835,1288.33 859.168,1288.5 889.5,1289C 895.372,1292.02 896.872,1296.52 894,1302.5C 892.457,1304.38 890.624,1305.88 888.5,1307C 857.833,1307.67 827.167,1307.67 796.5,1307C 790.632,1303.96 789.132,1299.46 792,1293.5C 793.805,1291.17 795.972,1289.51 798.5,1288.5 Z"/></g>
<g><path style="opacity:1" fill="#dfdfdf" d="M 411.5,1309.5 C 437.145,1311.49 463.145,1312.16 489.5,1311.5C 491.466,1317.33 492.8,1323.33 493.5,1329.5C 468.726,1327.69 443.726,1326.86 418.5,1327C 415.769,1324.1 414.769,1320.6 415.5,1316.5C 413.833,1316.5 412.167,1316.5 410.5,1316.5C 410.198,1313.94 410.532,1311.61 411.5,1309.5 Z"/></g>
<g><path style="opacity:1" fill="#dfe0e0" d="M 566.5,1311.5 C 594.5,1311.5 622.5,1311.5 650.5,1311.5C 650.313,1316.84 649.98,1322.18 649.5,1327.5C 622.661,1327.17 595.995,1327.5 569.5,1328.5C 568.42,1322.97 567.42,1317.3 566.5,1311.5 Z"/></g>
<g><path style="opacity:1" fill="#f4f4f4" d="M 410.5,1316.5 C 412.167,1316.5 413.833,1316.5 415.5,1316.5C 414.769,1320.6 415.769,1324.1 418.5,1327C 443.726,1326.86 468.726,1327.69 493.5,1329.5C 503.813,1375.42 513.813,1421.42 523.5,1467.5C 523.5,1468.5 523.5,1469.5 523.5,1470.5C 481.5,1470.5 439.5,1470.5 397.5,1470.5C 401.009,1419.09 405.343,1367.76 410.5,1316.5 Z"/></g>
<g><path style="opacity:1" fill="#f4f4f4" d="M 649.5,1327.5 C 648.692,1337.82 648.025,1348.15 647.5,1358.5C 647.952,1384.25 660.285,1401.41 684.5,1410C 769.122,1411.49 853.789,1411.99 938.5,1411.5C 938.5,1431.17 938.5,1450.83 938.5,1470.5C 822.167,1470.5 705.833,1470.5 589.5,1470.5C 582.535,1423.23 575.868,1375.9 569.5,1328.5C 595.995,1327.5 622.661,1327.17 649.5,1327.5 Z"/></g>
<g><path style="opacity:1" fill="#e0e0e0" d="M 938.5,1411.5 C 939.833,1411.5 941.167,1411.5 942.5,1411.5C 942.5,1432.5 942.5,1453.5 942.5,1474.5C 824.829,1473.84 707.495,1474.5 590.5,1476.5C 589.539,1474.74 589.205,1472.74 589.5,1470.5C 705.833,1470.5 822.167,1470.5 938.5,1470.5C 938.5,1450.83 938.5,1431.17 938.5,1411.5 Z"/></g>
<g><path style="opacity:0.99" fill="#f4f4f4" d="M 942.5,1411.5 C 950.5,1411.5 958.5,1411.5 966.5,1411.5C 966.5,1444.5 966.5,1477.5 966.5,1510.5C 962.5,1510.5 958.5,1510.5 954.5,1510.5C 834.833,1510.5 715.167,1510.5 595.5,1510.5C 593.463,1499.24 591.797,1487.91 590.5,1476.5C 707.495,1474.5 824.829,1473.84 942.5,1474.5C 942.5,1453.5 942.5,1432.5 942.5,1411.5 Z"/></g>
<g><path style="opacity:0.998" fill="#407bfe" d="M 1424.5,1411.5 C 1428.81,1442.69 1433.48,1473.69 1438.5,1504.5C 1438.5,1504.83 1438.5,1505.17 1438.5,1505.5C 1439.59,1513.15 1440.59,1520.82 1441.5,1528.5C 1441.33,1529.49 1441.66,1530.16 1442.5,1530.5C 1446.93,1562.82 1451.26,1595.16 1455.5,1627.5C 1457.63,1639.76 1459.3,1652.09 1460.5,1664.5C 1326.83,1664.83 1193.17,1664.5 1059.5,1663.5C 1061.82,1656.23 1063.82,1648.9 1065.5,1641.5C 1090.17,1641.5 1114.83,1641.5 1139.5,1641.5C 1138.9,1634.81 1138.07,1628.15 1137,1621.5C 1136.72,1620.58 1136.22,1619.92 1135.5,1619.5C 1134.11,1607.12 1132.45,1594.79 1130.5,1582.5C 1130.5,1581.83 1130.5,1581.17 1130.5,1580.5C 1127.73,1563.91 1125.4,1547.24 1123.5,1530.5C 1123.67,1529.51 1123.34,1528.84 1122.5,1528.5C 1118.78,1500.46 1114.78,1472.46 1110.5,1444.5C 1213.84,1449.69 1317.17,1455.02 1420.5,1460.5C 1418.35,1444.18 1416.35,1427.85 1414.5,1411.5C 1417.83,1411.5 1421.17,1411.5 1424.5,1411.5 Z"/></g>
<g><path style="opacity:1" fill="#f9f9f9" d="M 1450.5,1411.5 C 1528.17,1411.5 1605.83,1411.5 1683.5,1411.5C 1687.5,1411.5 1691.5,1411.5 1695.5,1411.5C 1696.5,1411.5 1697.5,1411.5 1698.5,1411.5C 1698.5,1428.17 1698.5,1444.83 1698.5,1461.5C 1615.83,1461.5 1533.17,1461.5 1450.5,1461.5C 1450.5,1444.83 1450.5,1428.17 1450.5,1411.5 Z"/></g>
<g><path style="opacity:1" fill="#dfdfdf" d="M 523.5,1467.5 C 524.407,1469.66 525.073,1471.99 525.5,1474.5C 482.833,1474.5 440.167,1474.5 397.5,1474.5C 397.795,1476.74 397.461,1478.74 396.5,1480.5C 396.253,1477.06 396.586,1473.73 397.5,1470.5C 439.5,1470.5 481.5,1470.5 523.5,1470.5C 523.5,1469.5 523.5,1468.5 523.5,1467.5 Z"/></g>
<g><path style="opacity:0.993" fill="#f2f2f2" d="M 525.5,1474.5 C 529.631,1493.16 533.631,1511.82 537.5,1530.5C 489.5,1530.5 441.5,1530.5 393.5,1530.5C 393.777,1513.79 394.777,1497.12 396.5,1480.5C 397.461,1478.74 397.795,1476.74 397.5,1474.5C 440.167,1474.5 482.833,1474.5 525.5,1474.5 Z"/></g>
<g><path style="opacity:0.986" fill="#efefef" d="M 595.5,1510.5 C 715.167,1510.5 834.833,1510.5 954.5,1510.5C 954.5,1516.5 954.5,1522.5 954.5,1528.5C 1010.5,1528.5 1066.5,1528.5 1122.5,1528.5C 1123.34,1528.84 1123.67,1529.51 1123.5,1530.5C 948.5,1530.5 773.5,1530.5 598.5,1530.5C 597.331,1523.99 596.331,1517.33 595.5,1510.5 Z"/></g>
<g><path style="opacity:0.5" fill="#eaeaea" d="M 1441.5,1528.5 C 1627.5,1528.5 1813.5,1528.5 1999.5,1528.5C 1999.5,1529.17 1999.5,1529.83 1999.5,1530.5C 1813.83,1530.5 1628.17,1530.5 1442.5,1530.5C 1441.66,1530.16 1441.33,1529.49 1441.5,1528.5 Z"/></g>
<g><path style="opacity:0.98" fill="#407afd" d="M 594.5,1575.5 C 583.032,1578.32 572.032,1582.32 561.5,1587.5C 557.117,1588.96 552.784,1590.63 548.5,1592.5C 547.914,1592.29 547.414,1591.96 547,1591.5C 544.691,1584.9 542.191,1578.4 539.5,1572C 541.432,1570.54 543.432,1569.37 545.5,1568.5C 564.061,1562.09 582.394,1555.09 600.5,1547.5C 603.471,1546.17 606.471,1544.84 609.5,1543.5C 610.298,1545.08 610.798,1546.74 611,1548.5C 611.667,1555.17 611.667,1561.83 611,1568.5C 605.368,1570.74 599.868,1573.07 594.5,1575.5 Z"/></g>
<g><path style="opacity:0.498" fill="#ebebeb" d="M 683.5,1555.5 C 757.836,1555.17 832.17,1555.5 906.5,1556.5C 869.333,1556.83 832.167,1557.17 795,1557.5C 757.494,1557.5 720.327,1556.83 683.5,1555.5 Z"/></g>
<g><path style="opacity:0.981" fill="#407afd" d="M 390.5,1562.5 C 395.214,1562.17 399.88,1562.51 404.5,1563.5C 402.167,1570.83 399.833,1578.17 397.5,1585.5C 389.862,1586.5 382.196,1586.83 374.5,1586.5C 362.833,1586.5 351.167,1586.5 339.5,1586.5C 334.5,1586.5 329.5,1586.5 324.5,1586.5C 323.759,1580.53 323.425,1574.53 323.5,1568.5C 323.672,1567.51 323.338,1566.84 322.5,1566.5C 323.183,1564.82 324.517,1564.16 326.5,1564.5C 348.016,1564.61 369.35,1563.94 390.5,1562.5 Z"/></g>
<g><path style="opacity:0.497" fill="#eaeaea" d="M 322.5,1566.5 C 323.338,1566.84 323.672,1567.51 323.5,1568.5C 285.161,1568.83 246.828,1568.5 208.5,1567.5C 246.494,1566.5 284.494,1566.17 322.5,1566.5 Z"/></g>
<g><path style="opacity:0.497" fill="#ebebeb" d="M 1540.5,1566.5 C 1598.5,1566.17 1656.5,1566.5 1714.5,1567.5C 1685.5,1567.83 1656.5,1568.17 1627.5,1568.5C 1598.16,1568.5 1569.16,1567.83 1540.5,1566.5 Z"/></g>
<g><path style="opacity:0.495" fill="#eaebea" d="M 1749.5,1566.5 C 1758.19,1566.17 1766.86,1566.5 1775.5,1567.5C 1771.17,1567.83 1766.83,1568.17 1762.5,1568.5C 1757.78,1568.49 1753.45,1567.83 1749.5,1566.5 Z"/></g>
<g><path style="opacity:0.992" fill="#904a45" d="M 594.5,1575.5 C 594.517,1577.56 594.85,1579.56 595.5,1581.5C 584.696,1584.77 574.029,1588.43 563.5,1592.5C 562.691,1590.97 562.024,1589.31 561.5,1587.5C 572.032,1582.32 583.032,1578.32 594.5,1575.5 Z"/></g>
<g><path style="opacity:0.485" fill="#eaeaea" d="M 1130.5,1580.5 C 1130.5,1581.17 1130.5,1581.83 1130.5,1582.5C 1099.83,1581.83 1099.83,1581.17 1130.5,1580.5 Z"/></g>
<g><path style="opacity:0.989" fill="#b45a51" d="M 595.5,1581.5 C 598.479,1592.08 601.146,1602.75 603.5,1613.5C 593.174,1618.06 582.507,1622.06 571.5,1625.5C 568.363,1614.62 565.696,1603.62 563.5,1592.5C 574.029,1588.43 584.696,1584.77 595.5,1581.5 Z"/></g>
<g><path style="opacity:0.994" fill="#914942" d="M 339.5,1586.5 C 351.167,1586.5 362.833,1586.5 374.5,1586.5C 374.5,1587.83 374.5,1589.17 374.5,1590.5C 373.662,1590.84 373.328,1591.51 373.5,1592.5C 362.167,1592.5 350.833,1592.5 339.5,1592.5C 339.5,1590.5 339.5,1588.5 339.5,1586.5 Z"/></g>
<g><path style="opacity:0.498" fill="#ebebeb" d="M 374.5,1590.5 C 462.5,1591.17 462.5,1591.83 374.5,1592.5C 374.167,1592.5 373.833,1592.5 373.5,1592.5C 373.328,1591.51 373.662,1590.84 374.5,1590.5 Z"/></g>
<g><path style="opacity:0.989" fill="#b45a51" d="M 339.5,1592.5 C 350.833,1592.5 362.167,1592.5 373.5,1592.5C 373.833,1592.5 374.167,1592.5 374.5,1592.5C 373.459,1603.5 372.459,1614.5 371.5,1625.5C 360.167,1626.83 348.833,1626.83 337.5,1625.5C 338.167,1614.5 338.833,1603.5 339.5,1592.5 Z"/></g>
<g><path style="opacity:0.7" fill="#3f78f8" d="M 620.5,1614.5 C 615.772,1615.25 611.106,1616.25 606.5,1617.5C 606.768,1615.9 606.434,1614.57 605.5,1613.5C 605.335,1610.48 605.502,1607.48 606,1604.5C 607.608,1600.69 610.275,1599.36 614,1600.5C 614.333,1602.83 614.667,1605.17 615,1607.5C 617.096,1605.73 619.429,1604.4 622,1603.5C 625.206,1604.82 626.206,1607.15 625,1610.5C 623.333,1611.73 621.833,1613.07 620.5,1614.5 Z M 610.5,1601.5 C 611.586,1601.62 612.253,1602.29 612.5,1603.5C 611.937,1606.86 610.603,1609.86 608.5,1612.5C 607.119,1608.45 607.786,1604.78 610.5,1601.5 Z M 620.5,1606.5 C 624.172,1607.47 624.172,1608.97 620.5,1611C 618.086,1612.88 615.419,1613.55 612.5,1613C 615.053,1610.57 617.72,1608.41 620.5,1606.5 Z"/></g>
<g><path style="opacity:0.995" fill="#263238" d="M 670.5,1622.5 C 658.934,1629.45 646.934,1635.62 634.5,1641C 614.339,1647.77 594.672,1655.61 575.5,1664.5C 572.936,1664.38 571.436,1663.05 571,1660.5C 569.868,1650.61 568.368,1640.78 566.5,1631C 566.519,1629.17 567.185,1627.67 568.5,1626.5C 569.609,1626.44 570.609,1626.11 571.5,1625.5C 582.507,1622.06 593.174,1618.06 603.5,1613.5C 604.167,1613.5 604.833,1613.5 605.5,1613.5C 606.434,1614.57 606.768,1615.9 606.5,1617.5C 611.106,1616.25 615.772,1615.25 620.5,1614.5C 626.987,1615.65 633.654,1615.82 640.5,1615C 650.277,1612.13 659.944,1608.96 669.5,1605.5C 672.848,1606.5 674.514,1608.83 674.5,1612.5C 674.134,1616.27 672.801,1619.61 670.5,1622.5 Z"/></g>
<g><path style="opacity:0.73" fill="#3f78f8" d="M 387.5,1632.5 C 383.821,1632.28 380.154,1631.94 376.5,1631.5C 376.5,1629.83 376.5,1628.17 376.5,1626.5C 376.202,1621.26 378.369,1617.6 383,1615.5C 387.172,1617.5 387.672,1620.33 384.5,1624C 387.098,1623.58 389.764,1623.58 392.5,1624C 394.754,1628.63 393.088,1631.47 387.5,1632.5 Z M 382.5,1617.5 C 383.478,1617.81 384.145,1618.48 384.5,1619.5C 382.914,1622.34 381.08,1625.01 379,1627.5C 378.865,1623.74 380.032,1620.41 382.5,1617.5 Z M 388.5,1625.5 C 389.5,1625.5 390.5,1625.5 391.5,1625.5C 391.67,1626.82 391.337,1627.99 390.5,1629C 379.922,1630.96 379.255,1629.79 388.5,1625.5 Z"/></g>
<g><path style="opacity:0.988" fill="#f4f4f4" d="M 1135.5,1619.5 C 1136.22,1619.92 1136.72,1620.58 1137,1621.5C 1138.07,1628.15 1138.9,1634.81 1139.5,1641.5C 1114.83,1641.5 1090.17,1641.5 1065.5,1641.5C 1063.82,1648.9 1061.82,1656.23 1059.5,1663.5C 1193.17,1664.5 1326.83,1664.83 1460.5,1664.5C 1459.3,1652.09 1457.63,1639.76 1455.5,1627.5C 1543.78,1630.22 1631.78,1636.72 1719.5,1647C 1737.32,1648.96 1754.66,1652.96 1771.5,1659C 1776.25,1661.97 1776.58,1665.3 1772.5,1669C 1768.73,1671.22 1764.73,1672.89 1760.5,1674C 1736.43,1679.58 1712.1,1683.58 1687.5,1686C 1589.7,1695.25 1491.7,1701.25 1393.5,1704C 1113.14,1713.12 832.809,1712.45 552.5,1702C 472.001,1699.11 391.668,1693.78 311.5,1686C 285.822,1683.61 260.489,1679.28 235.5,1673C 231.131,1671.73 227.297,1669.57 224,1666.5C 223.124,1663.08 224.291,1660.58 227.5,1659C 246.647,1652.42 266.313,1648.09 286.5,1646C 300.464,1644.1 314.464,1642.6 328.5,1641.5C 328.094,1647.1 327.094,1652.6 325.5,1658C 325.703,1660.41 326.703,1662.41 328.5,1664C 361.493,1663.61 394.493,1663.61 427.5,1664C 436.252,1662.48 438.919,1657.81 435.5,1650C 422.943,1647.11 410.61,1643.44 398.5,1639C 396.416,1638.3 394.749,1637.14 393.5,1635.5C 451.779,1631.49 510.113,1628.49 568.5,1626.5C 567.185,1627.67 566.519,1629.17 566.5,1631C 568.368,1640.78 569.868,1650.61 571,1660.5C 571.436,1663.05 572.936,1664.38 575.5,1664.5C 594.672,1655.61 614.339,1647.77 634.5,1641C 646.934,1635.62 658.934,1629.45 670.5,1622.5C 825.484,1618.87 980.484,1617.87 1135.5,1619.5 Z"/></g>
<g><path style="opacity:0.998" fill="#273339" d="M 337.5,1625.5 C 348.833,1626.83 360.167,1626.83 371.5,1625.5C 373.216,1625.63 374.883,1625.96 376.5,1626.5C 376.5,1628.17 376.5,1629.83 376.5,1631.5C 380.154,1631.94 383.821,1632.28 387.5,1632.5C 389.181,1634.01 391.181,1635.01 393.5,1635.5C 394.749,1637.14 396.416,1638.3 398.5,1639C 410.61,1643.44 422.943,1647.11 435.5,1650C 438.919,1657.81 436.252,1662.48 427.5,1664C 394.493,1663.61 361.493,1663.61 328.5,1664C 326.703,1662.41 325.703,1660.41 325.5,1658C 327.094,1652.6 328.094,1647.1 328.5,1641.5C 329.008,1636.78 329.842,1632.12 331,1627.5C 332.897,1625.98 335.064,1625.32 337.5,1625.5 Z"/></g>
</svg>
