<?xml version="1.0" encoding="UTF-8"?>
<!DOCTYPE svg PUBLIC "-//W3C//DTD SVG 1.1//EN" "http://www.w3.org/Graphics/SVG/1.1/DTD/svg11.dtd">
<svg xmlns="http://www.w3.org/2000/svg" version="1.1" width="763px" height="324px" style="shape-rendering:geometricPrecision; text-rendering:geometricPrecision; image-rendering:optimizeQuality; fill-rule:evenodd; clip-rule:evenodd" xmlns:xlink="http://www.w3.org/1999/xlink">
<g><path style="opacity:0.11" fill="#2c2b2a" d="M 762.5,244.5 C 762.5,247.833 762.5,251.167 762.5,254.5C 761.624,254.369 760.957,254.702 760.5,255.5C 755.589,265.657 750.422,275.657 745,285.5C 744.667,292.833 744.333,300.167 744,307.5C 736.667,310.167 729.333,310.167 722,307.5C 721.667,300.833 721.333,294.167 721,287.5C 717.5,280.5 714,273.5 710.5,266.5C 706.555,265.509 702.555,265.176 698.5,265.5C 698.667,278.504 698.5,291.504 698,304.5C 697.535,305.931 696.701,307.097 695.5,308C 688.833,310 682.167,310 675.5,308C 675,307.5 674.5,307 674,306.5C 673.5,292.837 673.333,279.171 673.5,265.5C 670.167,265.5 666.833,265.5 663.5,265.5C 663.5,273.167 663.5,280.833 663.5,288.5C 664.822,288.33 665.989,288.663 667,289.5C 667.667,295.167 667.667,300.833 667,306.5C 666.5,307 666,307.5 665.5,308C 655.5,310 645.5,310 635.5,308C 634.874,307.25 634.374,306.416 634,305.5C 623.265,310.855 612.099,311.855 600.5,308.5C 593.122,309.952 585.788,309.786 578.5,308C 575.627,304.423 573.127,300.589 571,296.5C 570.762,300.222 570.262,303.889 569.5,307.5C 567.922,308.298 566.256,308.798 564.5,309C 552.014,308.454 539.514,308.621 527,309.5C 520.105,309.585 513.271,309.085 506.5,308C 505.677,295.242 505.177,282.409 505,269.5C 500.491,282.361 495.991,295.194 491.5,308C 483.491,309.957 475.491,309.957 467.5,308C 462.808,295.593 458.308,283.093 454,270.5C 453.501,276.491 453.334,282.491 453.5,288.5C 455.144,288.286 456.644,288.62 458,289.5C 458.667,295.167 458.667,300.833 458,306.5C 456.174,308.074 454.007,308.907 451.5,309C 439.974,309.069 428.474,309.235 417,309.5C 413.43,309.456 409.93,308.956 406.5,308C 401.63,301.761 397.13,295.261 393,288.5C 392.813,295.081 392.313,301.581 391.5,308C 384.167,310 376.833,310 369.5,308C 368.693,302.917 368.193,297.75 368,292.5C 363.378,305.082 354.211,311.082 340.5,310.5C 327.885,311.121 319.052,305.788 314,294.5C 312.562,278.557 312.062,262.557 312.5,246.5C 306.883,246.951 301.55,245.951 296.5,243.5C 292.529,244.197 288.529,244.697 284.5,245C 278.133,264.875 264.799,277.541 244.5,283C 245.976,286.132 246.643,289.465 246.5,293C 247.6,301.566 243.933,304.9 235.5,303C 225.235,300.06 215.068,296.894 205,293.5C 204.598,294.872 204.098,296.205 203.5,297.5C 205.107,301.915 204.774,306.082 202.5,310C 188.239,310.698 174.072,309.864 160,307.5C 157.728,309.212 155.561,311.046 153.5,313C 151.527,313.495 149.527,313.662 147.5,313.5C 147.628,315.655 147.128,317.655 146,319.5C 143.689,320.397 141.856,321.73 140.5,323.5C 133.167,323.5 125.833,323.5 118.5,323.5C 117.359,321.912 115.859,320.579 114,319.5C 113.833,318.333 113.667,317.167 113.5,316C 114.887,311.718 116.72,307.551 119,303.5C 125.802,297.699 132.302,291.532 138.5,285C 141.833,284.667 145.167,284.333 148.5,284C 150.887,279.947 154.22,276.947 158.5,275C 146.526,275.132 134.526,274.632 122.5,273.5C 118.989,274.573 115.489,275.573 112,276.5C 103.513,275.452 95.8465,272.452 89,267.5C 88.2496,268.126 87.4162,268.626 86.5,269C 80.1667,269.333 73.8333,269.667 67.5,270C 68.1667,270.667 68.8333,271.333 69.5,272C 84.7175,270.724 93.7175,277.557 96.5,292.5C 96.6738,294.693 96.0071,296.527 94.5,298C 89.3376,299.858 84.0043,301.025 78.5,301.5C 72.5767,299.692 66.5767,298.192 60.5,297C 48.2971,289.733 35.9637,282.733 23.5,276C 21.2911,274.127 19.4578,271.96 18,269.5C 17.6596,264.996 17.4929,260.663 17.5,256.5C 12.9942,258.384 8.3275,258.884 3.5,258C 2.87424,257.25 2.37424,256.416 2,255.5C 0.603185,248.548 0.269851,241.548 1,234.5C 3.38951,229.997 5.38951,225.331 7,220.5C 16.0467,209.119 23.8801,196.952 30.5,184C 36.6893,181.114 43.0226,180.781 49.5,183C 54.6169,190.452 60.1169,197.618 66,204.5C 69.1087,199.06 72.6087,193.893 76.5,189C 74.1667,188.667 71.8333,188.333 69.5,188C 67.0194,183.132 64.186,178.632 61,174.5C 63.5692,160.364 64.9025,146.031 65,131.5C 65.9343,128.864 66.7676,126.197 67.5,123.5C 63.5132,116.199 59.0132,109.199 54,102.5C 52.1553,98.8573 52.1553,95.1906 54,91.5C 58.1715,88.4399 62.6715,85.9399 67.5,84C 80.3652,80.5902 93.3652,79.9235 106.5,82C 108.708,82.9356 110.042,84.6023 110.5,87C 129.395,91.3641 145.562,100.531 159,114.5C 160.944,118.11 163.277,121.443 166,124.5C 167.167,131.167 168.333,137.833 169.5,144.5C 168.773,150.561 168.273,156.561 168,162.5C 170.79,159.75 172.957,156.584 174.5,153C 170.8,138.045 173.8,124.545 183.5,112.5C 181.517,111.018 179.684,109.351 178,107.5C 176.722,100.949 176.556,94.4493 177.5,88C 175.119,86.4913 174.119,84.3247 174.5,81.5C 174.72,76.8943 175.887,72.561 178,68.5C 178.667,51.5 178.667,34.5 178,17.5C 175.484,11.4671 176.318,5.96714 180.5,1C 188.413,0.185893 196.246,0.352559 204,1.5C 207.551,26.723 210.051,52.0563 211.5,77.5C 224.148,76.3344 236.814,75.8344 249.5,76C 250.333,76.8333 251.167,77.6667 252,78.5C 253.667,84.1667 255.333,89.8333 257,95.5C 262.438,88.3835 269.271,83.2169 277.5,80C 289.514,79.8326 301.514,79.3326 313.5,78.5C 313.977,77.5224 314.643,76.6891 315.5,76C 335.644,75.6997 355.644,75.6997 375.5,76C 376,76.5 376.5,77 377,77.5C 377.333,89.8333 377.667,102.167 378,114.5C 379.388,119.973 381.722,120.64 385,116.5C 385.333,103.5 385.667,90.5 386,77.5C 386.75,76.8742 387.584,76.3742 388.5,76C 394.833,75.3333 401.167,75.3333 407.5,76C 408.833,78 410.167,78 411.5,76C 422.167,75.3333 432.833,75.3333 443.5,76C 458.335,79.8127 463.835,89.3127 460,104.5C 458.802,107.726 456.969,110.559 454.5,113C 455.64,114.973 456.973,116.807 458.5,118.5C 463.959,104.96 469.125,91.2929 474,77.5C 474.5,77 475,76.5 475.5,76C 482.833,75.3333 490.167,75.3333 497.5,76C 498.333,76.8333 499.167,77.6667 500,78.5C 504.474,90.7571 508.641,103.09 512.5,115.5C 514.857,115.663 517.19,115.497 519.5,115C 515.687,112.876 513.187,109.709 512,105.5C 508.814,84.68 517.814,74.3467 539,74.5C 543.955,74.4078 548.788,75.0745 553.5,76.5C 563.5,75.1667 573.5,75.1667 583.5,76.5C 584.192,77.0253 584.692,77.6919 585,78.5C 585.667,84.1667 585.667,89.8333 585,95.5C 584,96.1667 583,96.8333 582,97.5C 581.333,102.833 581.333,108.167 582,113.5C 586.333,101.833 590.667,90.1667 595,78.5C 595.833,77.6667 596.667,76.8333 597.5,76C 604.5,75.3333 611.5,75.3333 618.5,76C 620.259,77.008 621.426,78.508 622,80.5C 626.333,92.8333 630.667,105.167 635,117.5C 635.333,104.167 635.667,90.8333 636,77.5C 636.5,77 637,76.5 637.5,76C 644.55,75.2032 651.55,75.3699 658.5,76.5C 663.248,82.9939 667.748,89.6606 672,96.5C 672.333,90.1667 672.667,83.8333 673,77.5C 673.5,77 674,76.5 674.5,76C 680.5,75.3333 686.5,75.3333 692.5,76C 693.701,76.9025 694.535,78.0692 695,79.5C 695.667,99.1667 695.667,118.833 695,138.5C 694.626,139.416 694.126,140.25 693.5,141C 686.5,141.667 679.5,141.667 672.5,141C 667.876,134.252 663.376,127.419 659,120.5C 658.667,126.833 658.333,133.167 658,139.5C 657.5,140 657,140.5 656.5,141C 643.167,141.667 629.833,141.667 616.5,141C 614.677,137.701 613.344,134.201 612.5,130.5C 609.5,129.167 606.5,129.167 603.5,130.5C 602.498,134.353 600.831,137.853 598.5,141C 583.5,141.667 568.5,141.667 553.5,141C 552.874,140.25 552.374,139.416 552,138.5C 545.958,141.809 539.458,143.142 532.5,142.5C 520.17,141.914 507.837,141.414 495.5,141C 493.439,137.841 491.939,134.341 491,130.5C 488,129.167 485,129.167 482,130.5C 480.824,134.027 479.658,137.527 478.5,141C 466.5,141.667 454.5,141.667 442.5,141C 439.543,136.92 436.71,132.753 434,128.5C 433.8,132.753 433.3,136.92 432.5,141C 425.167,141.667 417.833,141.667 410.5,141C 409.693,135.917 409.193,130.75 409,125.5C 406.608,135.225 400.441,140.725 390.5,142C 381.184,143.372 372.184,142.372 363.5,139C 361.667,137.167 359.833,135.333 358,133.5C 357.774,136.095 357.274,138.595 356.5,141C 358.319,147.481 357.319,153.481 353.5,159C 359.5,159.333 365.5,159.667 371.5,160C 372,160.5 372.5,161 373,161.5C 373.333,174.167 373.667,186.833 374,199.5C 378.224,185.897 383.391,172.73 389.5,160C 396.833,159.333 404.167,159.333 411.5,160C 412.416,160.374 413.25,160.874 414,161.5C 415,164.167 416,166.833 417,169.5C 417.333,166.833 417.667,164.167 418,161.5C 418.5,161 419,160.5 419.5,160C 444.5,159.333 469.5,159.333 494.5,160C 496.121,162.166 496.955,164.666 497,167.5C 500.421,163.743 504.588,161.243 509.5,160C 521.086,157.134 532.086,158.467 542.5,164C 545.762,166.592 548.262,169.759 550,173.5C 550.333,169.5 550.667,165.5 551,161.5C 551.5,161 552,160.5 552.5,160C 559.5,159.333 566.5,159.333 573.5,160C 578.124,166.748 582.624,173.581 587,180.5C 587.186,173.586 587.686,166.753 588.5,160C 595.167,159.333 601.833,159.333 608.5,160C 609,160.5 609.5,161 610,161.5C 610.333,174.167 610.667,186.833 611,199.5C 615.864,186.576 620.53,173.576 625,160.5C 632.754,159.353 640.587,159.186 648.5,160C 649.416,160.374 650.25,160.874 651,161.5C 655.333,173.833 659.667,186.167 664,198.5C 664.333,186.167 664.667,173.833 665,161.5C 665.5,161 666,160.5 666.5,160C 673.167,159.333 679.833,159.333 686.5,160C 687.701,160.903 688.535,162.069 689,163.5C 689.5,176.829 689.667,190.163 689.5,203.5C 695.176,203.334 700.843,203.501 706.5,204C 708.862,206.871 709.862,210.204 709.5,214C 709.733,218.072 708.733,221.739 706.5,225C 686.5,225.667 666.5,225.667 646.5,225C 644.081,221.578 642.748,217.744 642.5,213.5C 639.167,213.5 635.833,213.5 632.5,213.5C 631.863,217.578 630.53,221.411 628.5,225C 614.833,225.667 601.167,225.667 587.5,225C 582.876,218.252 578.376,211.419 574,204.5C 573.667,210.5 573.333,216.5 573,222.5C 572.626,223.416 572.126,224.25 571.5,225C 565.167,225.667 558.833,225.667 552.5,225C 552,224.5 551.5,224 551,223.5C 550.667,219.167 550.333,214.833 550,210.5C 539.849,225.18 526.015,230.014 508.5,225C 504.103,223.383 500.269,220.883 497,217.5C 496.955,220.334 496.121,222.834 494.5,225C 484.833,225.667 475.167,225.667 465.5,225C 465,224.5 464.5,224 464,223.5C 463.169,217.141 463.336,210.807 464.5,204.5C 465.167,204.167 465.833,203.833 466.5,203.5C 467.497,196.197 467.831,188.863 467.5,181.5C 464.167,181.5 460.833,181.5 457.5,181.5C 457.667,195.171 457.5,208.837 457,222.5C 456.167,223.333 455.333,224.167 454.5,225C 439.851,224.544 425.184,224.544 410.5,225C 407.581,221.754 405.914,217.92 405.5,213.5C 402.167,213.5 398.833,213.5 395.5,213.5C 393.82,219.381 392.653,225.381 392,231.5C 389.588,235.916 386.422,239.749 382.5,243C 385.833,243.333 389.167,243.667 392.5,244C 396.79,250.08 400.957,256.247 405,262.5C 405.188,256.252 405.688,250.085 406.5,244C 428.167,243.333 449.833,243.333 471.5,244C 474.539,250.964 477.206,258.13 479.5,265.5C 482.028,258.583 484.361,251.583 486.5,244.5C 517.636,243.705 548.636,243.539 579.5,244C 586.203,244.763 591.37,247.93 595,253.5C 599.009,247.074 604.843,243.574 612.5,243C 620.147,242.057 627.647,242.557 635,244.5C 665.762,243.338 696.595,243.171 727.5,244C 729.718,247.605 731.552,251.438 733,255.5C 734.791,251.464 736.958,247.631 739.5,244C 747.215,243.233 754.882,243.4 762.5,244.5 Z M 555.5,99.5 C 556.629,101.628 556.796,103.961 556,106.5C 554.127,104.291 551.96,102.458 549.5,101C 551.708,100.809 553.708,100.309 555.5,99.5 Z M 215.5,105.5 C 223.656,104.343 231.99,104.177 240.5,105C 232.2,106.781 223.866,106.947 215.5,105.5 Z M 215.5,159.5 C 228.697,166.847 242.697,172.347 257.5,176C 267.172,175.749 276.839,175.416 286.5,175C 295.046,176.892 302.713,180.559 309.5,186C 310.793,186.49 312.127,186.657 313.5,186.5C 313.5,194.5 313.5,202.5 313.5,210.5C 308.821,210.334 304.155,210.501 299.5,211C 295.167,214 291.5,217.667 288.5,222C 287.167,222.667 285.833,222.667 284.5,222C 277.562,211.199 268.229,203.199 256.5,198C 251.523,196.893 246.523,195.893 241.5,195C 240.68,189.55 239.013,184.384 236.5,179.5C 228.208,178.673 219.875,178.673 211.5,179.5C 211.886,172.627 213.219,165.961 215.5,159.5 Z M 348.5,159.5 C 349.873,159.343 351.207,159.51 352.5,160C 352,160.5 351.5,161 351,161.5C 350.667,167.5 350.333,173.5 350,179.5C 348.291,176.582 346.458,173.748 344.5,171C 347.432,167.795 348.765,163.962 348.5,159.5 Z M 421.5,181.5 C 425.167,181.5 428.833,181.5 432.5,181.5C 432.666,191.506 432.5,201.506 432,211.5C 428.207,201.586 424.707,191.586 421.5,181.5 Z M 519.5,181.5 C 525.378,182.372 528.378,185.872 528.5,192C 528.123,197.263 525.623,201.096 521,203.5C 511.717,196.635 511.217,189.302 519.5,181.5 Z M 336.5,203.5 C 339.304,207.154 341.97,210.987 344.5,215C 341.854,215.497 339.187,215.664 336.5,215.5C 336.5,211.5 336.5,207.5 336.5,203.5 Z M 37.5,214.5 C 41.2821,223.332 44.6154,232.499 47.5,242C 47.3552,242.772 47.0219,243.439 46.5,244C 39.9048,246.309 33.4048,248.809 27,251.5C 28.6138,244.931 30.2805,238.265 32,231.5C 32.7835,228.24 32.6168,225.073 31.5,222C 34.0939,219.914 36.0939,217.414 37.5,214.5 Z M 336.5,251.5 C 339.096,252.265 341.763,252.599 344.5,252.5C 344.666,262.839 344.5,273.172 344,283.5C 342.86,287.253 341.026,287.919 338.5,285.5C 337.846,283.885 337.346,282.218 337,280.5C 336.5,270.839 336.334,261.172 336.5,251.5 Z M 605.5,284.5 C 607.819,284.992 609.819,285.992 611.5,287.5C 608.911,287.539 606.911,286.539 605.5,284.5 Z M 594.5,274.5 C 596.368,277.966 599.034,280.8 602.5,283C 599.443,283.256 596.443,283.756 593.5,284.5C 592.5,283.167 591.5,281.833 590.5,280.5C 592.252,278.754 593.585,276.754 594.5,274.5 Z M 638.5,266.5 C 639.638,269.304 639.805,272.304 639,275.5C 636.861,272.999 634.361,270.832 631.5,269C 634.191,268.844 636.524,268.011 638.5,266.5 Z"/></g>
<g><path style="opacity:0.998" fill="#e3e9ed" d="M 555.5,116.5 C 555.763,120.6 555.43,124.6 554.5,128.5C 550.828,135.013 545.161,138.513 537.5,139C 529.802,139.883 522.468,138.717 515.5,135.5C 515.5,130.5 515.5,125.5 515.5,120.5C 515.735,119.903 516.235,119.57 517,119.5C 523.137,124.031 529.97,125.531 537.5,124C 538.885,121.415 538.218,119.415 535.5,118C 527.32,115.803 520.82,111.303 516,104.5C 513.08,87.233 520.58,78.5664 538.5,78.5C 543.296,78.6258 547.962,79.4592 552.5,81C 553.471,86.0717 553.805,91.2384 553.5,96.5C 548.798,94.9915 543.965,93.9915 539,93.5C 537.167,93.6667 535.333,93.8333 533.5,94C 532.14,95.9376 532.473,97.6043 534.5,99C 541.934,101.795 548.434,105.962 554,111.5C 555.009,113.025 555.509,114.692 555.5,116.5 Z"/></g>
<g><path style="opacity:1" fill="#dae2e6" d="M 317.5,79.5 C 328.838,79.3335 340.172,79.5001 351.5,80C 352.833,84.6667 352.833,89.3333 351.5,94C 345.509,94.4995 339.509,94.6662 333.5,94.5C 333.5,96.8333 333.5,99.1667 333.5,101.5C 339.176,101.334 344.843,101.501 350.5,102C 351.629,106.079 351.796,110.245 351,114.5C 350.5,115 350,115.5 349.5,116C 344.177,116.499 338.844,116.666 333.5,116.5C 333.5,118.833 333.5,121.167 333.5,123.5C 339.842,123.334 346.175,123.5 352.5,124C 353.833,128.667 353.833,133.333 352.5,138C 341.167,138.667 329.833,138.667 318.5,138C 318,137.5 317.5,137 317,136.5C 316.18,117.427 316.347,98.4267 317.5,79.5 Z"/></g>
<g><path style="opacity:1" fill="#e1e7ea" d="M 358.5,79.5 C 363.43,79.1975 368.263,79.5308 373,80.5C 373.333,92.5 373.667,104.5 374,116.5C 375.677,123.342 379.844,125.342 386.5,122.5C 387.806,121.088 388.64,119.421 389,117.5C 389.333,105.167 389.667,92.8333 390,80.5C 395.333,79.1667 400.667,79.1667 406,80.5C 406.667,92.8333 406.667,105.167 406,117.5C 404.257,132.219 395.924,139.552 381,139.5C 366.153,138.987 358.153,131.32 357,116.5C 356.333,104.833 356.333,93.1667 357,81.5C 357.717,80.9558 358.217,80.2891 358.5,79.5 Z"/></g>
<g><path style="opacity:0.999" fill="#dbe2e6" d="M 674.5,109.5 C 674.783,110.289 675.283,110.956 676,111.5C 676.5,101.172 676.666,90.8387 676.5,80.5C 680.981,79.3516 685.648,79.1849 690.5,80C 691,80.5 691.5,81 692,81.5C 692.667,99.8333 692.667,118.167 692,136.5C 691.5,137 691,137.5 690.5,138C 685.833,138.667 681.167,138.667 676.5,138C 669.543,127.92 662.709,117.753 656,107.5C 655.667,117.167 655.333,126.833 655,136.5C 654.5,137 654,137.5 653.5,138C 649.167,138.667 644.833,138.667 640.5,138C 640,137.5 639.5,137 639,136.5C 638.333,117.833 638.333,99.1667 639,80.5C 644.416,79.3611 649.916,79.1944 655.5,80C 662.057,89.7166 668.39,99.5499 674.5,109.5 Z"/></g>
<g><path style="opacity:1" fill="#88c2e0" d="M 319.5,82.5 C 329.653,81.5058 339.986,81.1724 350.5,81.5C 350.5,85.1667 350.5,88.8333 350.5,92.5C 344.167,92.5 337.833,92.5 331.5,92.5C 337.31,91.5104 343.31,91.1771 349.5,91.5C 349.5,88.5 349.5,85.5 349.5,82.5C 339.5,82.5 329.5,82.5 319.5,82.5 Z"/></g>
<g><path style="opacity:1" fill="#0d7fbf" d="M 529.5,81.5 C 536.868,81.3169 544.201,81.6502 551.5,82.5C 551.666,86.5138 551.499,90.5138 551,94.5C 545.238,90.453 539.071,89.6196 532.5,92C 528.959,94.2825 528.626,96.9491 531.5,100C 536.798,102.66 542.131,105.327 547.5,108C 554.12,114.523 555.287,122.023 551,130.5C 545.615,135.352 539.282,137.352 532,136.5C 527.345,136.687 522.845,136.021 518.5,134.5C 517.34,130.541 517.173,126.541 518,122.5C 524.233,127.382 531.066,128.549 538.5,126C 542.5,123 542.5,120 538.5,117C 533.131,114.327 527.798,111.66 522.5,109C 516.252,101.599 515.918,93.9324 521.5,86C 524.099,84.205 526.766,82.705 529.5,81.5 Z"/></g>
<g><path style="opacity:0.594" fill="#c4c4c4" d="M 676.5,80.5 C 676.666,90.8387 676.5,101.172 676,111.5C 675.283,110.956 674.783,110.289 674.5,109.5C 675.167,99.8333 675.833,90.1667 676.5,80.5 Z"/></g>
<g><path style="opacity:1" fill="#037dbe" d="M 319.5,82.5 C 329.5,82.5 339.5,82.5 349.5,82.5C 349.5,85.5 349.5,88.5 349.5,91.5C 343.31,91.1771 337.31,91.5104 331.5,92.5C 331.5,96.1667 331.5,99.8333 331.5,103.5C 336.975,104.489 342.642,104.822 348.5,104.5C 348.5,107.5 348.5,110.5 348.5,113.5C 342.833,113.5 337.167,113.5 331.5,113.5C 331.5,117.833 331.5,122.167 331.5,126.5C 338.167,126.5 344.833,126.5 351.5,126.5C 351.5,129.5 351.5,132.5 351.5,135.5C 340.833,135.5 330.167,135.5 319.5,135.5C 319.5,117.833 319.5,100.167 319.5,82.5 Z"/></g>
<g><path style="opacity:1" fill="#047dbe" d="M 391.5,116.5 C 392.495,105.346 392.828,94.0123 392.5,82.5C 396.167,82.5 399.833,82.5 403.5,82.5C 403.947,96.5729 403.447,110.573 402,124.5C 397.596,133.289 390.429,137.289 380.5,136.5C 368.98,136.479 362.146,130.812 360,119.5C 359.5,107.171 359.333,94.8378 359.5,82.5C 363.5,82.5 367.5,82.5 371.5,82.5C 371.057,95.5742 371.557,108.574 373,121.5C 377.682,127.28 383.015,127.947 389,123.5C 390.136,121.257 390.97,118.924 391.5,116.5 Z"/></g>
<g><path style="opacity:1" fill="#50a3d1" d="M 403.5,82.5 C 399.833,82.5 396.167,82.5 392.5,82.5C 392.828,94.0123 392.495,105.346 391.5,116.5C 391.5,104.833 391.5,93.1667 391.5,81.5C 395.702,81.1832 399.702,81.5166 403.5,82.5 Z"/></g>
<g><path style="opacity:1" fill="#047dbe" d="M 676.5,116.5 C 676.783,117.289 677.283,117.956 678,118.5C 678.5,106.505 678.667,94.5046 678.5,82.5C 682.167,82.5 685.833,82.5 689.5,82.5C 689.5,100.167 689.5,117.833 689.5,135.5C 685.116,135.826 680.783,135.492 676.5,134.5C 668.418,122.671 660.584,110.671 653,98.5C 652.5,110.829 652.333,123.162 652.5,135.5C 648.833,135.5 645.167,135.5 641.5,135.5C 641.5,117.833 641.5,100.167 641.5,82.5C 645.846,82.3343 650.179,82.501 654.5,83C 661.968,94.1096 669.301,105.276 676.5,116.5 Z"/></g>
<g><path style="opacity:1" fill="#a3d0e7" d="M 678.5,82.5 C 678.667,94.5046 678.5,106.505 678,118.5C 677.283,117.956 676.783,117.289 676.5,116.5C 677.167,105.167 677.833,93.8333 678.5,82.5 Z"/></g>
<g><path style="opacity:1" fill="#76b8db" d="M 331.5,103.5 C 337.5,103.5 343.5,103.5 349.5,103.5C 349.813,107.042 349.479,110.375 348.5,113.5C 348.5,110.5 348.5,107.5 348.5,104.5C 342.642,104.822 336.975,104.489 331.5,103.5 Z"/></g>
<g><path style="opacity:0.997" fill="#dee6ea" d="M 556.5,136.5 C 556.5,132.5 556.5,128.5 556.5,124.5C 557.833,124.5 559.167,124.5 560.5,124.5C 560.5,114.167 560.5,103.833 560.5,93.5C 558.856,93.7135 557.356,93.3802 556,92.5C 552.484,80.8845 556.651,76.5512 568.5,79.5C 572.748,79.5151 576.915,79.8485 581,80.5C 581.499,84.8206 581.666,89.1539 581.5,93.5C 580.167,93.5 578.833,93.5 577.5,93.5C 577.5,103.833 577.5,114.167 577.5,124.5C 578.833,124.5 580.167,124.5 581.5,124.5C 581.351,125.552 581.517,126.552 582,127.5C 587.667,111.833 593.333,96.1667 599,80.5C 604.75,79.3594 610.584,79.1928 616.5,80C 623.388,97.3289 629.888,114.829 636,132.5C 636.667,134.167 636.667,135.833 636,137.5C 630.918,138.637 625.751,138.804 620.5,138C 618.453,134.536 616.787,130.87 615.5,127C 610.177,126.501 604.844,126.334 599.5,126.5C 598.849,130.622 597.516,134.455 595.5,138C 582.833,138.667 570.167,138.667 557.5,138C 556.944,137.617 556.611,137.117 556.5,136.5 Z"/></g>
<g><path style="opacity:1" fill="#0a7fbf" d="M 600.5,82.5 C 605.762,82.1953 610.928,82.5286 616,83.5C 622.172,100.683 628.338,117.85 634.5,135C 630.167,135.667 625.833,135.667 621.5,135C 620.073,131.556 618.74,128.056 617.5,124.5C 611.193,123.336 604.859,123.169 598.5,124C 597.073,127.444 595.74,130.944 594.5,134.5C 590.167,135.833 585.833,135.833 581.5,134.5C 588.234,117.296 594.567,99.9631 600.5,82.5 Z"/></g>
<g><path style="opacity:0.998" fill="#e7eef3" d="M 607.5,91.5 C 610,99.0072 612.333,106.674 614.5,114.5C 610.167,114.5 605.833,114.5 601.5,114.5C 603.498,106.839 605.498,99.1728 607.5,91.5 Z"/></g>
<g><path style="opacity:0.254" fill="#323130" d="M 607.5,101.5 C 609.002,104.654 610.336,107.987 611.5,111.5C 609.257,112.474 606.924,112.808 604.5,112.5C 605.297,108.777 606.297,105.11 607.5,101.5 Z"/></g>
<g><path style="opacity:1" fill="#097ebf" d="M 558.5,82.5 C 565.5,82.5 572.5,82.5 579.5,82.5C 579.5,85.5 579.5,88.5 579.5,91.5C 577.833,91.5 576.167,91.5 574.5,91.5C 574.5,103.167 574.5,114.833 574.5,126.5C 576.167,126.5 577.833,126.5 579.5,126.5C 579.5,129.5 579.5,132.5 579.5,135.5C 572.5,135.5 565.5,135.5 558.5,135.5C 558.5,132.5 558.5,129.5 558.5,126.5C 559.833,126.5 561.167,126.5 562.5,126.5C 562.5,114.833 562.5,103.167 562.5,91.5C 561.167,91.5 559.833,91.5 558.5,91.5C 558.5,88.5 558.5,85.5 558.5,82.5 Z"/></g>
<g><path style="opacity:0.996" fill="#e1e8ec" d="M 513.5,131.5 C 514.341,133.379 514.675,135.379 514.5,137.5C 509.35,138.651 504.016,138.817 498.5,138C 497.073,134.556 495.74,131.056 494.5,127.5C 489.167,126.167 483.833,126.167 478.5,127.5C 477.26,131.056 475.927,134.556 474.5,138C 464.833,138.667 455.167,138.667 445.5,138C 441.438,130.696 436.772,123.863 431.5,117.5C 430.669,123.807 430.169,130.141 430,136.5C 429.5,137 429,137.5 428.5,138C 423.581,138.802 418.748,138.635 414,137.5C 413.174,118.26 413.341,99.0933 414.5,80C 423.5,79.3333 432.5,79.3333 441.5,80C 455.988,83.8122 460.154,92.6456 454,106.5C 452.127,108.709 449.96,110.542 447.5,112C 451.725,117.384 455.725,122.884 459.5,128.5C 465.625,112.959 471.459,97.2922 477,81.5C 477.5,81 478,80.5 478.5,80C 484.167,79.3333 489.833,79.3333 495.5,80C 502.196,96.9219 508.196,114.089 513.5,131.5 Z"/></g>
<g><path style="opacity:1" fill="#0b7fbf" d="M 415.5,82.5 C 424.506,82.3336 433.506,82.5002 442.5,83C 453.377,85.929 456.877,92.7623 453,103.5C 450.404,107.39 446.904,110.223 442.5,112C 444.96,113.458 447.127,115.291 449,117.5C 452.667,123.167 456.333,128.833 460,134.5C 466.333,117.5 472.667,100.5 479,83.5C 484.114,82.1958 489.281,82.1958 494.5,83.5C 500.709,100.794 506.709,118.127 512.5,135.5C 508.167,135.5 503.833,135.5 499.5,135.5C 498.5,131.5 497.5,127.5 496.5,123.5C 489.833,123.5 483.167,123.5 476.5,123.5C 475.5,127.5 474.5,131.5 473.5,135.5C 464.494,135.666 455.494,135.5 446.5,135C 442.661,128.32 438.328,121.986 433.5,116C 431.527,115.505 429.527,115.338 427.5,115.5C 427.5,122.167 427.5,128.833 427.5,135.5C 423.5,135.5 419.5,135.5 415.5,135.5C 415.5,117.833 415.5,100.167 415.5,82.5 Z"/></g>
<g><path style="opacity:0.999" fill="#e7edf1" d="M 485.5,94.5 C 486.79,95.0577 487.623,96.0577 488,97.5C 489.607,103.101 491.44,108.601 493.5,114C 488.798,114.828 484.131,114.662 479.5,113.5C 481.908,107.277 483.908,100.943 485.5,94.5 Z"/></g>
<g><path style="opacity:0.245" fill="#2d2c2b" d="M 485.5,102.5 C 487.785,105.335 489.118,108.668 489.5,112.5C 487.143,112.663 484.81,112.497 482.5,112C 484.002,108.995 485.002,105.829 485.5,102.5 Z"/></g>
<g><path style="opacity:0.999" fill="#dfe6eb" d="M 427.5,91.5 C 430.85,91.335 434.183,91.5017 437.5,92C 442.778,96.1581 442.778,100.491 437.5,105C 434.312,106.316 430.978,106.816 427.5,106.5C 427.5,101.5 427.5,96.5 427.5,91.5 Z"/></g>
<g><path style="opacity:0.158" fill="#2d2c2b" d="M 430.5,93.5 C 439.121,92.9325 441.121,96.0992 436.5,103C 434.527,103.495 432.527,103.662 430.5,103.5C 430.5,100.167 430.5,96.8333 430.5,93.5 Z"/></g>
<g><path style="opacity:0.999" fill="#e3ecf1" d="M 190.5,17.5 C 189.353,21.6463 189.186,25.9796 190,30.5C 190.352,28.7525 190.852,27.0858 191.5,25.5C 192.125,18.7475 193.292,12.0808 195,5.5C 197,2.83333 199,2.83333 201,5.5C 204.051,30.7838 206.551,56.1171 208.5,81.5C 219.515,81.1241 230.515,80.4574 241.5,79.5C 244.131,79.3207 246.465,79.9873 248.5,81.5C 250.904,87.5721 251.904,93.7388 251.5,100C 237.118,100.973 222.785,101.307 208.5,101C 209.574,103.456 210.574,105.956 211.5,108.5C 225.261,111.329 238.928,110.829 252.5,107C 258.199,101.635 263.533,95.9685 268.5,90C 270.901,87.9376 273.567,86.2709 276.5,85C 289.11,83.4135 301.776,83.0802 314.5,84C 315.326,102.093 315.826,120.26 316,138.5C 327.758,139.322 339.591,139.822 351.5,140C 354.389,145.778 353.722,151.112 349.5,156C 348.207,156.49 346.873,156.657 345.5,156.5C 345.067,159.166 344.567,161.832 344,164.5C 343.32,166.513 341.987,167.846 340,168.5C 337.618,167.256 335.785,165.423 334.5,163C 328.5,162.333 322.5,162.333 316.5,163C 315.688,169.085 315.188,175.252 315,181.5C 314.275,182.059 313.442,182.392 312.5,182.5C 305.598,178.217 298.265,174.717 290.5,172C 262.791,175.099 237.291,168.933 214,153.5C 209.052,163.239 207.052,173.572 208,184.5C 216.094,183.359 224.261,182.859 232.5,183C 233.701,183.903 234.535,185.069 235,186.5C 235.876,190.7 236.709,194.867 237.5,199C 248.987,199.491 258.987,203.491 267.5,211C 272.737,216.068 277.737,221.235 282.5,226.5C 285.132,227.44 287.798,227.607 290.5,227C 293.88,221.953 298.214,217.953 303.5,215C 307.295,214.163 310.961,214.496 314.5,216C 315.167,218.333 315.833,220.667 316.5,223C 324.542,225.132 332.042,223.965 339,219.5C 342.209,219.563 343.876,221.23 344,224.5C 347.28,222.109 350.78,221.942 354.5,224C 355.711,225.113 355.711,226.28 354.5,227.5C 355.333,227.833 356.167,228.167 357,228.5C 359.667,227.167 362.333,225.833 365,224.5C 366.888,224.796 368.722,225.296 370.5,226C 371.833,227.333 371.833,228.667 370.5,230C 371,230.167 371.5,230.333 372,230.5C 375.028,228.787 378.028,227.12 381,225.5C 389.159,225.657 390.492,228.657 385,234.5C 382.079,238.092 378.579,240.925 374.5,243C 363.763,244.857 353.096,246.69 342.5,248.5C 336.119,246.231 329.452,245.064 322.5,245C 321.034,244.365 319.7,243.531 318.5,242.5C 310.69,244.594 303.523,243.26 297,238.5C 292.205,241.993 287.205,242.326 282,239.5C 276.142,262.36 261.642,275.86 238.5,280C 240.537,284.28 241.871,288.78 242.5,293.5C 242.596,295.926 241.93,298.093 240.5,300C 227.714,297.242 215.047,293.742 202.5,289.5C 200.738,292.201 199.738,295.201 199.5,298.5C 200.162,301.468 200.495,304.468 200.5,307.5C 185.444,307.085 170.444,306.251 155.5,305C 150.888,313.453 147.055,313.286 144,304.5C 142.978,305.354 142.145,306.354 141.5,307.5C 144.745,312.205 144.079,316.038 139.5,319C 132.514,320.954 125.514,320.954 118.5,319C 117.978,318.439 117.645,317.772 117.5,317C 119.197,313.106 121.03,309.273 123,305.5C 129.394,300.56 135.228,295.06 140.5,289C 143.713,288.297 146.879,288.464 150,289.5C 156.457,282.713 163.29,276.213 170.5,270C 174.841,269.23 179.008,269.73 183,271.5C 184.769,267.526 186.103,263.526 187,259.5C 166.534,271.124 144.7,274.624 121.5,270C 120.333,268.833 119.167,267.667 118,266.5C 116.302,269.19 114.302,271.523 112,273.5C 106.5,271.667 101,269.833 95.5,268C 93,266.833 91.1667,265 90,262.5C 87.6959,264.068 85.1959,265.235 82.5,266C 69.4843,266.374 56.4843,267.041 43.5,268C 46.7555,271.086 50.4221,273.586 54.5,275.5C 58.6665,271.381 62.4999,271.714 66,276.5C 66.4828,277.448 66.6495,278.448 66.5,279.5C 75.7411,274.407 83.2411,276.407 89,285.5C 91.4151,288.595 92.2485,291.929 91.5,295.5C 79.7677,299.17 68.4344,298.003 57.5,292C 46.4958,284.829 35.1624,278.162 23.5,272C 19.5,267.333 19.5,262.667 23.5,258C 34.388,253.39 45.388,249.056 56.5,245C 54.3911,243.859 52.5578,242.359 51,240.5C 46.9965,229.156 42.9965,217.822 39,206.5C 35,211.167 31,215.833 27,220.5C 26.4719,223.219 26.9719,225.719 28.5,228C 28.1924,232.308 25.8591,234.641 21.5,235C 26.6537,239.847 26.6537,244.847 21.5,250C 17.9523,251.941 14.2857,253.607 10.5,255C 8.74117,255.798 7.0745,255.631 5.5,254.5C 4.17727,250.077 3.17727,245.577 2.5,241C 5.51935,234.952 8.35269,228.786 11,222.5C 19.4542,211.096 27.2875,199.262 34.5,187C 38.5292,185.087 42.5292,185.087 46.5,187C 51.8724,196.207 58.5391,204.374 66.5,211.5C 73.7589,199.312 81.7589,187.646 90.5,176.5C 89.9984,175.479 89.3317,175.312 88.5,176C 87.0278,179.305 84.6945,181.805 81.5,183.5C 80.5224,183.023 79.6891,182.357 79,181.5C 79.2179,179.413 79.0512,177.413 78.5,175.5C 75.7753,188.302 72.2753,188.636 68,176.5C 67,175.833 66,175.167 65,174.5C 66.895,161.966 67.895,149.299 68,136.5C 68.5763,131.525 70.0763,126.859 72.5,122.5C 67.6667,115.5 62.8333,108.5 58,101.5C 56.6986,99.6354 56.3653,97.6354 57,95.5C 64.3777,89.7919 72.711,86.4585 82,85.5C 89.0716,86.0785 96.2383,86.2452 103.5,86C 105.155,87.4443 105.822,89.2776 105.5,91.5C 116.276,92.5651 126.276,96.0651 135.5,102C 145.958,108.687 154.792,117.187 162,127.5C 163.166,133.49 164.333,139.49 165.5,145.5C 165.406,147.689 164.739,149.689 163.5,151.5C 164.077,153.106 164.41,154.772 164.5,156.5C 163.089,160.391 162.255,164.391 162,168.5C 164.946,168.302 167.779,167.802 170.5,167C 174.65,162.538 177.65,157.372 179.5,151.5C 175.568,143.2 175.735,134.867 180,126.5C 184.726,121.048 187.226,114.715 187.5,107.5C 185.533,107.739 183.699,107.406 182,106.5C 180.828,99.8212 180.661,93.1546 181.5,86.5C 177.824,82.0921 177.658,77.4255 181,72.5C 181.525,58.6676 182.025,44.8342 182.5,31C 182.693,24.0578 182.027,17.2245 180.5,10.5C 180.865,4.6309 183.865,2.46423 189.5,4C 193.058,8.27945 193.391,12.7794 190.5,17.5 Z M 215.5,105.5 C 223.866,106.947 232.2,106.781 240.5,105C 231.99,104.177 223.656,104.343 215.5,105.5 Z M 37.5,214.5 C 36.0939,217.414 34.0939,219.914 31.5,222C 32.6168,225.073 32.7835,228.24 32,231.5C 30.2805,238.265 28.6138,244.931 27,251.5C 33.4048,248.809 39.9048,246.309 46.5,244C 47.0219,243.439 47.3552,242.772 47.5,242C 44.6154,232.499 41.2821,223.332 37.5,214.5 Z"/></g>
<g><path style="opacity:1" fill="#1481c0" d="M 155.5,125.5 C 158.452,126.359 160.285,128.359 161,131.5C 161.798,133.259 161.631,134.926 160.5,136.5C 153.594,139.304 146.594,141.471 139.5,143C 137.964,141.401 137.464,139.567 138,137.5C 144.012,133.637 149.845,129.637 155.5,125.5 Z"/></g>
<g><path style="opacity:1" fill="#1781c0" d="M 291.5,119.5 C 298.544,119.756 305.544,120.422 312.5,121.5C 312.5,125.167 312.5,128.833 312.5,132.5C 305.505,131.833 298.505,131.667 291.5,132C 279.391,134.929 267.224,137.429 255,139.5C 242.363,138.588 229.863,136.755 217.5,134C 216.62,132.644 216.286,131.144 216.5,129.5C 230.441,131.254 244.441,131.754 258.5,131C 269.588,127.108 280.588,123.275 291.5,119.5 Z"/></g>
<g><path style="opacity:1" fill="#087ebe" d="M 134.5,169.5 C 124.167,169.5 113.833,169.5 103.5,169.5C 101.473,169.662 99.4727,169.495 97.5,169C 102.247,161.845 104.081,154.011 103,145.5C 102.058,142.399 100.224,140.066 97.5,138.5C 102.713,133.401 106.38,127.401 108.5,120.5C 126.344,126.181 137.511,138.181 142,156.5C 143.043,159.757 143.543,163.09 143.5,166.5C 140.753,166.187 138.086,166.52 135.5,167.5C 135.137,168.183 134.804,168.85 134.5,169.5 Z"/></g>
<g><path style="opacity:1" fill="#0a7ebf" d="M 199.5,117.5 C 207.546,116.939 212.379,120.606 214,128.5C 214.498,131.482 214.665,134.482 214.5,137.5C 205.644,138.243 196.811,139.243 188,140.5C 186.5,140.167 185,139.833 183.5,139.5C 187.399,130.998 192.733,123.664 199.5,117.5 Z"/></g>
<g><path style="opacity:1" fill="#1080bf" d="M 84.5,170.5 C 97.3226,171.495 110.323,171.829 123.5,171.5C 127.514,171.334 131.514,171.501 135.5,172C 135.167,172.333 134.833,172.667 134.5,173C 116.17,173.5 97.8364,173.667 79.5,173.5C 79.6567,172.127 79.49,170.793 79,169.5C 76.4953,173.176 74.662,177.176 73.5,181.5C 71.7996,177.539 69.4663,174.039 66.5,171C 67.9197,166.569 69.0864,162.069 70,157.5C 70.1084,147.774 70.7751,138.107 72,128.5C 73.1935,123.306 76.3601,120.14 81.5,119C 89.849,118.427 98.1823,118.593 106.5,119.5C 106.628,121.655 106.128,123.655 105,125.5C 101.077,129.687 97.9106,134.354 95.5,139.5C 97.4037,142.302 99.0703,145.302 100.5,148.5C 98.6216,154.376 94.9549,158.709 89.5,161.5C 88.3333,163.833 87.1667,166.167 86,168.5C 84.9326,169.191 83.7659,169.691 82.5,170C 83.0944,170.464 83.7611,170.631 84.5,170.5 Z"/></g>
<g><path style="opacity:1" fill="#2085c2" d="M 188.5,116.5 C 189.833,116.5 191.167,116.5 192.5,116.5C 189.932,125.637 185.765,133.97 180,141.5C 179.262,137.739 179.595,134.072 181,130.5C 183.73,125.942 186.23,121.275 188.5,116.5 Z"/></g>
<g><path style="opacity:1" fill="#1883c1" d="M 148.5,116.5 C 151.596,117.76 153.929,119.926 155.5,123C 149.087,127.623 142.587,132.123 136,136.5C 134.017,135.234 133.017,133.568 133,131.5C 138.67,126.996 143.837,121.996 148.5,116.5 Z"/></g>
<g><path style="opacity:1" fill="#1180c0" d="M 138.5,108.5 C 142.293,109.235 145.293,111.235 147.5,114.5C 142.463,120.538 136.797,125.871 130.5,130.5C 128.054,129.573 127.221,127.906 128,125.5C 131.511,119.805 135.011,114.139 138.5,108.5 Z"/></g>
<g><path style="opacity:1" fill="#1380bf" d="M 288.5,103.5 C 296.549,103.654 304.549,104.32 312.5,105.5C 312.5,110.167 312.5,114.833 312.5,119.5C 306.516,118.534 300.516,118.034 294.5,118C 287.833,119.667 281.167,121.333 274.5,123C 269.828,125.837 264.828,127.837 259.5,129C 245.092,129.935 230.758,129.269 216.5,127C 213.893,124.548 213.06,122.048 214,119.5C 227.769,121.377 241.602,121.877 255.5,121C 266.603,115.118 277.603,109.285 288.5,103.5 Z"/></g>
<g><path style="opacity:1" fill="#1782c0" d="M 129.5,102.5 C 132.843,102.501 135.177,104.001 136.5,107C 134.134,111.565 131.634,116.065 129,120.5C 126.373,126.742 123.206,127.075 119.5,121.5C 123.101,115.298 126.434,108.964 129.5,102.5 Z"/></g>
<g><path style="opacity:1" fill="#1681c0" d="M 118.5,97.5 C 122.52,97.2143 125.52,98.7143 127.5,102C 124.643,108.883 121.143,115.383 117,121.5C 114.635,120.711 112.468,119.544 110.5,118C 113.267,111.199 115.933,104.366 118.5,97.5 Z"/></g>
<g><path style="opacity:1" fill="#1c83c1" d="M 71.5,97.5 C 73.679,97.84 75.5123,98.84 77,100.5C 80.893,105.177 82.5597,110.51 82,116.5C 80.4157,117.861 78.5824,118.528 76.5,118.5C 74.0483,111.693 72.3816,104.693 71.5,97.5 Z"/></g>
<g><path style="opacity:1" fill="#1381c0" d="M 104.5,93.5 C 108.966,93.1562 112.966,94.3229 116.5,97C 114.263,103.878 111.93,110.712 109.5,117.5C 106.833,117.5 104.167,117.5 101.5,117.5C 102.24,109.466 103.24,101.466 104.5,93.5 Z"/></g>
<g><path style="opacity:1" fill="#1883c1" d="M 62.5,93.5 C 66.0433,93.872 68.21,95.872 69,99.5C 71.5213,106.376 73.188,113.376 74,120.5C 68.8333,112.833 63.6667,105.167 58.5,97.5C 59.5487,95.7844 60.882,94.4511 62.5,93.5 Z"/></g>
<g><path style="opacity:1" fill="#2888c4" d="M 70.5,89.5 C 72.288,89.2148 73.9547,89.5481 75.5,90.5C 76.6905,93.1737 77.5238,95.8404 78,98.5C 77.1667,97.6667 76.3333,96.8333 75.5,96C 73.141,95.7922 70.9743,95.6256 69,95.5C 68.6258,94.5838 68.1258,93.7504 67.5,93C 68.7101,91.9609 69.7101,90.7942 70.5,89.5 Z"/></g>
<g><path style="opacity:1" fill="#1181c0" d="M 95.5,87.5 C 97.5273,87.3379 99.5273,87.5045 101.5,88C 102.428,88.3879 103.095,89.0546 103.5,90C 101.786,98.783 100.453,107.616 99.5,116.5C 96.1702,116.837 94.5036,115.337 94.5,112C 95.3876,103.859 95.721,95.6925 95.5,87.5 Z"/></g>
<g><path style="opacity:1" fill="#2486c2" d="M 79.5,87.5 C 82.2385,86.9648 84.0718,87.9648 85,90.5C 86.3833,98.8569 86.8833,107.19 86.5,115.5C 82.817,107.287 79.817,98.7867 77.5,90C 78.0556,88.9889 78.7222,88.1556 79.5,87.5 Z"/></g>
<g><path style="opacity:1" fill="#2786c3" d="M 199.5,86.5 C 199.56,85.9569 199.893,85.6236 200.5,85.5C 202.605,87.4684 205.105,88.4684 208,88.5C 221.479,87.5636 234.979,87.2303 248.5,87.5C 248.5,88.8333 248.5,90.1667 248.5,91.5C 235.492,91.7978 222.492,91.9644 209.5,92C 205.434,91.3774 202.101,89.5441 199.5,86.5 Z"/></g>
<g><path style="opacity:1" fill="#2888c3" d="M 86.5,87.5 C 88.861,87.6741 91.1944,88.0074 93.5,88.5C 93.6664,97.5062 93.4998,106.506 93,115.5C 91.2859,116.925 89.9525,116.592 89,114.5C 88.196,105.489 87.3627,96.489 86.5,87.5 Z"/></g>
<g><path style="opacity:1" fill="#1080bf" d="M 308.5,85.5 C 309.833,85.5 311.167,85.5 312.5,85.5C 312.5,91.5 312.5,97.5 312.5,103.5C 299.134,99.4848 286.467,100.985 274.5,108C 262.75,118.356 249.084,122.356 233.5,120C 223.055,119.185 212.722,117.685 202.5,115.5C 200.311,115.594 198.311,116.261 196.5,117.5C 196.167,117.167 195.833,116.833 195.5,116.5C 197.515,112.647 200.682,110.647 205,110.5C 220.527,113.243 236.027,113.076 251.5,110C 258.803,103.698 265.803,97.0317 272.5,90C 274.167,89 275.833,88 277.5,87C 288.008,86.8303 298.341,86.3303 308.5,85.5 Z"/></g>
<g><path style="opacity:1" fill="#1e84c1" d="M 194.5,84.5 C 197.671,87.8211 201.338,90.6545 205.5,93C 220.178,93.1672 234.845,93.6672 249.5,94.5C 250.246,95.7362 250.579,97.0695 250.5,98.5C 236.496,98.6666 222.496,98.4999 208.5,98C 201.953,95.284 197.286,90.784 194.5,84.5 Z"/></g>
<g><path style="opacity:1" fill="#0e80bf" d="M 183.5,84.5 C 188.644,83.1982 192.144,84.8648 194,89.5C 197.416,93.5869 201.416,96.9203 206,99.5C 207.149,102.393 207.649,105.393 207.5,108.5C 202.281,108.294 197.947,110.127 194.5,114C 192.975,115.009 191.308,115.509 189.5,115.5C 189.5,112.167 189.5,108.833 189.5,105.5C 187.533,105.739 185.699,105.406 184,104.5C 182.561,97.8341 182.395,91.1674 183.5,84.5 Z"/></g>
<g><path style="opacity:1" fill="#2086c3" d="M 241.5,81.5 C 244.95,80.7564 246.616,82.0897 246.5,85.5C 233.978,85.2359 221.478,85.5693 209,86.5C 207.033,86.4581 205.199,85.9581 203.5,85C 216.349,84.1654 229.016,82.9987 241.5,81.5 Z"/></g>
<g><path style="opacity:1" fill="#4c9dce" d="M 181.5,74.5 C 182.797,76.6934 182.797,79.0268 181.5,81.5C 180.943,79.2825 180.943,76.9491 181.5,74.5 Z"/></g>
<g><path style="opacity:1" fill="#a3d0e7" d="M 184.5,46.5 C 184.5,47.1667 184.833,47.5 185.5,47.5C 185.832,58.8529 185.499,70.1862 184.5,81.5C 183.176,69.6734 183.176,58.0067 184.5,46.5 Z"/></g>
<g><path style="opacity:0.612" fill="#9d9d9c" d="M 190.5,17.5 C 190.194,20.3854 190.527,23.0521 191.5,25.5C 190.852,27.0858 190.352,28.7525 190,30.5C 189.186,25.9796 189.353,21.6463 190.5,17.5 Z"/></g>
<g><path style="opacity:1" fill="#62abd5" d="M 187.5,8.5 C 187.369,7.76109 187.536,7.09442 188,6.5C 189.221,7.77408 190.054,9.27408 190.5,11C 189.283,13.368 188.449,15.868 188,18.5C 188.24,14.9923 188.073,11.659 187.5,8.5 Z"/></g>
<g><path style="opacity:1" fill="#1480c0" d="M 196.5,6.5 C 197.496,6.41423 198.329,6.74756 199,7.5C 201.924,32.4419 204.091,57.4419 205.5,82.5C 200.167,82.5 194.833,82.5 189.5,82.5C 189.333,69.4957 189.5,56.4957 190,43.5C 192.234,31.1638 194.401,18.8305 196.5,6.5 Z"/></g>
<g><path style="opacity:1" fill="#3490c7" d="M 187.5,8.5 C 185.648,21.3934 184.982,34.3934 185.5,47.5C 184.833,47.5 184.5,47.1667 184.5,46.5C 184.667,35.8281 184.5,25.1615 184,14.5C 181.983,11.8728 182.15,9.37285 184.5,7C 185.788,6.76126 186.788,7.26126 187.5,8.5 Z"/></g>
<g><path style="opacity:0.596" fill="#a1a1a0" d="M 515.5,120.5 C 515.5,125.5 515.5,130.5 515.5,135.5C 515.672,136.492 515.338,137.158 514.5,137.5C 514.675,135.379 514.341,133.379 513.5,131.5C 514.167,127.833 514.833,124.167 515.5,120.5 Z"/></g>
<g><path style="opacity:0.486" fill="#a0a09f" d="M 555.5,116.5 C 556.473,118.948 556.806,121.615 556.5,124.5C 556.5,128.5 556.5,132.5 556.5,136.5C 555.833,133.833 555.167,131.167 554.5,128.5C 555.43,124.6 555.763,120.6 555.5,116.5 Z"/></g>
<g><path style="opacity:1" fill="#1b82c0" d="M 288.5,133.5 C 296.51,133.644 304.51,133.977 312.5,134.5C 312.544,138.09 314.211,140.59 317.5,142C 328.495,142.5 339.495,142.667 350.5,142.5C 350.957,146.584 350.29,150.417 348.5,154C 347.333,154.167 346.167,154.333 345,154.5C 328.06,151.074 311.227,147.241 294.5,143C 279.516,143.914 264.516,144.581 249.5,145C 238.523,143.09 227.857,140.257 217.5,136.5C 217.833,136.167 218.167,135.833 218.5,135.5C 242.181,142.827 265.514,142.16 288.5,133.5 Z"/></g>
<g><path style="opacity:1" fill="#1581c0" d="M 158.5,138.5 C 160.124,138.36 161.29,139.027 162,140.5C 162.498,143.482 162.665,146.482 162.5,149.5C 156.311,150.337 150.144,151.337 144,152.5C 142.287,151.046 141.12,149.212 140.5,147C 146.354,143.67 152.354,140.836 158.5,138.5 Z"/></g>
<g><path style="opacity:1" fill="#1781c0" d="M 216.5,139.5 C 226.855,141.838 237.188,144.338 247.5,147C 263.837,146.444 280.171,145.777 296.5,145C 311.132,150.148 326.132,153.815 341.5,156C 342.44,159.65 341.94,163.15 340,166.5C 338.542,164.04 336.709,161.873 334.5,160C 327.287,158.955 320.287,159.455 313.5,161.5C 305.922,158.696 298.255,156.196 290.5,154C 278.49,153.668 266.49,153.668 254.5,154C 241.712,151.404 229.378,147.404 217.5,142C 216.748,141.329 216.414,140.496 216.5,139.5 Z"/></g>
<g><path style="opacity:1" fill="#1882c0" d="M 210.5,139.5 C 211.833,139.5 213.167,139.5 214.5,139.5C 214.38,142.48 213.713,145.313 212.5,148C 201.505,148.5 190.505,148.667 179.5,148.5C 179.472,146.418 180.139,144.584 181.5,143C 191.338,142.02 201.004,140.854 210.5,139.5 Z"/></g>
<g><path style="opacity:1" fill="#0d7fbf" d="M 216.5,144.5 C 228.585,149.028 240.918,152.861 253.5,156C 264.824,155.698 276.157,155.698 287.5,156C 296.146,157.035 304.312,159.535 312,163.5C 312.829,168.864 312.663,174.198 311.5,179.5C 304.6,174.384 296.933,170.884 288.5,169C 278.445,168.588 268.445,168.921 258.5,170C 242.283,166.223 227.283,159.723 213.5,150.5C 214.513,148.473 215.513,146.473 216.5,144.5 Z"/></g>
<g><path style="opacity:1" fill="#0c7fbf" d="M 182.5,150.5 C 189.5,150.5 196.5,150.5 203.5,150.5C 199.651,162.881 192.818,173.214 183,181.5C 179.15,176.989 174.65,173.156 169.5,170C 171.96,168.542 174.127,166.709 176,164.5C 178.454,159.927 180.621,155.261 182.5,150.5 Z"/></g>
<g><path style="opacity:1" fill="#1681c0" d="M 206.5,150.5 C 208.948,150.085 210.281,151.085 210.5,153.5C 206.383,163.771 204.383,174.437 204.5,185.5C 197.159,185.666 189.826,185.5 182.5,185C 187.333,181.5 191.5,177.333 195,172.5C 199.101,165.297 202.934,157.964 206.5,150.5 Z"/></g>
<g><path style="opacity:1" fill="#1c83c1" d="M 156.5,151.5 C 158.167,151.5 159.833,151.5 161.5,151.5C 161.784,154.777 161.451,157.943 160.5,161C 155.5,161.667 150.5,161.667 145.5,161C 144.446,158.618 143.779,156.118 143.5,153.5C 148.076,153.562 152.409,152.895 156.5,151.5 Z"/></g>
<g><path style="opacity:0.221" fill="#2f2e2d" d="M 99.5,154.5 C 100.598,155.601 100.765,156.934 100,158.5C 98.4725,161.417 97.1392,164.417 96,167.5C 93.5991,168.602 91.0991,168.769 88.5,168C 91.7897,163.067 95.4563,158.567 99.5,154.5 Z"/></g>
<g><path style="opacity:1" fill="#0a7ebf" d="M 145.5,163.5 C 150.544,163.173 155.544,163.506 160.5,164.5C 160.167,165.167 159.833,165.833 159.5,166.5C 154.88,167.493 150.214,167.827 145.5,167.5C 145.5,166.167 145.5,164.833 145.5,163.5 Z"/></g>
<g><path style="opacity:1" fill="#e4ebef" d="M 334.5,192.5 C 334.217,191.711 333.717,191.044 333,190.5C 332.5,200.494 332.334,210.494 332.5,220.5C 332.389,221.117 332.056,221.617 331.5,222C 327.167,222.667 322.833,222.667 318.5,222C 318,221.5 317.5,221 317,220.5C 316.333,201.833 316.333,183.167 317,164.5C 322.416,163.361 327.916,163.194 333.5,164C 340,173.833 346.5,183.667 353,193.5C 353.333,183.833 353.667,174.167 354,164.5C 359,163.167 364,163.167 369,164.5C 369.667,183.5 369.667,202.5 369,221.5C 364.252,222.635 359.419,222.802 354.5,222C 347.221,212.559 340.554,202.726 334.5,192.5 Z M 336.5,203.5 C 336.5,207.5 336.5,211.5 336.5,215.5C 339.187,215.664 341.854,215.497 344.5,215C 341.97,210.987 339.304,207.154 336.5,203.5 Z"/></g>
<g><path style="opacity:1" fill="#e9edef" d="M 488.5,177.5 C 487.506,187.653 487.172,197.986 487.5,208.5C 488.5,208.5 489.5,208.5 490.5,208.5C 491.8,210.223 492.467,212.39 492.5,215C 492.333,217.167 492.167,219.333 492,221.5C 483.667,222.833 475.333,222.833 467,221.5C 466.333,217.5 466.333,213.5 467,209.5C 467.383,208.944 467.883,208.611 468.5,208.5C 469.5,208.5 470.5,208.5 471.5,208.5C 471.828,197.986 471.494,187.653 470.5,177.5C 464.879,178.354 459.212,178.687 453.5,178.5C 453.667,192.837 453.5,207.171 453,221.5C 447.667,222.833 442.333,222.833 437,221.5C 436.5,207.171 436.333,192.837 436.5,178.5C 431.57,178.803 426.737,178.469 422,177.5C 421.201,172.913 421.368,168.413 422.5,164C 445.5,163.333 468.5,163.333 491.5,164C 492.629,168.079 492.796,172.245 492,176.5C 490.989,177.337 489.822,177.67 488.5,177.5 Z"/></g>
<g><path style="opacity:1" fill="#e6ecf0" d="M 571.5,192.5 C 571.217,191.711 570.717,191.044 570,190.5C 569.5,200.494 569.334,210.494 569.5,220.5C 569.389,221.117 569.056,221.617 568.5,222C 563.581,222.802 558.748,222.635 554,221.5C 553.333,202.5 553.333,183.5 554,164.5C 559.416,163.361 564.916,163.194 570.5,164C 577,173.833 583.5,183.667 590,193.5C 590.333,183.833 590.667,174.167 591,164.5C 596,163.167 601,163.167 606,164.5C 606.667,183.5 606.667,202.5 606,221.5C 601.252,222.635 596.419,222.802 591.5,222C 584.221,212.559 577.554,202.726 571.5,192.5 Z"/></g>
<g><path style="opacity:0.999" fill="#e1e8eb" d="M 629.5,163.5 C 635.425,163.192 641.259,163.525 647,164.5C 653.333,182.167 659.667,199.833 666,217.5C 666.72,219.112 666.554,220.612 665.5,222C 660.167,222.667 654.833,222.667 649.5,222C 648.073,218.556 646.74,215.056 645.5,211.5C 640.167,210.167 634.833,210.167 629.5,211.5C 628.26,215.056 626.927,218.556 625.5,222C 619.916,222.806 614.416,222.639 609,221.5C 614.72,201.845 621.553,182.511 629.5,163.5 Z"/></g>
<g><path style="opacity:0.999" fill="#e7e9eb" d="M 669.5,163.5 C 674.762,163.195 679.928,163.529 685,164.5C 685.5,178.829 685.667,193.163 685.5,207.5C 691.842,207.334 698.175,207.5 704.5,208C 705.833,212.667 705.833,217.333 704.5,222C 692.591,222.821 680.757,222.654 669,221.5C 668.18,202.093 668.347,182.76 669.5,163.5 Z"/></g>
<g><path style="opacity:1" fill="#82bfde" d="M 489.5,175.5 C 489.5,172.5 489.5,169.5 489.5,166.5C 482.833,166.5 476.167,166.5 469.5,166.5C 469.5,169.5 469.5,172.5 469.5,175.5C 468.521,172.375 468.187,169.042 468.5,165.5C 475.833,165.5 483.167,165.5 490.5,165.5C 490.813,169.042 490.479,172.375 489.5,175.5 Z"/></g>
<g><path style="opacity:1" fill="#047dbe" d="M 354.5,200.5 C 354.783,201.289 355.283,201.956 356,202.5C 356.5,190.505 356.667,178.505 356.5,166.5C 360.167,166.5 363.833,166.5 367.5,166.5C 367.5,184.167 367.5,201.833 367.5,219.5C 363.116,219.826 358.783,219.492 354.5,218.5C 346.418,206.671 338.584,194.671 331,182.5C 330.5,194.829 330.333,207.162 330.5,219.5C 326.833,219.5 323.167,219.5 319.5,219.5C 319.5,201.833 319.5,184.167 319.5,166.5C 323.846,166.334 328.179,166.501 332.5,167C 339.968,178.11 347.301,189.276 354.5,200.5 Z M 336.5,203.5 C 336.5,207.5 336.5,211.5 336.5,215.5C 339.187,215.664 341.854,215.497 344.5,215C 341.97,210.987 339.304,207.154 336.5,203.5 Z"/></g>
<g><path style="opacity:1" fill="#91c7e3" d="M 356.5,166.5 C 356.667,178.505 356.5,190.505 356,202.5C 355.283,201.956 354.783,201.289 354.5,200.5C 355.167,189.167 355.833,177.833 356.5,166.5 Z"/></g>
<g><path style="opacity:1" fill="#017dbe" d="M 466.5,175.5 C 461.167,175.5 455.833,175.5 450.5,175.5C 450.5,190.167 450.5,204.833 450.5,219.5C 446.833,219.5 443.167,219.5 439.5,219.5C 439.5,204.833 439.5,190.167 439.5,175.5C 434.167,175.5 428.833,175.5 423.5,175.5C 423.5,172.5 423.5,169.5 423.5,166.5C 437.833,166.5 452.167,166.5 466.5,166.5C 466.5,169.5 466.5,172.5 466.5,175.5 Z"/></g>
<g><path style="opacity:1" fill="#007dbe" d="M 489.5,175.5 C 488.167,175.5 486.833,175.5 485.5,175.5C 485.5,187.167 485.5,198.833 485.5,210.5C 486.833,210.5 488.167,210.5 489.5,210.5C 489.5,213.5 489.5,216.5 489.5,219.5C 482.833,219.5 476.167,219.5 469.5,219.5C 469.5,216.5 469.5,213.5 469.5,210.5C 470.833,210.5 472.167,210.5 473.5,210.5C 473.5,198.833 473.5,187.167 473.5,175.5C 472.167,175.5 470.833,175.5 469.5,175.5C 469.5,172.5 469.5,169.5 469.5,166.5C 476.167,166.5 482.833,166.5 489.5,166.5C 489.5,169.5 489.5,172.5 489.5,175.5 Z"/></g>
<g><path style="opacity:1" fill="#047dbe" d="M 591.5,200.5 C 591.783,201.289 592.283,201.956 593,202.5C 593.5,190.505 593.667,178.505 593.5,166.5C 597.167,166.5 600.833,166.5 604.5,166.5C 604.5,184.167 604.5,201.833 604.5,219.5C 600.116,219.826 595.783,219.492 591.5,218.5C 583.418,206.671 575.584,194.671 568,182.5C 567.5,194.829 567.333,207.162 567.5,219.5C 563.833,219.5 560.167,219.5 556.5,219.5C 556.5,201.833 556.5,184.167 556.5,166.5C 560.846,166.334 565.179,166.501 569.5,167C 576.968,178.11 584.301,189.276 591.5,200.5 Z"/></g>
<g><path style="opacity:1" fill="#8fc6e2" d="M 593.5,166.5 C 593.667,178.505 593.5,190.505 593,202.5C 592.283,201.956 591.783,201.289 591.5,200.5C 592.167,189.167 592.833,177.833 593.5,166.5 Z"/></g>
<g><path style="opacity:1" fill="#0b7fbf" d="M 630.5,166.5 C 635.544,166.173 640.544,166.506 645.5,167.5C 652.103,184.644 658.103,201.977 663.5,219.5C 659.167,219.5 654.833,219.5 650.5,219.5C 649.5,215.5 648.5,211.5 647.5,207.5C 640.833,207.5 634.167,207.5 627.5,207.5C 626.5,211.5 625.5,215.5 624.5,219.5C 620.167,219.5 615.833,219.5 611.5,219.5C 617.551,201.732 623.884,184.065 630.5,166.5 Z"/></g>
<g><path style="opacity:1" fill="#5babd5" d="M 682.5,166.5 C 678.833,166.5 675.167,166.5 671.5,166.5C 671.5,184.167 671.5,201.833 671.5,219.5C 670.503,201.674 670.17,183.674 670.5,165.5C 674.702,165.183 678.702,165.517 682.5,166.5 Z"/></g>
<g><path style="opacity:1" fill="#007cbe" d="M 682.5,166.5 C 682.5,181.167 682.5,195.833 682.5,210.5C 689.167,210.5 695.833,210.5 702.5,210.5C 702.5,213.5 702.5,216.5 702.5,219.5C 692.167,219.5 681.833,219.5 671.5,219.5C 671.5,201.833 671.5,184.167 671.5,166.5C 675.167,166.5 678.833,166.5 682.5,166.5 Z"/></g>
<g><path style="opacity:1" fill="#0e7fbf" d="M 137.5,168.5 C 145.651,168.341 148.651,172.341 146.5,180.5C 142.486,180.666 138.486,180.499 134.5,180C 133.167,178.667 131.833,177.333 130.5,176C 136.472,176.862 138.805,174.362 137.5,168.5 Z"/></g>
<g><path style="opacity:1" fill="#96c9e4" d="M 103.5,169.5 C 113.833,169.5 124.167,169.5 134.5,169.5C 130.833,170.167 127.167,170.833 123.5,171.5C 110.323,171.829 97.3226,171.495 84.5,170.5C 91.0221,170.823 97.3554,170.49 103.5,169.5 Z"/></g>
<g><path style="opacity:1" fill="#1681c0" d="M 158.5,170.5 C 168.664,170.154 175.831,174.488 180,183.5C 169.54,184.076 159.04,183.576 148.5,182C 148.043,181.586 147.709,181.086 147.5,180.5C 148.23,177.891 148.73,175.224 149,172.5C 152.27,171.868 155.437,171.201 158.5,170.5 Z"/></g>
<g><path style="opacity:1" fill="#2487c3" d="M 81.5,174.5 C 82.8333,174.5 84.1667,174.5 85.5,174.5C 85.4312,177.084 84.2645,179.084 82,180.5C 81.5045,178.527 81.3379,176.527 81.5,174.5 Z"/></g>
<g><path style="opacity:1" fill="#077ebe" d="M 94.5,174.5 C 105.172,174.333 115.839,174.5 126.5,175C 130.692,180.87 136.358,183.537 143.5,183C 144.878,186.763 147.212,189.763 150.5,192C 141.594,195.453 132.927,199.453 124.5,204C 106.043,210.853 87.0428,215.353 67.5,217.5C 69.774,211.619 72.6073,205.952 76,200.5C 82.7741,192.232 88.9408,183.566 94.5,174.5 Z"/></g>
<g><path style="opacity:0.998" fill="#e6eaec" d="M 516.5,162.5 C 537.057,162.06 548.057,172.06 549.5,192.5C 547.513,216.001 534.846,225.835 511.5,222C 495.391,214.614 489.224,202.114 493,184.5C 496.544,172.453 504.377,165.119 516.5,162.5 Z M 519.5,181.5 C 511.217,189.302 511.717,196.635 521,203.5C 525.623,201.096 528.123,197.263 528.5,192C 528.378,185.872 525.378,182.372 519.5,181.5 Z"/></g>
<g><path style="opacity:1" fill="#0f7fbf" d="M 512.5,165.5 C 533.14,162.304 544.807,170.97 547.5,191.5C 545.851,213.317 534.184,222.817 512.5,220C 500.057,214.877 494.057,205.543 494.5,192C 495.23,179.46 501.23,170.627 512.5,165.5 Z M 519.5,181.5 C 511.217,189.302 511.717,196.635 521,203.5C 525.623,201.096 528.123,197.263 528.5,192C 528.378,185.872 525.378,182.372 519.5,181.5 Z"/></g>
<g><path style="opacity:1" fill="#55a6d2" d="M 423.5,175.5 C 428.833,175.5 434.167,175.5 439.5,175.5C 439.5,190.167 439.5,204.833 439.5,219.5C 438.504,205.343 438.171,191.01 438.5,176.5C 433.305,176.821 428.305,176.487 423.5,175.5 Z"/></g>
<g><path style="opacity:1" fill="#96cae4" d="M 466.5,175.5 C 461.695,176.487 456.695,176.821 451.5,176.5C 451.829,191.01 451.496,205.343 450.5,219.5C 450.5,204.833 450.5,190.167 450.5,175.5C 455.833,175.5 461.167,175.5 466.5,175.5 Z"/></g>
<g><path style="opacity:0.318" fill="#666564" d="M 470.5,177.5 C 471.494,187.653 471.828,197.986 471.5,208.5C 470.5,208.5 469.5,208.5 468.5,208.5C 470.438,198.425 471.105,188.091 470.5,177.5 Z"/></g>
<g><path style="opacity:0.389" fill="#959494" d="M 488.5,177.5 C 487.895,188.091 488.562,198.425 490.5,208.5C 489.5,208.5 488.5,208.5 487.5,208.5C 487.172,197.986 487.506,187.653 488.5,177.5 Z"/></g>
<g><path style="opacity:1" fill="#e4eaed" d="M 516.5,175.5 C 525.585,174.097 531.418,177.764 534,186.5C 535.15,193.19 534.15,199.524 531,205.5C 523.669,212.446 516.669,212.113 510,204.5C 506.763,196.792 506.763,189.125 510,181.5C 512.063,179.266 514.229,177.266 516.5,175.5 Z M 519.5,181.5 C 511.217,189.302 511.717,196.635 521,203.5C 525.623,201.096 528.123,197.263 528.5,192C 528.378,185.872 525.378,182.372 519.5,181.5 Z"/></g>
<g><path style="opacity:0.112" fill="#2d2c2b" d="M 516.5,178.5 C 523.445,176.775 528.278,179.108 531,185.5C 532.141,192.084 531.474,198.417 529,204.5C 523.667,208.5 518.333,208.5 513,204.5C 507.362,194.697 508.529,186.03 516.5,178.5 Z M 519.5,181.5 C 511.217,189.302 511.717,196.635 521,203.5C 525.623,201.096 528.123,197.263 528.5,192C 528.378,185.872 525.378,182.372 519.5,181.5 Z"/></g>
<g><path style="opacity:0.231" fill="#31302f" d="M 146.5,183.5 C 152.44,184.738 158.44,185.738 164.5,186.5C 161.054,188.307 157.554,189.973 154,191.5C 150.595,189.598 148.095,186.931 146.5,183.5 Z"/></g>
<g><path style="opacity:1" fill="#3992c9" d="M 215.5,185.5 C 221.167,185.5 226.833,185.5 232.5,185.5C 232.5,186.5 232.5,187.5 232.5,188.5C 216.153,188.833 199.82,188.499 183.5,187.5C 194.326,186.833 204.992,186.167 215.5,185.5 Z"/></g>
<g><path style="opacity:0.998" fill="#e6eef2" d="M 636.5,178.5 C 637.497,178.47 638.164,178.97 638.5,180C 640.509,186.027 642.509,192.027 644.5,198C 639.798,198.828 635.131,198.662 630.5,197.5C 632.908,191.277 634.908,184.943 636.5,178.5 Z"/></g>
<g><path style="opacity:0.251" fill="#343332" d="M 636.5,186.5 C 637.497,186.47 638.164,186.97 638.5,188C 639.308,190.761 640.308,193.428 641.5,196C 638.833,196.667 636.167,196.667 633.5,196C 635.002,192.995 636.002,189.829 636.5,186.5 Z"/></g>
<g><path style="opacity:1" fill="#0f7fbf" d="M 36.5,188.5 C 39.1873,188.336 41.854,188.503 44.5,189C 50.8981,198.288 57.8981,207.122 65.5,215.5C 61.283,224.37 59.6163,233.703 60.5,243.5C 58.0372,243.219 55.8705,242.219 54,240.5C 49.4644,227.666 44.631,214.999 39.5,202.5C 33.6969,208.762 28.3636,215.429 23.5,222.5C 24.3802,224.429 25.3802,226.263 26.5,228C 24.1667,230.333 21.8333,232.667 19.5,235C 25.2625,242.224 23.5959,247.557 14.5,251C 11.9373,252.079 9.27065,252.579 6.5,252.5C 5.99728,247.828 5.83061,243.161 6,238.5C 8.43401,235.205 10.1007,231.538 11,227.5C 20.0348,214.74 28.5348,201.74 36.5,188.5 Z"/></g>
<g><path style="opacity:1" fill="#0e7fbf" d="M 160.5,221.5 C 158.265,221.205 156.265,221.539 154.5,222.5C 153.167,222.5 151.833,222.5 150.5,222.5C 150.673,216.811 152.173,211.477 155,206.5C 155.333,202.167 155.667,197.833 156,193.5C 159.303,191.432 162.803,189.766 166.5,188.5C 173.304,202.799 184.637,209.966 200.5,210C 187.969,216.565 174.636,220.398 160.5,221.5 Z"/></g>
<g><path style="opacity:1" fill="#1983c1" d="M 172.5,188.5 C 172.56,187.957 172.893,187.624 173.5,187.5C 177.235,191.074 181.568,193.574 186.5,195C 202.497,195.5 218.497,195.667 234.5,195.5C 234.5,196.5 234.5,197.5 234.5,198.5C 217.83,198.667 201.163,198.5 184.5,198C 179.424,196.08 175.424,192.914 172.5,188.5 Z"/></g>
<g><path style="opacity:1" fill="#2186c2" d="M 178.5,187.5 C 180.14,188.32 181.807,189.153 183.5,190C 200.171,190.425 216.837,190.258 233.5,189.5C 233.5,190.833 233.5,192.167 233.5,193.5C 217.497,193.667 201.497,193.5 185.5,193C 182.295,192.088 179.961,190.255 178.5,187.5 Z"/></g>
<g><path style="opacity:1" fill="#1381c0" d="M 169.5,187.5 C 172.302,190.476 174.969,193.642 177.5,197C 179.833,198 182.167,199 184.5,200C 201.497,200.5 218.497,200.667 235.5,200.5C 235.5,202.5 235.5,204.5 235.5,206.5C 224.156,206.445 212.823,206.778 201.5,207.5C 185.608,208.9 174.941,202.234 169.5,187.5 Z"/></g>
<g><path style="opacity:1" fill="#0d7fbf" d="M 151.5,193.5 C 152.777,194.694 153.444,196.36 153.5,198.5C 150.853,220.335 138.519,232.002 116.5,233.5C 120.315,224.532 124.148,215.532 128,206.5C 129.5,205 131,203.5 132.5,202C 138.81,198.852 145.143,196.019 151.5,193.5 Z"/></g>
<g><path style="opacity:0.353" fill="#7a7a79" d="M 334.5,192.5 C 333.833,201.833 333.167,211.167 332.5,220.5C 332.334,210.494 332.5,200.494 333,190.5C 333.717,191.044 334.217,191.711 334.5,192.5 Z"/></g>
<g><path style="opacity:0.329" fill="#7c7c7b" d="M 571.5,192.5 C 570.833,201.833 570.167,211.167 569.5,220.5C 569.334,210.494 569.5,200.494 570,190.5C 570.717,191.044 571.217,191.711 571.5,192.5 Z"/></g>
<g><path style="opacity:1" fill="#077ebe" d="M 158.5,223.5 C 162.371,223.815 166.038,223.482 169.5,222.5C 178.238,220.315 186.904,217.815 195.5,215C 198.772,213.392 201.772,211.392 204.5,209C 215.167,208.667 225.833,208.333 236.5,208C 237.423,205.959 237.756,203.792 237.5,201.5C 254.579,203.404 268.079,211.404 278,225.5C 280.318,251.351 269.151,268.517 244.5,277C 233.833,277.333 223.167,277.667 212.5,278C 205.805,278.026 201.305,281.192 199,287.5C 197.301,293.476 197.134,299.476 198.5,305.5C 183.791,304.331 169.125,303.165 154.5,302C 153.042,304.46 151.209,306.627 149,308.5C 147.249,306.51 146.249,304.177 146,301.5C 145.439,300.978 144.772,300.645 144,300.5C 142.345,303.653 139.845,305.986 136.5,307.5C 140.727,309.115 142.061,311.948 140.5,316C 133.924,317.377 127.257,317.877 120.5,317.5C 121.092,314.309 122.259,311.309 124,308.5C 130.703,302.46 137.369,296.46 144,290.5C 155.954,294.138 168.121,295.471 180.5,294.5C 182.467,284.359 184.967,274.359 188,264.5C 190.892,258.608 195.392,254.441 201.5,252C 200.5,251.333 199.5,251.333 198.5,252C 187.833,256.667 177.167,261.333 166.5,266C 162.032,266.493 157.698,267.493 153.5,269C 143.124,269.539 132.79,269.039 122.5,267.5C 129.44,258.39 136.94,249.724 145,241.5C 147.066,236.637 148.732,231.637 150,226.5C 152.196,223.875 155.03,222.875 158.5,223.5 Z"/></g>
<g><path style="opacity:1" fill="#0b7fbf" d="M 123.5,205.5 C 124.552,205.351 125.552,205.517 126.5,206C 119.838,221.157 112.505,235.99 104.5,250.5C 103.167,250.833 101.833,251.167 100.5,251.5C 96.7634,250.61 93.0968,249.777 89.5,249C 87.3268,250.865 86.9934,253.031 88.5,255.5C 79.7036,254.706 71.5369,251.706 64,246.5C 62.4481,244.232 61.6148,241.732 61.5,239C 62.3022,232.84 63.6356,226.84 65.5,221C 77.6166,217.443 89.9499,214.776 102.5,213C 109.712,210.765 116.712,208.265 123.5,205.5 Z"/></g>
<g><path style="opacity:0.998" fill="#dfe6ea" d="M 392.5,163.5 C 398.425,163.192 404.259,163.525 410,164.5C 416.333,182.167 422.667,199.833 429,217.5C 429.72,219.112 429.554,220.612 428.5,222C 423.167,222.667 417.833,222.667 412.5,222C 411.073,218.556 409.74,215.056 408.5,211.5C 403.167,210.167 397.833,210.167 392.5,211.5C 391.26,215.056 389.927,218.556 388.5,222C 382.916,222.806 377.416,222.639 372,221.5C 377.72,201.845 384.553,182.511 392.5,163.5 Z"/></g>
<g><path style="opacity:1" fill="#0b7fbf" d="M 393.5,166.5 C 398.544,166.173 403.544,166.506 408.5,167.5C 415.103,184.644 421.103,201.977 426.5,219.5C 422.167,219.5 417.833,219.5 413.5,219.5C 412.5,215.5 411.5,211.5 410.5,207.5C 403.833,207.5 397.167,207.5 390.5,207.5C 389.5,211.5 388.5,215.5 387.5,219.5C 383.167,219.5 378.833,219.5 374.5,219.5C 380.551,201.732 386.884,184.065 393.5,166.5 Z"/></g>
<g><path style="opacity:0.998" fill="#e7eef2" d="M 399.5,178.5 C 400.497,178.47 401.164,178.97 401.5,180C 403.509,186.027 405.509,192.027 407.5,198C 402.798,198.828 398.131,198.662 393.5,197.5C 395.908,191.276 397.908,184.943 399.5,178.5 Z"/></g>
<g><path style="opacity:0.237" fill="#343332" d="M 399.5,186.5 C 400.497,186.47 401.164,186.97 401.5,188C 402.308,190.761 403.308,193.428 404.5,196C 401.833,196.667 399.167,196.667 396.5,196C 398.002,192.995 399.002,189.829 399.5,186.5 Z"/></g>
<g><path style="opacity:1" fill="#86c1e0" d="M 682.5,166.5 C 683.496,180.657 683.829,194.99 683.5,209.5C 690.167,209.5 696.833,209.5 703.5,209.5C 703.813,213.042 703.479,216.375 702.5,219.5C 702.5,216.5 702.5,213.5 702.5,210.5C 695.833,210.5 689.167,210.5 682.5,210.5C 682.5,195.833 682.5,181.167 682.5,166.5 Z"/></g>
<g><path style="opacity:1" fill="#1581c0" d="M 304.5,216.5 C 306.92,216.292 309.253,216.626 311.5,217.5C 312.409,223.242 315.742,226.409 321.5,227C 321.167,227.333 320.833,227.667 320.5,228C 315.078,227.741 309.745,227.074 304.5,226C 301.167,230.667 297.167,234.667 292.5,238C 288.463,238.607 284.463,238.44 280.5,237.5C 280.5,234.833 280.5,232.167 280.5,229.5C 284.514,229.666 288.514,229.499 292.5,229C 296.03,224.305 300.03,220.138 304.5,216.5 Z"/></g>
<g><path style="opacity:1" fill="#9acbe4" d="M 469.5,210.5 C 469.5,213.5 469.5,216.5 469.5,219.5C 476.167,219.5 482.833,219.5 489.5,219.5C 489.5,216.5 489.5,213.5 489.5,210.5C 490.479,213.625 490.813,216.958 490.5,220.5C 483.167,220.5 475.833,220.5 468.5,220.5C 468.187,216.958 468.521,213.625 469.5,210.5 Z"/></g>
<g><path style="opacity:1" fill="#0a7fbf" d="M 146.5,221.5 C 147.649,221.791 148.316,222.624 148.5,224C 147.234,229.232 145.734,234.399 144,239.5C 136.853,248.282 129.353,256.782 121.5,265C 115.496,261.501 110.496,256.668 106.5,250.5C 108.746,245.674 111.246,241.008 114,236.5C 126.952,235.939 137.786,230.939 146.5,221.5 Z"/></g>
<g><path style="opacity:1" fill="#9dcce5" d="M 154.5,222.5 C 156.265,221.539 158.265,221.205 160.5,221.5C 163.287,222.477 166.287,222.81 169.5,222.5C 166.038,223.482 162.371,223.815 158.5,223.5C 157.432,222.566 156.099,222.232 154.5,222.5 Z"/></g>
<g><path style="opacity:1" fill="#2084c2" d="M 337.5,221.5 C 339.103,221.312 340.437,221.812 341.5,223C 339.167,226.667 336.167,229.667 332.5,232C 325.567,232.368 318.9,233.868 312.5,236.5C 308.544,236.243 305.211,234.743 302.5,232C 303.292,230.04 304.625,228.54 306.5,227.5C 309.572,228.802 312.738,229.802 316,230.5C 321.305,228.263 326.805,226.763 332.5,226C 334.618,224.951 336.284,223.451 337.5,221.5 Z"/></g>
<g><path style="opacity:1" fill="#2085c2" d="M 347.5,224.5 C 349.179,224.892 350.846,225.392 352.5,226C 347.333,234.749 339.667,238.416 329.5,237C 322.321,239.634 314.987,240.967 307.5,241C 304.339,239.587 301.339,237.92 298.5,236C 299.108,235.13 299.941,234.63 301,234.5C 304.348,236.675 308.015,237.675 312,237.5C 318.778,236.098 325.612,234.932 332.5,234C 337.597,230.796 342.597,227.629 347.5,224.5 Z"/></g>
<g><path style="opacity:1" fill="#1f85c2" d="M 363.5,226.5 C 366.757,226.174 368.257,227.507 368,230.5C 361.747,238.366 353.58,241.533 343.5,240C 340.107,240.798 336.774,241.798 333.5,243C 329.375,243.854 325.375,243.52 321.5,242C 323.911,240.417 326.578,239.417 329.5,239C 337.988,240.031 345.322,237.698 351.5,232C 356.769,232.527 360.769,230.694 363.5,226.5 Z"/></g>
<g><path style="opacity:1" fill="#1e84c1" d="M 379.5,227.5 C 381.696,227.565 383.696,228.232 385.5,229.5C 382.641,234.526 378.641,238.359 373.5,241C 362.828,241.921 352.495,243.754 342.5,246.5C 340.192,246.635 338.192,245.969 336.5,244.5C 343.576,241.918 350.909,240.418 358.5,240C 362.533,238.651 365.866,236.318 368.5,233C 373.306,233.264 376.972,231.431 379.5,227.5 Z"/></g>
<g><path style="opacity:1" fill="#0f7fbf" d="M 60.5,245.5 C 63.406,248.965 67.0727,251.465 71.5,253C 77.4674,255.267 83.4674,257.433 89.5,259.5C 87.9716,260.861 86.3049,262.028 84.5,263C 69.8547,264.083 55.188,264.749 40.5,265C 39.0439,265.423 38.5439,266.256 39,267.5C 43.7274,271.781 48.8941,275.448 54.5,278.5C 59.2708,274.108 62.9374,274.942 65.5,281C 68.5505,281.857 71.2172,281.19 73.5,279C 77.3635,278.837 80.8635,280.004 84,282.5C 86.5426,285.749 88.7092,289.249 90.5,293C 86.2732,294.239 81.9398,295.072 77.5,295.5C 72.5715,294.122 67.5715,292.955 62.5,292C 49.5833,284.292 36.75,276.459 24,268.5C 23.2228,265.571 23.3895,262.737 24.5,260C 36.5598,255.042 48.5598,250.209 60.5,245.5 Z"/></g>
<g><path style="opacity:1" fill="#e5e8e9" d="M 317.5,247.5 C 322.179,247.334 326.845,247.501 331.5,248C 332,248.5 332.5,249 333,249.5C 333.333,262.167 333.667,274.833 334,287.5C 335.018,290.683 337.185,292.016 340.5,291.5C 344.925,291.909 347.425,289.909 348,285.5C 348.333,273.167 348.667,260.833 349,248.5C 354.333,247.167 359.667,247.167 365,248.5C 365.667,261.5 365.667,274.5 365,287.5C 362.428,300.897 354.261,307.564 340.5,307.5C 328.542,307.357 320.709,301.69 317,290.5C 316.185,276.092 316.352,261.759 317.5,247.5 Z M 336.5,251.5 C 336.334,261.172 336.5,270.839 337,280.5C 337.346,282.218 337.846,283.885 338.5,285.5C 341.026,287.919 342.86,287.253 344,283.5C 344.5,273.172 344.666,262.839 344.5,252.5C 341.763,252.599 339.096,252.265 336.5,251.5 Z"/></g>
<g><path style="opacity:0.994" fill="#eff0f1" d="M 373.5,247.5 C 378.875,247.172 384.208,247.505 389.5,248.5C 396.249,258.329 402.749,268.329 409,278.5C 409.333,268.5 409.667,258.5 410,248.5C 415,247.167 420,247.167 425,248.5C 425.826,267.74 425.659,286.907 424.5,306C 419.5,306.667 414.5,306.667 409.5,306C 402.293,295.756 395.46,285.256 389,274.5C 388.667,284.833 388.333,295.167 388,305.5C 383,306.833 378,306.833 373,305.5C 372.18,286.093 372.347,266.76 373.5,247.5 Z"/></g>
<g><path style="opacity:0.999" fill="#e8ecef" d="M 450.5,261.5 C 449.506,271.653 449.172,281.986 449.5,292.5C 450.5,292.5 451.5,292.5 452.5,292.5C 453.117,292.611 453.617,292.944 454,293.5C 457.841,305.493 453.674,309.826 441.5,306.5C 437.252,306.485 433.085,306.152 429,305.5C 428.833,303.333 428.667,301.167 428.5,299C 428.533,296.39 429.2,294.223 430.5,292.5C 431.5,292.5 432.5,292.5 433.5,292.5C 433.828,281.986 433.494,271.653 432.5,261.5C 431.178,261.67 430.011,261.337 429,260.5C 428.204,256.245 428.371,252.079 429.5,248C 442.5,247.333 455.5,247.333 468.5,248C 472.244,259.141 475.91,270.308 479.5,281.5C 483.101,270.531 486.601,259.531 490,248.5C 495.082,247.363 500.249,247.196 505.5,248C 506.576,249.726 506.743,251.559 506,253.5C 500,270.833 494,288.167 488,305.5C 482.584,306.639 477.084,306.806 471.5,306C 465.394,291.689 460.061,277.023 455.5,262C 455.167,261.5 454.833,261 454.5,260.5C 453.264,261.246 451.93,261.579 450.5,261.5 Z"/></g>
<g><path style="opacity:1" fill="#e8e9ea" d="M 509.5,247.5 C 520.838,247.333 532.172,247.5 543.5,248C 544.833,252.667 544.833,257.333 543.5,262C 537.509,262.499 531.509,262.666 525.5,262.5C 525.5,264.833 525.5,267.167 525.5,269.5C 531.176,269.334 536.843,269.501 542.5,270C 543.629,274.079 543.796,278.245 543,282.5C 542.5,283 542,283.5 541.5,284C 536.177,284.499 530.844,284.666 525.5,284.5C 525.5,286.833 525.5,289.167 525.5,291.5C 531.842,291.334 538.175,291.5 544.5,292C 545.833,296.667 545.833,301.333 544.5,306C 532.591,306.821 520.757,306.654 509,305.5C 508.18,286.093 508.347,266.76 509.5,247.5 Z"/></g>
<g><path style="opacity:1" fill="#7cbcdd" d="M 451.5,259.5 C 451.5,256.5 451.5,253.5 451.5,250.5C 444.833,250.5 438.167,250.5 431.5,250.5C 431.5,253.5 431.5,256.5 431.5,259.5C 430.521,256.375 430.187,253.042 430.5,249.5C 437.833,249.5 445.167,249.5 452.5,249.5C 452.813,253.042 452.479,256.375 451.5,259.5 Z"/></g>
<g><path style="opacity:1" fill="#81bede" d="M 491.5,250.5 C 495.634,249.515 499.968,249.182 504.5,249.5C 504.737,250.791 504.404,251.791 503.5,252.5C 499.971,250.577 495.971,249.911 491.5,250.5 Z"/></g>
<g><path style="opacity:1" fill="#087ebe" d="M 350.5,284.5 C 351.495,273.346 351.828,262.012 351.5,250.5C 355.167,250.5 358.833,250.5 362.5,250.5C 362.5,261.833 362.5,273.167 362.5,284.5C 361.197,298.337 353.53,305.004 339.5,304.5C 328.009,304.512 321.175,298.846 319,287.5C 318.5,274.838 318.333,262.171 318.5,249.5C 322.5,249.5 326.5,249.5 330.5,249.5C 330.333,261.505 330.5,273.505 331,285.5C 334.727,295.343 340.727,297.01 349,290.5C 349.813,288.564 350.313,286.564 350.5,284.5 Z M 336.5,251.5 C 336.334,261.172 336.5,270.839 337,280.5C 337.346,282.218 337.846,283.885 338.5,285.5C 341.026,287.919 342.86,287.253 344,283.5C 344.5,273.172 344.666,262.839 344.5,252.5C 341.763,252.599 339.096,252.265 336.5,251.5 Z"/></g>
<g><path style="opacity:1" fill="#7abbdd" d="M 362.5,284.5 C 362.5,273.167 362.5,261.833 362.5,250.5C 358.833,250.5 355.167,250.5 351.5,250.5C 351.828,262.012 351.495,273.346 350.5,284.5C 350.5,272.833 350.5,261.167 350.5,249.5C 354.833,249.5 359.167,249.5 363.5,249.5C 363.828,261.345 363.495,273.012 362.5,284.5 Z"/></g>
<g><path style="opacity:1" fill="#3e99cc" d="M 387.5,250.5 C 383.5,250.5 379.5,250.5 375.5,250.5C 375.5,268.167 375.5,285.833 375.5,303.5C 374.503,285.674 374.17,267.674 374.5,249.5C 379.032,249.182 383.366,249.515 387.5,250.5 Z"/></g>
<g><path style="opacity:1" fill="#057ebe" d="M 387.5,250.5 C 395.47,261.99 403.304,273.656 411,285.5C 411.5,273.838 411.667,262.171 411.5,250.5C 415.167,250.5 418.833,250.5 422.5,250.5C 422.5,268.167 422.5,285.833 422.5,303.5C 418.5,303.5 414.5,303.5 410.5,303.5C 402.807,291.482 395.14,279.482 387.5,267.5C 387.217,266.711 386.717,266.044 386,265.5C 385.5,278.162 385.333,290.829 385.5,303.5C 382.167,303.5 378.833,303.5 375.5,303.5C 375.5,285.833 375.5,268.167 375.5,250.5C 379.5,250.5 383.5,250.5 387.5,250.5 Z"/></g>
<g><path style="opacity:1" fill="#7abadc" d="M 411.5,250.5 C 415.298,249.517 419.298,249.183 423.5,249.5C 423.5,267.833 423.5,286.167 423.5,304.5C 418.968,304.818 414.634,304.485 410.5,303.5C 414.5,303.5 418.5,303.5 422.5,303.5C 422.5,285.833 422.5,268.167 422.5,250.5C 418.833,250.5 415.167,250.5 411.5,250.5 Z"/></g>
<g><path style="opacity:1" fill="#007dbe" d="M 451.5,259.5 C 450.167,259.5 448.833,259.5 447.5,259.5C 447.5,271.167 447.5,282.833 447.5,294.5C 448.833,294.5 450.167,294.5 451.5,294.5C 451.5,297.5 451.5,300.5 451.5,303.5C 444.833,303.5 438.167,303.5 431.5,303.5C 431.5,300.5 431.5,297.5 431.5,294.5C 432.833,294.5 434.167,294.5 435.5,294.5C 435.5,282.833 435.5,271.167 435.5,259.5C 434.167,259.5 432.833,259.5 431.5,259.5C 431.5,256.5 431.5,253.5 431.5,250.5C 438.167,250.5 444.833,250.5 451.5,250.5C 451.5,253.5 451.5,256.5 451.5,259.5 Z"/></g>
<g><path style="opacity:1" fill="#0e7fbf" d="M 491.5,250.5 C 495.971,249.911 499.971,250.577 503.5,252.5C 497.632,269.438 491.965,286.438 486.5,303.5C 481.5,303.5 476.5,303.5 471.5,303.5C 466.247,286.072 460.58,268.739 454.5,251.5C 458.833,250.167 463.167,250.167 467.5,251.5C 471.427,264.116 475.26,276.782 479,289.5C 483.624,276.681 487.79,263.681 491.5,250.5 Z"/></g>
<g><path style="opacity:1" fill="#78badc" d="M 541.5,259.5 C 541.5,256.5 541.5,253.5 541.5,250.5C 531.5,250.5 521.5,250.5 511.5,250.5C 511.5,268.167 511.5,285.833 511.5,303.5C 511.167,303.5 510.833,303.5 510.5,303.5C 510.5,285.5 510.5,267.5 510.5,249.5C 521.167,249.5 531.833,249.5 542.5,249.5C 542.813,253.042 542.479,256.375 541.5,259.5 Z"/></g>
<g><path style="opacity:1" fill="#077ebe" d="M 541.5,259.5 C 535.167,259.5 528.833,259.5 522.5,259.5C 522.183,263.702 522.517,267.702 523.5,271.5C 529.167,271.5 534.833,271.5 540.5,271.5C 540.5,274.833 540.5,278.167 540.5,281.5C 534.833,281.5 529.167,281.5 523.5,281.5C 523.5,285.5 523.5,289.5 523.5,293.5C 529.645,294.49 535.978,294.823 542.5,294.5C 542.5,297.5 542.5,300.5 542.5,303.5C 532.167,303.5 521.833,303.5 511.5,303.5C 511.5,285.833 511.5,268.167 511.5,250.5C 521.5,250.5 531.5,250.5 541.5,250.5C 541.5,253.5 541.5,256.5 541.5,259.5 Z"/></g>
<g><path style="opacity:1" fill="#0f80bf" d="M 90.5,250.5 C 95.51,252.907 100.843,254.073 106.5,254C 108.963,257.465 111.796,260.631 115,263.5C 115.523,267.117 114.023,269.451 110.5,270.5C 105.314,269.16 100.314,267.327 95.5,265C 91.5005,260.832 89.8338,255.999 90.5,250.5 Z"/></g>
<g><path style="opacity:1" fill="#91c6e2" d="M 541.5,259.5 C 535.69,260.49 529.69,260.823 523.5,260.5C 523.5,264.167 523.5,267.833 523.5,271.5C 522.517,267.702 522.183,263.702 522.5,259.5C 528.833,259.5 535.167,259.5 541.5,259.5 Z"/></g>
<g><path style="opacity:0.408" fill="#959594" d="M 432.5,261.5 C 433.494,271.653 433.828,281.986 433.5,292.5C 432.5,292.5 431.5,292.5 430.5,292.5C 432.438,282.425 433.105,272.091 432.5,261.5 Z"/></g>
<g><path style="opacity:0.298" fill="#656464" d="M 450.5,261.5 C 449.895,272.091 450.562,282.425 452.5,292.5C 451.5,292.5 450.5,292.5 449.5,292.5C 449.172,281.986 449.506,271.653 450.5,261.5 Z"/></g>
<g><path style="opacity:1" fill="#1a82c1" d="M 171.5,271.5 C 175.806,271.492 179.806,272.492 183.5,274.5C 182.665,278.838 181.332,283.005 179.5,287C 178.365,287.749 177.365,287.583 176.5,286.5C 175.846,284.885 175.346,283.218 175,281.5C 174.439,280.978 173.772,280.645 173,280.5C 171.151,283.179 168.651,285.012 165.5,286C 168.534,287.191 170.201,289.358 170.5,292.5C 166.486,292.666 162.486,292.499 158.5,292C 153.128,291.338 152.295,289.171 156,285.5C 161.959,281.707 167.126,277.041 171.5,271.5 Z"/></g>
<g><path style="opacity:1" fill="#63afd7" d="M 387.5,267.5 C 386.833,279.5 386.167,291.5 385.5,303.5C 385.333,290.829 385.5,278.162 386,265.5C 386.717,266.044 387.217,266.711 387.5,267.5 Z"/></g>
<g><path style="opacity:1" fill="#1581c0" d="M 218.5,279.5 C 224.537,279.171 230.537,279.504 236.5,280.5C 239.036,285.589 240.202,290.922 240,296.5C 238.274,297.576 236.441,297.743 234.5,297C 223.691,293.801 213.024,290.301 202.5,286.5C 205.887,279.976 210.887,278.643 217.5,282.5C 218.386,281.675 218.719,280.675 218.5,279.5 Z"/></g>
<g><path style="opacity:0.307" fill="#302f2e" d="M 172.5,284.5 C 173.69,286.355 175.023,288.188 176.5,290C 177.449,290.617 178.282,290.451 179,289.5C 179.684,290.784 179.517,291.951 178.5,293C 176.527,293.495 174.527,293.662 172.5,293.5C 172.118,290.354 172.118,287.354 172.5,284.5 Z"/></g>
<g><path style="opacity:0.998" fill="#e2e8eb" d="M 614.5,246.5 C 618.846,246.334 623.179,246.501 627.5,247C 630.696,247.396 633.53,248.562 636,250.5C 636.799,255.087 636.632,259.587 635.5,264C 631.093,263.069 626.593,262.236 622,261.5C 620.167,261.667 618.333,261.833 616.5,262C 613.997,263.549 613.997,265.216 616.5,267C 623.366,269.347 629.532,272.847 635,277.5C 638.008,282.016 639.174,287.016 638.5,292.5C 639.833,292.5 641.167,292.5 642.5,292.5C 642.5,282.167 642.5,271.833 642.5,261.5C 641.167,261.5 639.833,261.5 638.5,261.5C 638.2,256.901 638.533,252.401 639.5,248C 668.172,247.167 696.839,247.333 725.5,248.5C 728.077,254.652 730.91,260.652 734,266.5C 736.644,260.232 739.477,254.065 742.5,248C 747.5,247.333 752.5,247.333 757.5,248C 758.554,249.388 758.72,250.888 758,252.5C 752.667,263.167 747.333,273.833 742,284.5C 741.667,291.5 741.333,298.5 741,305.5C 735.667,306.833 730.333,306.833 725,305.5C 724.667,298.5 724.333,291.5 724,284.5C 719.141,274.92 714.474,265.253 710,255.5C 709.764,257.764 709.264,259.931 708.5,262C 703.845,262.499 699.179,262.666 694.5,262.5C 694.667,276.837 694.5,291.171 694,305.5C 688.667,306.833 683.333,306.833 678,305.5C 677.5,291.171 677.333,276.837 677.5,262.5C 671.464,262.64 665.464,262.307 659.5,261.5C 659.5,271.833 659.5,282.167 659.5,292.5C 661.144,292.286 662.644,292.62 664,293.5C 664.667,297.167 664.667,300.833 664,304.5C 663.5,305 663,305.5 662.5,306C 654.833,306.667 647.167,306.667 639.5,306C 638.7,301.92 638.2,297.753 638,293.5C 635.762,300.07 631.262,304.237 624.5,306C 616.141,308.18 607.974,307.68 600,304.5C 599.5,305 599,305.5 598.5,306C 592.833,306.667 587.167,306.667 581.5,306C 578.126,300.084 574.626,294.25 571,288.5C 569.981,287.313 568.814,286.313 567.5,285.5C 566.669,292.142 566.169,298.809 566,305.5C 560.918,306.637 555.751,306.804 550.5,306C 549.341,286.907 549.174,267.74 550,248.5C 559.089,247.35 568.255,247.183 577.5,248C 587.279,249.446 592.612,255.113 593.5,265C 592.655,271.698 589.322,276.698 583.5,280C 588.37,286.239 592.87,292.739 597,299.5C 597.499,295.514 597.666,291.514 597.5,287.5C 598.873,287.343 600.207,287.51 601.5,288C 606.779,292.187 612.779,293.52 619.5,292C 622.167,290.333 622.167,288.667 619.5,287C 612.179,284.46 605.679,280.626 600,275.5C 593.645,260.211 598.478,250.544 614.5,246.5 Z M 605.5,284.5 C 607.819,284.992 609.819,285.992 611.5,287.5C 608.911,287.539 606.911,286.539 605.5,284.5 Z M 594.5,274.5 C 593.585,276.754 592.252,278.754 590.5,280.5C 591.5,281.833 592.5,283.167 593.5,284.5C 596.443,283.756 599.443,283.256 602.5,283C 599.034,280.8 596.368,277.966 594.5,274.5 Z M 638.5,266.5 C 636.524,268.011 634.191,268.844 631.5,269C 634.361,270.832 636.861,272.999 639,275.5C 639.805,272.304 639.638,269.304 638.5,266.5 Z"/></g>
<g><path style="opacity:1" fill="#95c9e4" d="M 664.5,250.5 C 678.657,249.504 692.99,249.171 707.5,249.5C 707.5,253.167 707.5,256.833 707.5,260.5C 702.5,260.5 697.5,260.5 692.5,260.5C 692.829,275.01 692.496,289.343 691.5,303.5C 691.5,288.833 691.5,274.167 691.5,259.5C 696.5,259.5 701.5,259.5 706.5,259.5C 706.5,256.5 706.5,253.5 706.5,250.5C 692.5,250.5 678.5,250.5 664.5,250.5 Z"/></g>
<g><path style="opacity:1" fill="#1480bf" d="M 743.5,250.5 C 747.702,250.183 751.702,250.517 755.5,251.5C 750.36,261.78 745.193,272.114 740,282.5C 739.5,289.492 739.334,296.492 739.5,303.5C 735.167,303.5 730.833,303.5 726.5,303.5C 726.666,296.825 726.5,290.158 726,283.5C 721.106,272.711 715.939,262.044 710.5,251.5C 715.167,250.167 719.833,250.167 724.5,251.5C 727.308,258.592 730.308,265.592 733.5,272.5C 736.843,265.149 740.176,257.816 743.5,250.5 Z"/></g>
<g><path style="opacity:1" fill="#047ebe" d="M 664.5,250.5 C 678.5,250.5 692.5,250.5 706.5,250.5C 706.5,253.5 706.5,256.5 706.5,259.5C 701.5,259.5 696.5,259.5 691.5,259.5C 691.5,274.167 691.5,288.833 691.5,303.5C 687.5,303.5 683.5,303.5 679.5,303.5C 679.5,288.833 679.5,274.167 679.5,259.5C 674.5,259.5 669.5,259.5 664.5,259.5C 664.5,256.5 664.5,253.5 664.5,250.5 Z"/></g>
<g><path style="opacity:1" fill="#087ebf" d="M 640.5,250.5 C 647.5,250.5 654.5,250.5 661.5,250.5C 661.5,253.5 661.5,256.5 661.5,259.5C 660.167,259.5 658.833,259.5 657.5,259.5C 657.5,271.167 657.5,282.833 657.5,294.5C 658.833,294.5 660.167,294.5 661.5,294.5C 661.5,297.5 661.5,300.5 661.5,303.5C 654.5,303.5 647.5,303.5 640.5,303.5C 640.5,300.5 640.5,297.5 640.5,294.5C 642.167,294.5 643.833,294.5 645.5,294.5C 645.5,282.833 645.5,271.167 645.5,259.5C 643.833,259.5 642.167,259.5 640.5,259.5C 640.5,256.5 640.5,253.5 640.5,250.5 Z"/></g>
<g><path style="opacity:1" fill="#087ebe" d="M 576.5,250.5 C 589.848,253.195 593.681,260.861 588,273.5C 585.617,276.273 582.783,278.439 579.5,280C 586.119,286.878 591.785,294.545 596.5,303C 591.833,303.667 587.167,303.667 582.5,303C 579.126,297.084 575.626,291.25 572,285.5C 569.435,283.821 566.602,283.154 563.5,283.5C 563.5,290.167 563.5,296.833 563.5,303.5C 559.833,303.5 556.167,303.5 552.5,303.5C 552.5,285.833 552.5,268.167 552.5,250.5C 560.5,250.5 568.5,250.5 576.5,250.5 Z"/></g>
<g><path style="opacity:0.998" fill="#ebedee" d="M 571.5,259.5 C 575.391,259.892 577.391,262.059 577.5,266C 577.74,270.374 575.74,272.874 571.5,273.5C 569.167,273.5 566.833,273.5 564.5,273.5C 564.5,268.833 564.5,264.167 564.5,259.5C 566.833,259.5 569.167,259.5 571.5,259.5 Z"/></g>
<g><path style="opacity:0.183" fill="#2b2a29" d="M 566.5,261.5 C 569.602,261.154 572.435,261.821 575,263.5C 575.663,269.667 572.83,272.334 566.5,271.5C 566.5,268.167 566.5,264.833 566.5,261.5 Z"/></g>
<g><path style="opacity:1" fill="#7bbcdd" d="M 571.5,259.5 C 569.167,259.5 566.833,259.5 564.5,259.5C 564.5,264.167 564.5,268.833 564.5,273.5C 566.833,273.5 569.167,273.5 571.5,273.5C 569.052,274.473 566.385,274.806 563.5,274.5C 563.5,269.167 563.5,263.833 563.5,258.5C 566.385,258.194 569.052,258.527 571.5,259.5 Z"/></g>
<g><path style="opacity:1" fill="#64afd7" d="M 576.5,250.5 C 568.5,250.5 560.5,250.5 552.5,250.5C 552.5,268.167 552.5,285.833 552.5,303.5C 551.503,285.674 551.17,267.674 551.5,249.5C 560.017,249.174 568.35,249.507 576.5,250.5 Z"/></g>
<g><path style="opacity:1" fill="#7fbdde" d="M 743.5,250.5 C 747.683,249.189 752.016,249.189 756.5,250.5C 756.376,251.107 756.043,251.44 755.5,251.5C 751.702,250.517 747.702,250.183 743.5,250.5 Z"/></g>
<g><path style="opacity:1" fill="#0e7fbf" d="M 611.5,249.5 C 618.876,249.274 626.209,249.608 633.5,250.5C 633.823,254.226 633.489,257.893 632.5,261.5C 627.477,258.764 622.144,257.93 616.5,259C 611.605,261.823 611.271,265.157 615.5,269C 622.422,271.706 628.589,275.54 634,280.5C 638.97,292.119 635.47,299.952 623.5,304C 615.377,304.938 607.377,304.438 599.5,302.5C 599.176,298.445 599.509,294.445 600.5,290.5C 606.523,295.419 613.189,296.586 620.5,294C 624.5,291 624.5,288 620.5,285C 613.066,282.205 606.566,278.038 601,272.5C 596.945,261.281 600.445,253.614 611.5,249.5 Z"/></g>
<g><path style="opacity:1" fill="#a1cee6" d="M 431.5,294.5 C 431.5,297.5 431.5,300.5 431.5,303.5C 438.167,303.5 444.833,303.5 451.5,303.5C 444.687,304.491 437.687,304.825 430.5,304.5C 430.187,300.958 430.521,297.625 431.5,294.5 Z"/></g>
<g><path style="opacity:1" fill="#9ecde5" d="M 523.5,293.5 C 530.167,293.5 536.833,293.5 543.5,293.5C 543.5,297.167 543.5,300.833 543.5,304.5C 532.321,304.828 521.321,304.495 510.5,303.5C 510.833,303.5 511.167,303.5 511.5,303.5C 521.833,303.5 532.167,303.5 542.5,303.5C 542.5,300.5 542.5,297.5 542.5,294.5C 535.978,294.823 529.645,294.49 523.5,293.5 Z"/></g>
</svg>
